<?xml version="1.0" standalone="no"?>
<!DOCTYPE svg PUBLIC "-//W3C//DTD SVG 20010904//EN"
 "http://www.w3.org/TR/2001/REC-SVG-20010904/DTD/svg10.dtd">
<svg version="1.0" xmlns="http://www.w3.org/2000/svg"
 width="1885.000000pt" height="883.000000pt" viewBox="0 0 1885.000000 883.000000"
 preserveAspectRatio="xMidYMid meet">

<g transform="translate(0.000000,883.000000) scale(0.100000,-0.100000)"
fill="#000000" stroke="none">
<path d="M0 4415 l0 -4415 4385 0 4385 0 0 75 c0 43 4 75 10 75 6 0 10 -5 10
-11 0 -8 5 -8 15 1 23 19 64 4 71 -27 11 -42 -15 -78 -54 -77 -25 2 -32 -2
-32 -17 0 -17 8 -19 70 -19 85 0 91 8 61 86 -24 63 -24 64 -13 64 5 0 14 -18
21 -40 16 -55 27 -57 43 -8 8 23 19 43 26 46 6 2 -2 -29 -18 -69 -17 -39 -30
-73 -30 -75 0 -2 68 -4 150 -4 141 0 150 1 150 19 0 15 -7 19 -32 17 -25 -1
-35 5 -47 27 -14 24 -14 30 -1 55 13 22 23 27 58 28 l42 2 0 -74 0 -74 584 0
c500 0 585 2 589 14 3 8 -5 42 -18 76 -14 34 -19 60 -13 58 7 -3 19 -26 28
-53 l16 -49 19 52 c11 29 23 52 27 52 11 0 11 1 -17 -68 -14 -34 -25 -66 -25
-72 0 -7 135 -10 400 -10 386 0 400 1 400 19 0 15 -7 19 -32 17 -25 -1 -35 5
-47 26 -14 25 -14 31 -1 55 13 23 23 28 58 29 l42 2 0 -74 0 -74 3785 0 3785
0 0 4415 0 4415 -9425 0 -9425 0 0 -4415z m423 4308 c-7 -2 -19 -2 -25 0 -7 3
-2 5 12 5 14 0 19 -2 13 -5z m74 1 c-3 -3 -12 -4 -19 -1 -8 3 -5 6 6 6 11 1
17 -2 13 -5z m-167 -27 c0 -2 -15 -16 -32 -33 l-33 -29 29 33 c28 30 36 37 36
29z m460 -1 c0 -2 -8 -10 -17 -17 -16 -13 -17 -12 -4 4 13 16 21 21 21 13z
m157 -128 c-3 -7 -5 -2 -5 12 0 14 2 19 5 13 2 -7 2 -19 0 -25z m-49 -45 c-10
-2 -26 -2 -35 0 -10 3 -2 5 17 5 19 0 27 -2 18 -5z m-258 -66 c0 -2 -17 -19
-37 -38 l-38 -34 34 38 c33 34 41 42 41 34z m-340 -247 c-13 -9 -13 -11 0 -20
13 -8 12 -10 -2 -10 -11 0 -18 8 -18 20 0 12 7 20 18 20 14 0 15 -2 2 -10z
m51 -7 c0 -15 2 -15 9 2 8 19 9 19 9 -2 1 -29 -25 -31 -32 -3 -3 11 -1 20 4
20 5 0 9 -8 10 -17z m79 6 c0 -5 -6 -7 -12 -3 -10 6 -10 5 -1 -7 10 -12 9 -15
-5 -16 -11 -1 -18 6 -18 18 0 12 7 19 18 19 10 0 18 -5 18 -11z m56 -11 c1
-12 -4 -18 -17 -18 -13 0 -19 7 -19 21 0 25 32 22 36 -3z m44 12 c-13 -9 -13
-11 0 -20 13 -8 12 -10 -2 -10 -11 0 -18 8 -18 20 0 12 7 20 18 20 14 0 15 -2
2 -10z m50 0 c0 -5 -2 -10 -4 -10 -3 0 -8 5 -11 10 -3 6 -1 10 4 10 6 0 11 -4
11 -10z m20 -8 c0 -10 -8 -18 -19 -19 -19 -2 -19 -1 -3 17 22 23 22 23 22 2z
m48 11 c-10 -2 -18 -8 -18 -13 0 -5 8 -11 18 -13 15 -4 15 -5 0 -6 -19 -1 -32
14 -23 29 3 6 14 9 23 9 15 -1 15 -2 0 -6z m64 -5 c-9 -9 -15 -9 -24 0 -9 9
-7 12 12 12 19 0 21 -3 12 -12z m14548 -503 c65 -34 60 243 60 -3255 0 -2824
-2 -3184 -15 -3210 -34 -65 204 -60 -2865 -60 -2567 0 -2794 1 -2820 16 -15 9
-35 29 -44 44 -15 26 -16 282 -16 3210 0 2917 1 3184 16 3209 9 15 28 35 43
44 24 15 255 16 2819 17 2477 0 2796 -2 2822 -15z m-14329 -2417 c18 -46 57
-138 86 -206 29 -67 53 -127 53 -132 0 -6 -11 -10 -24 -10 -20 0 -27 10 -47
68 l-24 67 -97 3 -96 3 -21 -58 c-12 -32 -24 -64 -26 -70 -2 -7 -14 -13 -26
-13 -16 0 -20 4 -15 18 4 9 41 106 83 215 67 175 78 197 98 197 19 0 28 -13
56 -82z m463 73 c12 -19 -7 -40 -37 -43 -28 -3 -32 -7 -35 -35 -3 -31 -1 -33
27 -33 24 0 31 -4 31 -20 0 -16 -7 -20 -30 -20 l-30 0 0 -135 0 -135 -25 0
-25 0 0 135 0 135 -25 0 c-18 0 -25 5 -25 20 0 15 7 20 25 20 22 0 25 4 25 35
0 48 36 85 84 85 19 0 37 -4 40 -9z m3776 -78 c0 -83 1 -86 19 -69 28 26 76
36 116 25 54 -15 65 -47 65 -184 0 -108 -1 -115 -20 -115 -19 0 -20 7 -20 115
0 102 -2 117 -20 135 -24 24 -60 26 -99 5 -38 -19 -41 -30 -41 -151 0 -97 -1
-104 -20 -104 -19 0 -20 7 -20 215 0 208 1 215 20 215 18 0 20 -7 20 -87z
m970 -40 l0 -127 68 67 c46 46 75 67 92 67 22 0 19 -6 -34 -59 l-58 -59 67
-96 c63 -90 65 -96 42 -96 -20 0 -35 16 -77 80 -29 44 -55 80 -58 80 -3 0 -14
-7 -24 -17 -14 -12 -18 -31 -18 -80 0 -56 -2 -63 -20 -63 -19 0 -20 7 -20 215
0 208 1 215 20 215 19 0 20 -7 20 -127z m-4030 57 c0 -49 1 -50 30 -50 23 0
30 -5 30 -19 0 -14 -8 -21 -27 -23 -28 -3 -28 -4 -31 -88 -4 -110 1 -130 33
-130 20 0 25 -5 25 -25 0 -21 -5 -25 -28 -25 -15 0 -38 7 -50 16 -21 14 -22
22 -22 135 0 112 -1 119 -20 119 -13 0 -20 7 -20 20 0 13 7 20 20 20 16 0 20
7 20 38 0 36 14 62 32 62 4 0 8 -22 8 -50z m2126 -50 c17 0 24 -5 24 -20 0
-15 -7 -20 -25 -20 l-25 0 0 -109 0 -109 30 -11 c17 -6 30 -17 30 -27 0 -14
-7 -16 -37 -11 -20 4 -41 11 -47 17 -6 6 -12 62 -14 130 -3 110 -5 120 -23
120 -12 0 -19 7 -19 20 0 13 7 20 20 20 16 0 20 7 20 36 0 23 6 41 18 50 15
11 17 8 20 -37 3 -45 5 -49 28 -49z m-2589 -34 c21 -25 23 -37 23 -129 0 -56
3 -112 6 -124 5 -20 2 -23 -20 -23 -19 0 -26 5 -26 20 0 24 2 24 -51 0 -55
-25 -96 -25 -135 -1 -35 22 -49 58 -34 95 14 37 48 55 131 69 69 11 74 14 74
37 0 54 -104 65 -144 15 -12 -16 -25 -23 -35 -19 -20 8 -20 23 -1 52 21 29 67
42 134 38 45 -2 59 -8 78 -30z m278 19 c43 -17 62 -56 34 -69 -14 -7 -23 -3
-38 15 -24 29 -91 33 -118 6 -15 -15 -16 -19 -2 -32 8 -8 46 -24 84 -35 71
-20 105 -46 105 -81 0 -79 -103 -123 -195 -85 -41 18 -67 62 -44 77 22 14 36
11 42 -11 11 -41 108 -50 138 -14 21 25 -2 47 -68 65 -79 22 -102 35 -114 66
-30 80 77 140 176 98z m480 1 c43 -18 75 -69 75 -118 l0 -38 -114 0 -113 0 5
-25 c6 -35 57 -75 94 -75 22 0 40 10 62 33 18 19 38 31 49 29 23 -5 22 -15 -8
-51 -45 -52 -132 -64 -192 -25 -74 47 -74 208 -1 256 45 30 94 34 143 14z
m185 -6 c0 -11 7 -20 15 -20 8 0 15 4 15 8 0 14 47 31 69 25 35 -9 25 -33 -12
-33 -59 0 -71 -25 -75 -156 -3 -104 -5 -114 -23 -114 -18 0 -19 9 -19 155 0
131 2 155 15 155 8 0 15 -9 15 -20z m353 -32 c9 -29 23 -82 33 -118 28 -107
26 -109 82 95 15 55 23 71 39 73 18 3 24 -9 49 -113 16 -64 34 -116 39 -116 6
-1 26 51 45 115 27 90 39 116 53 116 9 0 17 -1 17 -2 0 -2 -22 -70 -48 -153
-40 -125 -51 -150 -69 -153 -18 -3 -23 9 -49 113 -16 64 -33 117 -38 118 -6 1
-24 -51 -40 -115 -27 -103 -34 -118 -52 -118 -17 0 -26 19 -63 142 -24 78 -45
148 -48 155 -3 8 3 13 15 13 16 0 24 -11 35 -52z m590 41 c57 -15 65 -37 69
-177 3 -111 1 -122 -14 -122 -12 0 -18 8 -18 25 0 29 -3 30 -34 10 -71 -47
-158 -37 -182 20 -28 68 9 107 120 125 81 13 86 15 86 40 0 51 -109 69 -150
25 -26 -28 -50 -33 -50 -10 0 22 35 54 67 61 16 3 33 7 38 9 18 6 29 5 68 -6z
m218 -114 c24 -69 47 -125 50 -125 3 0 26 55 50 121 39 109 59 142 75 126 6
-6 -106 -307 -138 -370 -28 -56 -98 -74 -98 -26 0 14 7 19 29 19 16 0 33 6 39
13 28 33 23 64 -32 211 -31 80 -56 149 -56 151 0 3 9 5 19 5 15 0 27 -24 62
-125z m771 104 c39 -21 63 -72 63 -136 0 -96 -49 -146 -143 -146 -152 0 -183
249 -36 293 31 9 88 3 116 -11z m465 11 c18 0 73 -50 73 -66 0 -22 -27 -17
-54 11 -50 50 -127 26 -146 -46 -23 -84 17 -159 85 -159 35 0 85 35 85 60 0 5
9 10 20 10 26 0 25 -9 -3 -51 -45 -67 -153 -71 -199 -8 -42 56 -42 152 0 208
21 29 77 53 107 46 11 -3 25 -5 32 -5z m670 -16 c27 -17 49 -57 58 -107 l7
-37 -121 0 c-131 0 -127 2 -99 -56 24 -51 106 -59 148 -14 27 29 60 40 60 21
0 -5 -12 -23 -26 -40 -42 -51 -113 -59 -183 -22 -71 39 -71 213 1 252 57 30
110 31 155 3z m295 16 c34 -10 78 -50 78 -71 0 -17 -30 -9 -54 16 -33 33 -85
34 -123 1 -25 -22 -28 -30 -28 -91 0 -61 3 -69 28 -91 46 -40 118 -28 137 22
11 29 40 32 40 5 0 -27 -53 -77 -88 -84 -16 -3 -45 -2 -64 3 -130 36 -131 251
-2 290 39 11 34 11 76 0z m508 -275 c0 -42 -24 -105 -40 -105 -7 0 -5 9 4 22
20 28 20 58 1 58 -10 0 -15 10 -15 30 0 25 4 30 25 30 22 0 25 -4 25 -35z
m-866 -316 c46 -11 99 -57 111 -96 10 -35 -31 -31 -49 5 -29 56 -116 74 -184
38 -68 -35 -94 -171 -52 -264 24 -54 90 -88 148 -77 34 6 84 48 108 90 6 12
16 16 27 12 23 -9 6 -55 -36 -95 -43 -41 -101 -56 -164 -42 -92 21 -143 97
-143 215 0 114 44 183 131 210 55 17 52 17 103 4z m-3894 -79 l0 -80 37 20
c21 11 51 20 66 20 33 0 83 -27 93 -49 4 -9 9 -71 12 -138 l4 -123 -31 0 -31
0 0 118 c0 131 -5 142 -58 142 -72 0 -92 -37 -92 -177 0 -82 0 -83 -25 -83
l-25 0 0 215 0 215 25 0 c25 0 25 -1 25 -80z m3444 74 c24 -9 21 -43 -3 -37
-32 8 -61 -14 -61 -47 0 -27 3 -30 30 -30 23 0 30 -4 30 -20 0 -16 -7 -20 -30
-20 l-30 0 0 -135 c0 -128 -1 -135 -20 -135 -19 0 -20 7 -20 135 0 128 -1 135
-20 135 -13 0 -20 7 -20 20 0 13 7 20 20 20 15 0 20 7 20 28 0 40 22 75 50 83
35 10 36 10 54 3z m-1038 -114 c17 0 24 -5 24 -20 0 -15 -7 -20 -25 -20 l-25
0 0 -110 c0 -108 0 -110 24 -116 23 -5 42 -31 32 -42 -11 -11 -77 10 -86 28
-5 10 -10 68 -10 129 0 104 -1 111 -20 111 -13 0 -20 7 -20 20 0 13 7 20 20
20 17 0 20 7 20 40 0 27 5 42 18 49 15 9 17 4 20 -40 3 -45 5 -49 28 -49z
m-3188 -27 c33 -20 62 -73 62 -110 l0 -33 -115 0 c-110 0 -115 -1 -115 -21 0
-32 53 -79 89 -79 40 0 79 19 86 42 4 11 16 18 31 18 24 0 24 -1 9 -30 -22
-43 -60 -64 -116 -64 -80 0 -139 62 -139 147 0 121 112 191 208 130z m206 -29
l38 -56 40 56 c29 42 46 56 64 56 13 0 24 -3 24 -6 0 -3 -19 -31 -43 -62 -24
-31 -46 -62 -50 -68 -3 -6 14 -40 39 -75 69 -97 70 -99 37 -99 -23 0 -34 10
-65 60 -20 33 -41 60 -45 60 -4 0 -25 -27 -47 -60 -29 -46 -44 -60 -62 -60
-13 0 -24 2 -24 4 0 3 23 37 50 77 28 40 50 76 50 80 0 5 -20 37 -45 72 -25
36 -45 68 -45 71 0 3 11 6 24 6 17 0 33 -14 60 -56z m411 42 c43 -18 75 -63
54 -77 -22 -14 -37 -11 -44 10 -8 25 -55 44 -89 35 -43 -10 -66 -49 -66 -109
0 -62 24 -100 71 -110 36 -8 75 14 89 51 10 26 11 27 34 18 35 -13 2 -78 -51
-100 -95 -40 -193 25 -193 127 0 131 86 200 195 155z m650 -1 c19 -8 39 -25
44 -38 5 -13 11 -76 13 -140 3 -114 2 -117 -18 -117 -13 0 -24 8 -27 20 -5 20
-5 20 -53 -1 -61 -27 -120 -21 -151 16 -26 29 -28 52 -12 89 14 30 50 46 137
60 62 10 67 13 67 36 0 16 -8 29 -25 37 -42 21 -79 16 -112 -17 -34 -34 -70
-34 -61 0 15 58 121 88 198 55z m175 -10 c0 -30 4 -31 32 -5 30 28 78 34 121
17 46 -20 57 -57 57 -194 0 -96 -1 -103 -20 -103 -19 0 -20 7 -21 98 -1 120
-7 143 -42 160 -34 16 -92 1 -107 -28 -6 -10 -10 -66 -10 -124 l0 -106 -25 0
-25 0 0 155 c0 148 1 155 20 155 15 0 20 -7 20 -25z m472 -6 c35 -25 38 -24
38 6 0 16 6 25 16 25 13 0 15 -22 12 -179 -3 -174 -4 -180 -27 -205 -33 -35
-90 -50 -140 -36 -52 14 -107 80 -66 80 8 0 25 -11 39 -25 32 -32 92 -34 130
-4 20 16 26 29 26 61 0 22 -3 38 -7 36 -66 -34 -86 -39 -119 -28 -123 41 -122
253 2 290 35 10 60 5 96 -21z m355 5 c33 -21 54 -57 60 -104 l6 -40 -117 0
c-111 0 -116 -1 -116 -21 0 -11 13 -34 29 -50 41 -40 91 -40 133 1 16 17 36
30 44 30 24 0 16 -30 -16 -60 -54 -50 -141 -46 -195 10 -23 24 -30 41 -33 88
-4 62 9 102 46 135 41 37 110 42 159 11z m343 -1 l0 -26 23 20 c23 22 36 26
74 24 15 -1 20 -6 16 -19 -3 -14 -12 -17 -38 -14 -53 6 -69 -28 -74 -160 -2
-84 -6 -108 -17 -108 -11 0 -14 29 -14 155 0 131 2 155 15 155 10 0 15 -10 15
-27z m370 -2 c24 -17 25 -24 30 -137 3 -65 9 -125 14 -132 6 -10 2 -13 -15
-10 -16 2 -25 11 -27 26 -4 27 -3 27 -48 0 -80 -47 -174 -15 -174 59 0 57 40
81 163 98 44 6 47 8 47 35 0 36 -23 50 -80 50 -30 0 -47 -6 -66 -25 -25 -25
-54 -33 -54 -16 0 6 10 22 23 36 39 46 134 54 187 16z m488 2 c33 -20 62 -73
62 -110 l0 -33 -115 0 c-110 0 -115 -1 -115 -21 0 -32 53 -79 89 -79 40 0 79
19 86 42 4 11 16 18 31 18 24 0 24 -1 9 -30 -22 -43 -60 -64 -116 -64 -80 0
-139 62 -139 147 0 121 112 191 208 130z m494 5 c43 -16 68 -66 68 -132 0 -31
-7 -70 -15 -86 -45 -86 -198 -82 -240 6 -17 36 -20 110 -6 147 28 73 107 99
193 65z m950 -94 c3 -109 4 -117 28 -136 30 -24 83 -19 114 11 16 17 20 37 24
131 4 84 8 110 18 110 11 0 14 -30 14 -155 0 -131 -2 -155 -15 -155 -10 0 -15
10 -15 32 l0 31 -22 -21 c-53 -48 -129 -48 -163 1 -21 30 -22 267 -1 267 11 0
15 -24 18 -116z m328 98 c0 -30 13 -34 31 -11 15 21 70 32 84 17 14 -14 -8
-34 -33 -31 -15 3 -36 -2 -47 -11 -18 -13 -20 -28 -23 -135 -3 -111 -5 -121
-23 -121 -18 0 -19 9 -19 155 0 131 2 155 15 155 8 0 15 -8 15 -18z m200 0 c0
-30 13 -34 31 -11 15 21 70 32 84 17 14 -14 -8 -34 -33 -31 -15 3 -36 -2 -47
-11 -18 -13 -20 -28 -23 -135 -3 -111 -5 -121 -23 -121 -18 0 -19 9 -19 155 0
131 2 155 15 155 8 0 15 -8 15 -18z m347 -1 c48 -22 73 -62 73 -116 l0 -35
-115 0 c-63 0 -115 -2 -115 -4 0 -24 28 -70 51 -81 46 -24 87 -19 119 15 27
29 60 40 60 21 0 -5 -12 -23 -26 -40 -50 -59 -153 -61 -205 -3 -52 58 -46 169
12 223 26 24 43 31 94 37 6 1 29 -7 52 -17z m193 -6 c0 -26 14 -33 26 -14 3 6
22 18 41 26 42 17 94 4 118 -30 21 -30 22 -267 1 -267 -11 0 -15 25 -18 116
-3 107 -5 117 -27 135 -32 26 -74 24 -108 -5 -27 -23 -28 -28 -31 -135 -3 -87
-7 -111 -18 -111 -11 0 -14 28 -14 155 0 131 2 155 15 155 9 0 15 -9 15 -25z
m452 15 c34 -10 78 -50 78 -71 0 -17 -30 -9 -54 16 -33 33 -85 34 -123 1 -25
-22 -28 -30 -28 -91 0 -61 3 -69 28 -91 46 -40 118 -28 137 22 11 29 40 32 40
5 0 -27 -53 -77 -88 -84 -16 -3 -45 -2 -64 3 -130 36 -131 251 -2 290 39 11
34 11 76 0z m197 -102 c23 -62 41 -119 41 -126 0 -8 5 -12 11 -10 7 2 31 58
54 123 28 81 48 121 59 123 9 2 16 -1 16 -7 0 -17 -140 -373 -152 -389 -30
-35 -88 -36 -88 -1 0 14 7 19 29 19 33 0 61 30 61 66 0 12 -25 86 -55 165 -30
79 -55 145 -55 146 0 2 9 3 19 3 15 0 27 -23 60 -112z m261 -168 c0 -23 -4
-30 -20 -30 -16 0 -20 7 -20 30 0 23 4 30 20 30 16 0 20 -7 20 -30z m1520
-4080 c0 -38 1 -39 20 -28 34 21 55 -1 58 -61 2 -29 -1 -51 -7 -51 -5 0 -11
21 -13 48 -3 43 -5 47 -28 47 -23 0 -25 -4 -28 -47 -5 -84 -22 -52 -22 42 0
53 4 90 10 90 6 0 10 -18 10 -40z m1469 -98 c-5 -36 -6 -24 -6 48 0 72 1 84 6
47 4 -26 4 -68 0 -95z m-3236 48 c27 -72 32 -122 7 -67 -11 22 -20 27 -51 27
-31 0 -38 -4 -43 -25 -4 -14 -11 -25 -17 -25 -6 0 -9 4 -7 8 2 4 16 42 32 85
16 43 34 76 40 74 6 -2 23 -37 39 -77z m139 70 c-18 -4 -41 -14 -50 -21 -10
-8 -7 -4 6 9 13 12 35 22 50 21 25 -1 25 -2 -6 -9z m272 -6 c25 -24 19 -44
-24 -85 -22 -21 -40 -41 -40 -44 0 -3 18 -5 40 -5 22 0 40 -4 40 -10 0 -5 -22
-10 -50 -10 -63 0 -65 16 -9 69 50 46 51 76 1 76 -32 0 -42 9 -19 18 24 10 46
7 61 -9z m134 4 c18 -23 24 -77 12 -113 -15 -46 -55 -59 -82 -25 -22 28 -24
97 -2 128 17 24 56 29 72 10z m126 -4 c25 -24 19 -44 -24 -85 -22 -21 -40 -41
-40 -44 0 -3 18 -5 40 -5 22 0 40 -4 40 -10 0 -5 -22 -10 -50 -10 -63 0 -65
16 -9 69 50 46 51 76 1 76 -32 0 -42 9 -19 18 24 10 46 7 61 -9z m126 -39 c0
-42 3 -55 15 -55 8 0 15 -4 15 -10 0 -5 -7 -10 -15 -10 -8 0 -16 -10 -16 -22
l-2 -23 -4 23 c-4 18 -11 22 -44 22 -21 0 -39 4 -39 10 0 5 16 30 35 56 19 25
35 50 35 55 0 5 5 9 10 9 6 0 10 -25 10 -55z m235 45 c4 -6 -10 -10 -34 -10
-45 0 -71 -26 -71 -71 0 -35 27 -57 75 -61 38 -4 39 -4 13 -12 -42 -12 -76 1
-93 35 -21 39 -12 82 22 109 27 21 78 27 88 10z m535 0 c0 -5 -4 -10 -10 -10
-5 0 -10 5 -10 10 0 6 5 10 10 10 6 0 10 -4 10 -10z m577 -6 c2 -6 -8 -9 -26
-6 -16 2 -38 -1 -49 -7 -29 -16 -38 -66 -17 -97 14 -22 23 -25 56 -22 40 4 52
-5 23 -16 -28 -11 -51 -6 -78 15 -58 46 -17 154 56 147 17 -2 33 -8 35 -14z
m859 -20 l21 -37 22 37 c13 20 27 36 32 36 5 0 -3 -19 -17 -42 -28 -44 -29
-40 14 -105 10 -16 11 -23 3 -23 -7 0 -21 16 -33 37 -20 32 -23 34 -32 18 -21
-34 -44 -60 -50 -54 -3 3 6 23 21 44 l26 39 -21 37 c-24 41 -26 49 -14 49 4 0
16 -17 28 -36z m-2780 -18 c3 -13 4 -35 1 -47 -3 -18 -5 -15 -6 10 0 21 -10
45 -23 59 l-23 25 22 -12 c13 -6 25 -22 29 -35z m1700 4 c8 0 14 -4 14 -10 0
-5 -7 -10 -15 -10 -11 0 -15 -11 -15 -40 0 -29 4 -40 15 -40 8 0 15 -4 15 -10
0 -18 -29 -11 -40 9 -5 11 -10 33 -10 48 0 16 -5 34 -12 41 -8 8 -8 12 -1 12
6 0 14 10 18 23 l8 22 4 -22 c2 -13 11 -23 19 -23z m-1751 11 c3 -5 -9 -11
-27 -13 -27 -2 -34 -8 -36 -30 -4 -30 25 -52 55 -41 15 5 16 3 6 -7 -10 -10
-20 -11 -40 -4 -51 18 -37 104 17 104 10 0 21 -4 25 -9z m989 -33 c9 -12 16
-30 16 -40 0 -24 -35 -58 -60 -58 -26 0 -60 34 -60 60 0 28 35 60 64 60 14 0
32 -10 40 -22z m326 10 c0 -9 3 -9 12 0 14 14 28 16 28 3 0 -5 -9 -11 -20 -14
-16 -4 -20 -14 -20 -51 0 -25 -4 -46 -10 -46 -6 0 -10 27 -10 60 0 33 4 60 10
60 6 0 10 -5 10 -12z m80 -48 c0 -33 -4 -60 -10 -60 -6 0 -10 27 -10 60 0 33
4 60 10 60 6 0 10 -27 10 -60z m632 13 c3 -44 5 -48 28 -48 23 0 25 4 28 48 4
67 22 59 22 -11 l0 -58 -40 -1 c-47 -2 -60 14 -60 76 0 57 18 51 22 -6z m138
35 c0 -9 3 -9 12 0 14 14 28 16 28 3 0 -5 -9 -11 -20 -14 -16 -4 -20 -14 -20
-51 0 -25 -4 -46 -10 -46 -6 0 -10 27 -10 60 0 33 4 60 10 60 6 0 10 -5 10
-12z m80 0 c0 -9 3 -9 12 0 13 13 38 16 38 4 0 -4 -10 -12 -22 -17 -18 -8 -24
-20 -26 -52 -5 -65 -22 -51 -22 17 0 33 4 60 10 60 6 0 10 -5 10 -12z m144 -4
c9 -8 16 -24 16 -35 0 -16 -7 -19 -41 -19 -49 0 -50 -23 -1 -28 36 -4 34 -22
-3 -22 -49 0 -73 63 -38 102 20 22 46 23 67 2z m66 4 c0 -9 3 -9 12 0 34 34
68 1 68 -67 0 -57 -18 -51 -22 7 -3 43 -5 47 -28 47 -23 0 -25 -4 -28 -47 -4
-69 -22 -59 -22 12 0 33 4 60 10 60 6 0 10 -5 10 -12z m195 2 c4 -6 -6 -10
-24 -10 -37 0 -57 -29 -41 -60 7 -13 21 -20 41 -20 18 0 28 -4 24 -10 -10 -15
-46 -12 -67 7 -22 20 -23 61 -1 85 17 19 58 24 68 8z m370 0 c4 -6 -6 -10 -24
-10 -20 0 -34 -7 -41 -20 -16 -31 4 -60 41 -60 18 0 28 -4 24 -10 -10 -15 -46
-12 -67 7 -22 20 -23 61 -1 85 17 19 58 24 68 8z m109 4 c12 -5 16 -19 15 -63
-1 -31 -4 -42 -6 -26 -8 66 -13 75 -39 75 -14 0 -23 4 -19 10 7 11 26 13 49 4z
m134 -6 c14 -14 16 -108 2 -108 -5 0 -10 5 -10 12 0 9 -3 9 -12 0 -18 -18 -46
-15 -57 6 -13 25 3 49 39 57 39 9 39 25 -1 25 -17 0 -28 4 -24 10 9 14 48 13
63 -2z m62 2 c0 -6 8 -5 20 2 34 21 55 -1 58 -61 2 -31 -1 -51 -7 -51 -6 0
-11 22 -11 51 0 49 -1 50 -27 47 -26 -3 -28 -7 -31 -50 -4 -69 -22 -59 -22 12
0 33 4 60 10 60 6 0 10 -5 10 -10z m338 -2 c7 -7 12 -22 12 -35 0 -20 -5 -23
-41 -23 -28 0 -39 -4 -36 -12 2 -7 20 -13 40 -13 39 0 48 -9 21 -19 -30 -11
-53 -6 -68 16 -21 30 -20 54 4 78 23 23 50 26 68 8z m-3762 -55 c2 -12 17 -29
32 -37 15 -9 21 -15 14 -16 -26 0 -62 48 -61 82 1 19 3 25 6 13 2 -11 6 -30 9
-42z m129 -33 c-10 -11 -25 -20 -34 -19 -11 0 -9 3 5 9 12 5 25 13 29 19 3 6
9 11 12 11 3 0 -2 -9 -12 -20z"/>
<path d="M12480 7196 c0 -2 13 -33 30 -68 16 -34 30 -68 30 -73 0 -6 -27 -47
-61 -90 l-61 -80 33 -3 c21 -2 37 2 44 11 5 8 25 36 44 63 l34 48 25 -62 c25
-61 26 -62 63 -62 l38 0 -16 38 c-8 20 -24 54 -34 74 -11 21 -19 45 -19 54 0
9 23 45 50 80 28 35 50 66 50 69 0 3 -15 5 -32 5 -28 0 -38 -7 -66 -51 l-34
-51 -23 51 c-22 47 -27 51 -60 51 -19 0 -35 -2 -35 -4z"/>
<path d="M12946 7133 c-3 -10 -15 -63 -26 -118 -11 -55 -23 -108 -26 -117 -4
-13 0 -18 15 -18 14 0 22 8 27 28 14 65 27 94 49 108 35 23 48 9 41 -42 -3
-24 -8 -55 -12 -69 -5 -21 -3 -25 14 -25 16 0 22 10 31 50 6 28 11 66 11 85 0
46 -37 58 -81 26 l-30 -22 6 23 c23 105 24 108 5 108 -10 0 -21 -8 -24 -17z"/>
<path d="M11093 7119 c-49 -24 -73 -67 -73 -133 0 -74 56 -117 134 -102 21 4
36 14 39 25 4 16 -1 17 -43 13 -40 -4 -51 -1 -70 18 -32 32 -24 104 16 138 24
21 35 24 81 20 45 -4 53 -2 53 13 0 33 -76 38 -137 8z"/>
<path d="M11249 6989 c-13 -76 -7 -101 26 -107 10 -2 30 6 46 17 l29 22 0 -21
c0 -15 5 -20 17 -18 11 2 20 22 29 68 8 36 16 75 19 88 4 17 1 22 -13 22 -14
0 -23 -14 -35 -60 -17 -61 -53 -100 -78 -85 -11 7 -8 60 7 120 5 20 3 25 -14
25 -17 0 -22 -11 -33 -71z"/>
<path d="M11461 6993 c-7 -38 -15 -78 -18 -90 -4 -18 -1 -23 14 -23 15 0 22
11 32 52 13 57 35 88 61 88 10 0 20 9 23 20 6 25 -19 27 -45 3 -17 -15 -18
-15 -18 0 0 10 -8 17 -18 17 -15 0 -21 -13 -31 -67z"/>
<path d="M11600 7003 c-6 -32 -15 -73 -20 -91 -8 -30 -7 -33 12 -30 17 2 24
14 33 55 14 63 29 83 61 83 17 0 24 6 24 20 0 26 -18 25 -48 -2 l-24 -23 6 23
c6 18 3 22 -13 22 -16 0 -22 -11 -31 -57z"/>
<path d="M11773 7050 c-27 -11 -51 -46 -59 -87 -12 -61 77 -111 120 -67 23 23
20 26 -19 18 -22 -4 -41 -2 -50 6 -24 20 -18 27 26 34 61 10 79 22 79 56 0 44
-43 62 -97 40z m63 -32 c9 -14 -23 -38 -53 -38 -27 0 -29 12 -7 34 18 19 50
21 60 4z"/>
<path d="M11912 6993 c-6 -38 -15 -78 -18 -90 -5 -19 -2 -23 14 -23 17 0 23
10 32 55 8 38 19 61 37 75 47 36 57 12 39 -87 -7 -39 -6 -43 12 -43 15 0 21
12 32 71 14 76 9 101 -25 107 -10 2 -30 -6 -46 -17 -29 -21 -29 -21 -29 -1 0
13 -7 20 -18 20 -14 0 -20 -14 -30 -67z"/>
<path d="M12163 7050 c-27 -11 -51 -46 -59 -86 -11 -55 45 -99 100 -78 24 9
20 37 -4 29 -29 -9 -60 12 -60 41 0 36 44 76 78 72 19 -2 27 2 27 12 0 18 -49
24 -82 10z"/>
<path d="M12273 7048 c2 -7 10 -46 17 -86 15 -84 6 -118 -35 -128 -14 -3 -25
-12 -25 -20 0 -21 36 -17 64 9 33 28 157 231 145 235 -20 8 -36 -8 -69 -69
-28 -53 -35 -60 -41 -44 -4 11 -8 34 -8 52 -1 45 -10 63 -33 63 -12 0 -18 -5
-15 -12z"/>
<path d="M12783 7041 c-58 -36 -64 -127 -9 -152 30 -14 76 -4 76 16 0 11 -7
14 -24 9 -32 -8 -59 21 -51 55 9 39 43 64 78 57 23 -5 28 -3 25 12 -5 25 -57
26 -95 3z"/>
<path d="M13164 7046 c-34 -15 -57 -60 -56 -109 1 -49 54 -76 82 -42 7 8 16
15 21 15 5 0 6 -7 3 -15 -4 -10 0 -15 15 -15 13 0 22 8 25 23 26 118 28 140
14 148 -19 13 -69 10 -104 -5z m71 -48 c-14 -67 -54 -104 -82 -75 -13 12 -13
21 -3 51 13 39 32 55 68 56 21 0 23 -3 17 -32z"/>
<path d="M13330 7003 c-6 -32 -15 -73 -20 -91 -8 -30 -7 -33 13 -30 16 2 23
13 29 43 15 77 55 122 84 93 12 -12 9 -52 -12 -120 -4 -13 0 -18 15 -18 13 0
22 8 26 23 29 129 28 143 -12 153 -17 5 -34 0 -53 -14 -27 -20 -28 -20 -23 -2
4 15 0 20 -15 20 -17 0 -23 -10 -32 -57z"/>
<path d="M13584 7050 c-35 -14 -64 -59 -64 -101 0 -61 41 -86 88 -53 26 18 27
13 7 -26 -17 -33 -43 -44 -85 -35 -23 5 -30 3 -30 -8 0 -29 63 -36 109 -13 34
18 46 45 70 151 l18 83 -21 6 c-29 8 -67 6 -92 -4z m61 -57 c-13 -77 -85 -111
-85 -41 0 39 34 78 68 78 23 0 24 -3 17 -37z"/>
<path d="M13783 7050 c-27 -11 -51 -46 -59 -87 -12 -61 77 -111 120 -67 23 23
20 26 -19 18 -22 -4 -41 -2 -50 6 -24 20 -18 27 26 34 61 10 79 22 79 56 0 44
-43 62 -97 40z m63 -32 c9 -14 -23 -38 -53 -38 -27 0 -29 12 -7 34 18 19 50
21 60 4z"/>
<path d="M9730 5835 c0 -50 4 -85 10 -85 6 0 10 16 10 35 0 32 2 35 30 35 17
0 30 5 30 10 0 6 -13 10 -30 10 -27 0 -30 3 -30 30 0 28 3 30 35 30 19 0 35 5
35 10 0 6 -20 10 -45 10 l-45 0 0 -85z"/>
<path d="M13740 5910 c0 -5 11 -10 25 -10 23 0 24 -3 28 -77 l3 -78 2 78 c2
75 3 77 27 77 14 0 25 5 25 10 0 6 -25 10 -55 10 -30 0 -55 -4 -55 -10z"/>
<path d="M9850 5810 c0 -33 4 -60 10 -60 6 0 10 21 10 46 0 37 4 47 20 51 11
3 20 9 20 14 0 13 -14 11 -28 -3 -9 -9 -12 -9 -12 0 0 7 -4 12 -10 12 -6 0
-10 -27 -10 -60z"/>
<path d="M9947 5858 c-28 -22 -32 -63 -8 -87 26 -26 55 -27 81 -1 51 51 -16
131 -73 88z m73 -48 c0 -35 -25 -52 -57 -39 -17 6 -23 16 -23 39 0 23 6 33 23
39 32 13 57 -4 57 -39z"/>
<path d="M10083 5810 c0 -49 1 -54 4 -20 7 84 63 88 63 4 0 -24 5 -44 10 -44
6 0 10 19 10 43 0 46 14 69 36 60 9 -3 14 -22 14 -54 0 -28 5 -49 11 -49 6 0
9 20 7 51 -3 59 -24 82 -56 62 -13 -7 -24 -8 -37 -1 -13 8 -24 7 -36 0 -13 -8
-19 -8 -22 1 -3 7 -5 -17 -4 -53z"/>
<path d="M13866 5854 c-9 -8 -16 -28 -16 -44 0 -54 59 -80 93 -42 50 55 -26
138 -77 86z m74 -24 c22 -40 -22 -80 -58 -54 -28 19 -28 49 -1 68 24 17 45 12
59 -14z"/>
<path d="M12475 5530 c-4 -6 -1 -17 5 -25 11 -13 1 -15 -69 -15 -65 0 -81 -3
-81 -15 0 -12 16 -15 87 -15 84 0 86 0 69 -19 -29 -32 2 -37 35 -5 35 33 36
44 7 71 -33 29 -46 35 -53 23z"/>
<path d="M12361 5384 c-38 -32 -39 -43 -2 -78 33 -32 64 -27 35 5 -17 19 -15
19 70 19 66 0 87 3 84 13 -3 8 -31 13 -80 15 -74 3 -75 3 -70 27 6 31 1 31
-37 -1z"/>
<path d="M9830 5250 l0 -80 220 0 c140 0 220 4 220 10 0 6 -43 10 -110 10 -91
0 -110 3 -110 15 0 12 19 15 110 15 67 0 110 4 110 10 0 6 -43 10 -110 10 -67
0 -110 4 -110 10 0 6 43 10 110 10 67 0 110 4 110 10 0 6 -43 10 -110 10 -91
0 -110 3 -110 15 0 12 19 15 110 15 67 0 110 4 110 10 0 6 -80 10 -220 10
l-220 0 0 -80z"/>
<path d="M10372 5183 c-2 -79 10 -103 54 -103 44 0 64 32 64 105 0 89 -18 83
-22 -7 -3 -72 -3 -73 -32 -76 -40 -5 -50 10 -57 86 l-6 67 -1 -72z"/>
<path d="M10548 5239 c-31 -18 -22 -57 17 -76 58 -28 58 -63 -1 -63 -19 0 -34
-4 -34 -10 0 -13 46 -13 71 0 32 18 24 54 -18 81 -50 32 -50 53 0 57 20 2 35
7 32 13 -8 12 -45 11 -67 -2z"/>
<path d="M14390 5165 c0 -50 4 -85 10 -85 6 0 10 35 10 85 0 50 -4 85 -10 85
-6 0 -10 -35 -10 -85z"/>
<path d="M14450 5165 c0 -50 4 -85 10 -85 6 0 10 31 10 73 l1 72 45 -72 c26
-40 50 -73 55 -73 5 0 8 39 7 88 l-2 87 -5 -75 -6 -75 -45 73 c-24 39 -50 72
-57 72 -10 0 -13 -23 -13 -85z"/>
<path d="M14029 5203 c-13 -16 -12 -17 4 -4 9 7 17 15 17 17 0 8 -8 3 -21 -13z"/>
<path d="M14070 5216 c0 -2 8 -10 18 -17 15 -13 16 -12 3 4 -13 16 -21 21 -21
13z"/>
<path d="M10870 5202 c0 -5 14 -21 30 -37 l30 -29 32 32 c37 36 30 57 -7 22
l-25 -23 -23 21 c-24 23 -37 28 -37 14z"/>
<path d="M14880 5202 c0 -5 14 -21 30 -37 l30 -29 32 32 c37 36 30 57 -7 22
l-25 -23 -23 21 c-24 23 -37 28 -37 14z"/>
<path d="M14050 5180 c0 -5 5 -10 10 -10 6 0 10 5 10 10 0 6 -4 10 -10 10 -5
0 -10 -4 -10 -10z"/>
<path d="M14020 5166 c0 -2 8 -10 18 -17 15 -13 16 -12 3 4 -13 16 -21 21 -21
13z"/>
<path d="M9830 5140 c0 -6 80 -10 220 -10 140 0 220 4 220 10 0 6 -80 10 -220
10 -140 0 -220 -4 -220 -10z"/>
<path d="M13840 5080 l0 -50 220 0 220 0 0 50 0 50 -220 0 -220 0 0 -50z"/>
<path d="M9830 5090 c0 -6 80 -10 220 -10 140 0 220 4 220 10 0 6 -80 10 -220
10 -140 0 -220 -4 -220 -10z"/>
<path d="M9830 5045 c0 -13 31 -15 220 -15 189 0 220 2 220 15 0 13 -31 15
-220 15 -189 0 -220 -2 -220 -15z"/>
<path d="M9730 4495 l0 -85 50 0 c38 0 50 4 50 15 0 10 -10 15 -30 15 -23 0
-30 4 -30 20 0 15 7 20 25 20 16 0 25 6 25 15 0 9 -9 15 -25 15 -18 0 -25 5
-25 20 0 16 7 20 30 20 20 0 30 5 30 15 0 11 -12 15 -50 15 l-50 0 0 -85z"/>
<path d="M10419 4543 c-6 -21 -20 -59 -30 -85 -18 -47 -18 -48 0 -48 11 0 23
9 26 20 5 15 15 20 41 20 27 0 34 -4 34 -20 0 -14 7 -20 21 -20 13 0 19 5 16
13 -2 6 -15 45 -28 85 -19 61 -26 72 -45 72 -17 0 -25 -9 -35 -37z m50 -50 c1
-7 -8 -13 -19 -13 -23 0 -23 0 -9 37 10 26 12 27 19 8 5 -11 9 -26 9 -32z"/>
<path d="M10023 4563 c-7 -3 -13 -11 -13 -19 0 -8 -4 -14 -10 -14 -5 0 -10 -7
-10 -15 0 -8 5 -15 10 -15 6 0 10 -15 10 -33 0 -37 15 -57 42 -57 22 0 24 26
3 34 -8 3 -15 17 -15 31 0 16 6 25 15 25 8 0 15 7 15 15 0 8 -6 15 -14 15 -8
0 -16 8 -18 18 -2 11 -9 17 -15 15z"/>
<path d="M11233 4563 c-7 -3 -13 -11 -13 -19 0 -8 -4 -14 -10 -14 -5 0 -10 -7
-10 -15 0 -8 5 -15 10 -15 6 0 10 -15 10 -33 0 -37 15 -57 42 -57 22 0 24 26
3 34 -8 3 -15 17 -15 31 0 16 6 25 15 25 8 0 15 7 15 15 0 8 -6 15 -14 15 -8
0 -16 8 -18 18 -2 11 -9 17 -15 15z"/>
<path d="M9860 4470 c0 -47 3 -60 15 -60 11 0 15 11 15 40 0 28 5 43 16 47 21
8 34 -13 34 -54 0 -23 5 -33 15 -33 18 0 21 70 5 101 -12 21 -40 25 -58 7 -9
-9 -12 -9 -12 0 0 7 -7 12 -15 12 -12 0 -15 -13 -15 -60z"/>
<path d="M10107 4512 c-26 -29 -22 -80 7 -93 26 -12 76 -5 76 11 0 6 -13 10
-29 10 -17 0 -33 5 -36 10 -4 6 10 10 34 10 45 0 51 11 25 48 -18 27 -55 29
-77 4z m58 -22 c4 -6 -5 -10 -20 -10 -15 0 -24 4 -20 10 3 6 12 10 20 10 8 0
17 -4 20 -10z"/>
<path d="M10220 4469 c0 -52 2 -59 20 -59 17 0 20 7 20 41 0 32 4 42 20 46 35
9 22 29 -20 30 l-40 2 0 -60z"/>
<path d="M10550 4470 c0 -53 2 -60 20 -60 17 0 20 7 20 46 0 38 3 45 18 42 12
-2 18 -15 20 -46 2 -28 8 -42 17 -42 9 0 15 14 17 42 2 31 8 44 21 46 14 3 17
-4 17 -42 0 -39 3 -46 20 -46 17 0 20 7 20 41 0 66 -34 101 -67 68 -8 -8 -16
-7 -31 2 -17 10 -23 10 -36 0 -11 -9 -16 -10 -16 -2 0 6 -9 11 -20 11 -18 0
-20 -7 -20 -60z"/>
<path d="M10787 4512 c-21 -23 -22 -66 -1 -86 35 -35 104 -6 104 44 0 52 -69
80 -103 42z m68 -42 c0 -18 -6 -26 -23 -28 -13 -2 -25 3 -28 12 -10 26 4 48
28 44 17 -2 23 -10 23 -28z"/>
<path d="M10922 4479 c3 -60 24 -82 58 -61 12 7 20 8 20 2 0 -5 7 -10 15 -10
12 0 15 13 15 60 0 46 -3 60 -14 60 -10 0 -16 -14 -18 -42 -2 -35 -7 -43 -23
-43 -16 0 -21 8 -23 43 -2 29 -8 42 -18 42 -12 0 -14 -11 -12 -51z"/>
<path d="M11070 4470 c0 -47 3 -60 15 -60 11 0 15 11 15 40 0 28 5 43 16 47
21 8 34 -13 34 -54 0 -23 5 -33 15 -33 18 0 21 70 5 101 -12 21 -40 25 -58 7
-9 -9 -12 -9 -12 0 0 7 -7 12 -15 12 -12 0 -15 -13 -15 -60z"/>
<path d="M9893 3903 c-28 -19 -30 -38 -3 -23 18 10 19 6 23 -62 l3 -73 2 88
c1 48 1 87 0 86 -2 0 -13 -7 -25 -16z"/>
<path d="M11728 3002 c-32 -19 -38 -38 -8 -22 19 10 20 8 20 -60 0 -40 4 -70
10 -70 6 0 10 35 10 85 0 47 -1 85 -2 84 -2 0 -15 -8 -30 -17z"/>
<path d="M11832 2953 c-2 -78 10 -103 52 -103 45 0 60 23 64 99 3 48 1 71 -7
71 -7 0 -11 -22 -11 -59 0 -77 -6 -91 -40 -91 -39 0 -48 16 -53 90 l-3 65 -2
-72z"/>
<path d="M12008 3009 c-31 -17 -22 -53 20 -80 20 -13 37 -31 37 -39 0 -10 -12
-16 -37 -18 -42 -4 -52 -22 -12 -22 69 0 89 58 29 87 -58 28 -58 63 1 63 21 0
33 4 29 10 -8 13 -45 12 -67 -1z"/>
<path d="M12120 2935 l0 -85 30 0 c41 0 76 18 89 47 29 64 -8 123 -79 123
l-40 0 0 -85z m91 55 c13 -8 19 -21 19 -47 0 -45 -24 -73 -62 -73 -28 0 -28 0
-28 65 0 63 1 65 26 65 14 0 34 -5 45 -10z"/>
<path d="M12598 3009 c-19 -11 -24 -44 -9 -54 6 -3 3 -18 -7 -34 -16 -28 -15
-31 2 -50 11 -12 29 -21 41 -21 12 0 30 9 41 21 17 19 17 23 3 48 -12 20 -13
31 -5 44 23 36 -27 70 -66 46z m50 -33 c-2 -13 -10 -21 -23 -21 -23 0 -33 34
-14 45 20 13 40 -1 37 -24z m10 -79 c-2 -17 -10 -22 -33 -22 -35 0 -47 31 -20
51 25 18 57 0 53 -29z"/>
<path d="M12727 3005 c-35 -34 -32 -126 4 -146 46 -24 87 29 76 97 -10 61 -47
83 -80 49z m47 -11 c10 -9 16 -33 16 -59 0 -37 -18 -75 -35 -75 -17 0 -35 38
-35 75 0 37 18 75 35 75 2 0 11 -7 19 -16z"/>
<path d="M12840 2935 c0 -50 4 -85 10 -85 6 0 10 35 10 85 0 50 -4 85 -10 85
-6 0 -10 -35 -10 -85z"/>
<path d="M12912 2933 l2 -88 5 75 6 75 47 -72 c26 -40 52 -73 58 -73 6 0 10
34 10 85 0 50 -4 85 -10 85 -6 0 -10 -31 -10 -72 l0 -72 -46 72 c-25 40 -50
72 -55 72 -5 0 -8 -39 -7 -87z"/>
<path d="M13092 2933 c1 -49 3 -71 5 -50 5 49 34 50 65 2 13 -19 26 -35 31
-35 12 0 8 12 -18 46 -18 24 -21 33 -11 37 20 8 25 43 9 66 -10 14 -25 21 -49
21 l-34 0 2 -87z m73 37 c0 -21 -5 -26 -32 -28 -31 -3 -33 -1 -33 28 0 29 2
31 33 28 27 -2 32 -7 32 -28z"/>
<path d="M12388 2943 c18 -2 45 -2 60 0 15 2 0 4 -33 4 -33 0 -45 -2 -27 -4z"/>
<path d="M12388 2893 c18 -2 45 -2 60 0 15 2 0 4 -33 4 -33 0 -45 -2 -27 -4z"/>
<path d="M9833 2279 c-46 -13 -100 -71 -113 -120 -7 -26 -10 -119 -8 -253 l3
-213 28 -42 c18 -27 44 -50 70 -62 41 -18 109 -19 2627 -19 2487 0 2587 1
2625 19 94 43 105 79 105 343 0 248 -8 276 -81 325 l-43 28 -2590 2 c-1594 1
-2603 -2 -2623 -8z m2417 -286 c0 -38 0 -38 42 -38 l43 0 3 -67 c2 -56 0 -68
-13 -68 -12 0 -15 12 -15 54 0 41 -4 55 -16 60 -28 11 -44 -13 -44 -65 0 -37
-4 -49 -15 -49 -12 0 -15 18 -15 105 0 87 3 105 15 105 11 0 15 -11 15 -37z
m-772 4 c3 -15 -1 -17 -25 -11 -40 11 -63 8 -84 -12 -53 -48 -7 -142 64 -126
25 5 23 52 -3 52 -11 0 -20 5 -20 10 0 6 16 10 35 10 35 0 35 0 35 -44 0 -50
-8 -56 -74 -56 -32 0 -48 6 -65 24 -30 32 -37 85 -17 124 22 42 42 52 101 49
39 -1 51 -6 53 -20z m452 13 c0 -5 -16 -10 -35 -10 -33 0 -35 -2 -35 -35 0
-33 2 -35 35 -35 19 0 35 -4 35 -10 0 -5 -16 -10 -35 -10 -33 0 -35 -2 -35
-35 0 -34 1 -35 40 -35 22 0 40 -4 40 -10 0 -5 -25 -10 -55 -10 l-55 0 0 100
0 100 50 0 c28 0 50 -4 50 -10z m1238 -2 c17 -17 15 -63 -3 -78 -13 -11 -11
-18 10 -54 29 -50 30 -56 10 -56 -8 0 -24 15 -35 33 -42 71 -60 75 -60 12 0
-33 -4 -45 -15 -45 -12 0 -15 18 -15 100 l0 100 48 0 c26 0 53 -5 60 -12z
m-1478 -28 c0 -13 7 -20 20 -20 11 0 20 -4 20 -10 0 -5 -9 -10 -20 -10 -17 0
-20 -7 -20 -46 0 -37 4 -47 20 -51 30 -8 24 -23 -9 -23 -33 0 -41 14 -41 75 0
25 -5 46 -12 49 -10 5 -10 7 0 12 6 3 12 14 12 25 0 10 7 19 15 19 8 0 15 -9
15 -20z m1710 0 c0 -11 7 -20 15 -20 8 0 15 -4 15 -10 0 -5 -7 -10 -15 -10
-11 0 -15 -12 -15 -50 0 -38 4 -50 15 -50 8 0 15 -5 15 -11 0 -6 -12 -9 -27
-7 -27 3 -28 6 -31 61 -2 42 -7 57 -17 57 -8 0 -15 5 -15 10 0 6 7 10 15 10 8
0 15 9 15 20 0 11 7 20 15 20 8 0 15 -9 15 -20z m-1780 -39 c5 -11 10 -29 10
-40 0 -17 -8 -20 -52 -23 -50 -3 -51 -4 -34 -21 13 -13 27 -16 47 -12 22 5 29
3 29 -9 0 -12 -11 -16 -45 -16 -36 0 -47 4 -61 25 -20 30 -12 89 14 104 30 18
80 13 92 -8z m375 -1 c3 -11 10 -20 15 -20 5 0 14 9 20 20 6 11 17 20 25 20
20 0 19 -6 -6 -41 l-20 -29 20 -29 c26 -36 26 -41 2 -41 -11 0 -23 9 -26 20
-3 11 -9 20 -13 20 -4 0 -13 -9 -20 -20 -7 -11 -19 -20 -27 -20 -20 0 -19 6 6
41 l20 29 -20 29 c-26 36 -26 41 -2 41 11 0 23 -9 26 -20z m205 4 c0 -12 -6
-15 -21 -11 -48 13 -81 -29 -54 -69 14 -21 21 -24 47 -19 23 6 29 4 26 -6 -3
-9 -20 -14 -48 -14 -37 0 -47 4 -59 26 -16 29 -10 69 15 93 21 22 94 22 94 0z
m268 4 c7 -7 12 -38 12 -69 l0 -56 -50 -2 c-39 0 -52 3 -60 18 -18 35 12 71
59 71 12 0 21 5 21 10 0 17 -27 22 -49 10 -17 -8 -21 -8 -21 3 0 8 3 17 7 20
11 12 68 8 81 -5z m162 -7 c5 -11 10 -42 10 -70 0 -39 -4 -51 -15 -51 -11 0
-15 12 -15 49 0 63 -23 87 -51 52 -11 -14 -19 -39 -19 -62 0 -28 -4 -39 -15
-39 -12 0 -15 14 -15 69 l0 68 55 2 c44 1 56 -3 65 -18z m170 -60 c0 -101 -13
-121 -81 -121 -38 0 -49 3 -49 16 0 13 7 15 34 10 24 -5 39 -2 50 9 25 25 19
31 -23 27 -33 -3 -42 0 -56 22 -12 18 -15 36 -11 58 10 49 23 58 82 57 l54 -2
0 -76z m138 67 c7 -7 12 -25 12 -40 0 -27 -2 -28 -45 -28 -25 0 -45 -4 -45 -9
0 -18 29 -32 54 -25 20 5 26 2 26 -10 0 -14 -9 -17 -47 -14 -41 3 -50 7 -61
31 -15 32 -10 68 14 91 18 19 75 21 92 4z m382 -7 c5 -11 10 -42 10 -70 l0
-49 -57 1 c-56 2 -58 3 -61 32 -4 35 18 55 62 55 28 0 29 1 14 16 -13 13 -20
14 -38 4 -25 -13 -35 -8 -27 15 10 23 83 20 97 -4z m240 0 c5 -11 10 -29 10
-40 0 -17 -8 -20 -52 -23 -50 -3 -51 -4 -34 -21 13 -13 27 -16 47 -12 22 5 29
3 29 -9 0 -12 -11 -16 -45 -16 -36 0 -47 4 -61 25 -20 30 -12 89 14 104 30 18
80 13 92 -8z"/>
<path d="M13090 1965 c0 -19 5 -35 11 -35 20 0 49 21 49 35 0 14 -29 35 -49
35 -6 0 -11 -16 -11 -35z"/>
<path d="M11552 1928 c-19 -19 -14 -28 18 -28 17 0 30 4 30 8 0 9 -21 32 -30
32 -3 0 -11 -5 -18 -12z"/>
<path d="M12430 1883 c-44 -13 -44 -13 -27 -31 16 -15 18 -15 33 0 19 19 16
37 -6 31z"/>
<path d="M12706 1918 c-21 -29 -20 -41 2 -61 23 -21 27 -21 46 -1 22 21 20 61
-3 74 -26 14 -28 13 -45 -12z"/>
<path d="M12872 1928 c-19 -19 -14 -28 18 -28 32 0 42 23 14 34 -20 8 -18 8
-32 -6z"/>
<path d="M13262 1879 c-23 -9 -26 -29 -5 -36 12 -4 43 23 43 38 0 11 -8 11
-38 -2z"/>
<path d="M13492 1928 c-19 -19 -14 -28 18 -28 17 0 30 4 30 8 0 9 -21 32 -30
32 -3 0 -11 -5 -18 -12z"/>
<path d="M866 5319 c-2 -8 -18 -52 -35 -100 -17 -47 -31 -88 -31 -92 0 -4 34
-7 75 -7 41 0 75 4 75 9 0 11 -69 193 -75 200 -3 2 -6 -2 -9 -10z"/>
<path d="M1565 5086 c-86 -14 -105 -25 -105 -57 0 -22 7 -32 25 -41 57 -26
141 27 133 83 -3 23 -5 24 -53 15z"/>
<path d="M2305 5199 c-28 -16 -45 -39 -45 -61 0 -16 10 -18 91 -18 89 0 90 0
84 23 -16 51 -85 82 -130 56z"/>
<path d="M3474 5086 c-76 -16 -84 -21 -84 -55 0 -37 17 -51 63 -51 67 0 106
32 107 88 0 36 2 35 -86 18z"/>
<path d="M4383 5186 c-25 -22 -28 -30 -28 -91 0 -61 3 -69 28 -91 68 -59 167
-5 167 91 0 96 -99 150 -167 91z"/>
<path d="M5535 5198 c-27 -14 -45 -38 -45 -60 0 -16 10 -18 94 -18 l93 0 -5
25 c-10 52 -85 82 -137 53z"/>
<path d="M779 4461 c-52 -52 -42 -61 66 -61 54 0 95 4 95 10 0 23 -24 59 -47
69 -43 20 -82 13 -114 -18z"/>
<path d="M2120 4365 c-82 -19 -90 -24 -90 -56 0 -57 98 -65 140 -12 19 24 28
84 13 82 -5 -1 -33 -7 -63 -14z"/>
<path d="M2713 4466 c-25 -22 -28 -30 -28 -91 0 -61 3 -69 28 -91 55 -47 127
-25 148 45 34 115 -66 207 -148 137z"/>
<path d="M3049 4461 c-52 -52 -42 -61 66 -61 108 0 118 9 66 61 -22 21 -39 29
-66 29 -27 0 -44 -8 -66 -29z"/>
<path d="M3808 4365 c-67 -14 -88 -29 -88 -61 0 -42 72 -59 129 -29 32 16 41
33 41 76 0 32 0 32 -82 14z"/>
<path d="M4249 4461 c-52 -52 -42 -61 66 -61 54 0 95 4 95 10 0 23 -24 59 -47
69 -43 20 -82 13 -114 -18z"/>
<path d="M4749 4461 c-25 -26 -29 -37 -29 -86 0 -49 4 -60 29 -86 22 -21 39
-29 66 -29 27 0 44 8 66 29 25 26 29 37 29 86 0 49 -4 60 -29 86 -22 21 -39
29 -66 29 -27 0 -44 -8 -66 -29z"/>
<path d="M6603 4480 c-23 -10 -43 -39 -43 -64 0 -13 15 -16 90 -16 84 0 90 1
90 20 0 12 -11 32 -25 45 -25 26 -70 32 -112 15z"/>
<path d="M7511 147 c-16 -41 -14 -47 14 -47 29 0 29 -2 11 41 l-14 34 -11 -28z"/>
<path d="M8044 157 c-3 -13 -4 -41 -2 -63 3 -42 26 -56 53 -34 18 15 20 91 3
108 -20 20 -47 14 -54 -11z"/>
<path d="M8316 125 l-27 -35 30 0 c29 0 31 3 31 35 0 19 -2 35 -4 35 -2 0 -16
-16 -30 -35z"/>
<path d="M8645 111 c-3 -12 -3 -30 0 -42 5 -16 14 -19 38 -17 29 3 32 6 32 38
0 32 -3 35 -32 38 -24 2 -33 -1 -38 -17z"/>
<path d="M10067 124 c-15 -15 -6 -24 24 -24 20 0 29 4 27 13 -5 14 -40 21 -51
11z"/>
<path d="M10934 79 c-3 -6 -2 -15 4 -21 15 -15 46 -5 50 15 3 12 -3 17 -22 17
-14 0 -28 -5 -32 -11z"/>
<path d="M11337 124 c-15 -16 -5 -24 29 -24 24 0 34 4 32 13 -5 13 -50 22 -61
11z"/>
<path d="M8794 116 c-3 -8 -4 -25 -2 -38 2 -18 9 -23 33 -23 28 0 30 3 30 35
0 31 -3 35 -28 38 -17 2 -29 -2 -33 -12z"/>
<path d="M9184 106 c-10 -40 2 -58 33 -54 25 3 28 7 28 38 0 31 -3 35 -27 38
-22 3 -29 -2 -34 -22z"/>
<path d="M11194 106 c-10 -40 2 -58 33 -54 25 3 28 7 28 38 0 31 -3 35 -27 38
-22 3 -29 -2 -34 -22z"/>
</g>
</svg>
