<?xml version="1.0" standalone="no"?>
<!DOCTYPE svg PUBLIC "-//W3C//DTD SVG 20010904//EN"
 "http://www.w3.org/TR/2001/REC-SVG-20010904/DTD/svg10.dtd">
<svg version="1.0" xmlns="http://www.w3.org/2000/svg"
 width="1920.000000pt" height="888.000000pt" viewBox="0 0 1920.000000 888.000000"
 preserveAspectRatio="xMidYMid meet">

<g transform="translate(0.000000,888.000000) scale(0.100000,-0.100000)"
fill="#000000" stroke="none">
<path d="M19045 8750 l-29 -30 59 0 59 0 -29 30 c-16 17 -29 30 -30 30 -1 0
-14 -13 -30 -30z"/>
<path d="M15896 8464 c-9 -8 -16 -22 -16 -29 0 -7 7 -21 16 -29 30 -30 74 -13
74 29 0 42 -44 59 -74 29z"/>
<path d="M17902 8458 c-7 -7 -12 -39 -12 -73 0 -63 11 -85 42 -85 26 0 22 18
-4 22 -21 3 -23 8 -23 63 0 55 2 60 23 63 12 2 22 8 22 13 0 13 -34 11 -48 -3z"/>
<path d="M13950 8445 c0 -8 5 -15 10 -15 6 0 10 7 10 15 0 8 -4 15 -10 15 -5
0 -10 -7 -10 -15z"/>
<path d="M14465 8449 c-10 -15 3 -25 16 -12 7 7 7 13 1 17 -6 3 -14 1 -17 -5z"/>
<path d="M16493 8385 c0 -44 2 -61 4 -37 2 23 2 59 0 80 -2 20 -4 1 -4 -43z"/>
<path d="M16613 8390 c0 -41 2 -58 4 -37 2 20 2 54 0 75 -2 20 -4 3 -4 -38z"/>
<path d="M17109 8428 c-2 -82 -1 -109 5 -115 3 -4 6 28 6 70 0 43 -2 77 -5 77
-3 0 -5 -15 -6 -32z"/>
<path d="M13800 8380 c0 -56 3 -70 15 -70 10 0 15 10 15 30 0 27 3 30 30 30
27 0 30 -3 30 -30 0 -16 5 -30 10 -30 6 0 10 30 10 70 0 68 -15 98 -22 43 -2
-22 -9 -29 -30 -31 -25 -3 -28 0 -28 27 0 21 -5 31 -15 31 -12 0 -15 -14 -15
-70z"/>
<path d="M14130 8430 c-49 -49 -3 -133 63 -116 23 5 27 12 27 41 0 31 -3 35
-25 35 -29 0 -32 -8 -8 -25 17 -12 11 -35 -10 -35 -58 1 -53 93 4 95 37 2 38
20 2 23 -22 2 -38 -3 -53 -18z"/>
<path d="M14880 8380 c0 -56 3 -70 15 -70 9 0 15 9 15 25 0 14 4 25 9 25 5 0
16 -11 25 -25 9 -14 23 -25 32 -25 13 0 12 5 -6 27 -14 18 -17 30 -10 37 14
14 13 49 -2 64 -7 7 -27 12 -45 12 l-33 0 0 -70z m54 44 c28 -11 13 -44 -20
-44 -2 0 -4 11 -4 25 0 27 1 28 24 19z"/>
<path d="M16150 8380 l0 -70 28 1 c23 2 24 2 5 6 -21 4 -23 10 -23 63 0 53 2
59 23 63 19 4 18 4 -5 6 l-28 1 0 -70z"/>
<path d="M18222 8383 l-2 -73 38 2 c36 1 36 1 5 5 l-32 4 -4 67 -3 67 -2 -72z"/>
<path d="M15415 8423 c-10 -22 -6 -72 6 -95 5 -10 19 -18 29 -18 23 0 27 15 5
24 -9 3 -15 18 -15 36 0 20 5 30 15 30 8 0 15 5 15 10 0 6 -7 10 -15 10 -8 0
-15 5 -15 10 0 16 -17 11 -25 -7z"/>
<path d="M16220 8436 c0 -2 8 -10 18 -17 15 -13 16 -12 3 4 -13 16 -21 21 -21
13z"/>
<path d="M18010 8426 c0 -9 -12 -16 -27 -18 -20 -2 -28 -9 -28 -23 0 -14 8
-21 28 -23 15 -2 27 -9 27 -18 0 -21 13 -17 43 14 l27 28 -28 27 c-32 30 -42
34 -42 13z"/>
<path d="M13950 8365 c0 -30 5 -55 10 -55 6 0 10 25 10 55 0 30 -4 55 -10 55
-5 0 -10 -25 -10 -55z"/>
<path d="M14267 8413 c-14 -13 -6 -20 18 -15 14 2 25 0 25 -6 0 -5 -13 -12
-30 -15 -24 -5 -30 -12 -30 -32 0 -30 25 -43 51 -26 12 7 19 7 19 1 0 -5 5
-10 10 -10 14 0 12 84 -2 98 -13 13 -50 16 -61 5z m43 -63 c0 -12 -28 -25 -36
-17 -9 9 6 27 22 27 8 0 14 -5 14 -10z"/>
<path d="M14370 8365 c0 -42 3 -55 15 -55 11 0 15 11 15 40 0 28 4 40 14 40
16 0 31 18 23 26 -3 3 -15 1 -26 -6 -14 -7 -21 -7 -21 0 0 5 -4 10 -10 10 -5
0 -10 -25 -10 -55z"/>
<path d="M14460 8365 c0 -42 3 -55 15 -55 12 0 15 13 15 55 0 42 -3 55 -15 55
-12 0 -15 -13 -15 -55z"/>
<path d="M14520 8365 c0 -30 5 -55 10 -55 6 0 10 15 10 34 0 35 21 63 40 51 5
-3 10 -24 10 -46 0 -21 5 -39 10 -39 6 0 10 13 10 29 0 39 9 61 26 61 10 0 14
-13 14 -45 0 -33 4 -45 15 -45 19 0 21 83 3 97 -15 11 -98 11 -115 0 -8 -5
-13 -4 -13 2 0 6 -4 11 -10 11 -5 0 -10 -25 -10 -55z"/>
<path d="M14727 8413 c-14 -13 -6 -20 18 -15 15 2 25 0 25 -7 0 -6 -9 -11 -19
-11 -11 0 -27 -7 -35 -16 -26 -25 -5 -49 43 -50 l41 0 0 41 c0 22 -5 46 -12
53 -13 13 -50 16 -61 5z m41 -65 c-7 -19 -38 -22 -38 -4 0 10 9 16 21 16 12 0
19 -5 17 -12z"/>
<path d="M15020 8410 c-15 -10 -8 -14 22 -11 30 3 28 -16 -2 -23 -37 -7 -49
-32 -26 -54 13 -13 20 -14 35 -5 14 9 21 9 30 0 8 -8 11 2 11 40 0 37 -4 52
-16 57 -22 8 -37 7 -54 -4z m48 -62 c-7 -19 -38 -22 -38 -4 0 10 9 16 21 16
12 0 19 -5 17 -12z"/>
<path d="M15128 8365 c8 -31 21 -55 28 -55 7 0 19 19 25 43 l12 42 12 -40 c17
-58 38 -56 54 5 13 51 8 77 -9 50 -6 -8 -10 -23 -10 -32 0 -33 -18 -27 -24 7
-9 44 -34 47 -43 5 -8 -43 -20 -45 -27 -5 -4 19 -13 35 -20 35 -11 0 -10 -10
2 -55z"/>
<path d="M15307 8413 c-14 -13 -6 -20 18 -15 14 2 25 0 25 -6 0 -5 -13 -12
-30 -15 -24 -5 -30 -12 -30 -32 0 -30 25 -43 51 -26 12 7 19 7 19 1 0 -5 5
-10 10 -10 14 0 12 84 -2 98 -13 13 -50 16 -61 5z m43 -63 c0 -12 -28 -25 -36
-17 -9 9 6 27 22 27 8 0 14 -5 14 -10z"/>
<path d="M18661 8378 c0 -26 3 -49 7 -52 4 -2 6 12 4 32 -6 62 -10 69 -11 20z"/>
<path d="M18782 8378 l1 -43 4 37 c3 24 10 38 21 41 12 3 11 5 -5 6 -21 1 -23
-3 -21 -41z"/>
<path d="M16735 8399 c-4 -6 -5 -12 -2 -15 2 -3 7 2 10 11 7 17 1 20 -8 4z"/>
<path d="M18325 8399 c-4 -6 -5 -12 -2 -15 2 -3 7 2 10 11 7 17 1 20 -8 4z"/>
<path d="M16252 8380 c0 -14 2 -19 5 -12 2 6 2 18 0 25 -3 6 -5 1 -5 -13z"/>
<path d="M16342 8385 c-7 -8 -8 -15 -3 -15 5 0 12 -12 14 -27 3 -20 4 -15 6
15 1 47 1 47 -17 27z"/>
<path d="M16900 8380 c-12 -8 -12 -10 -1 -10 8 0 11 -7 8 -19 -2 -10 -1 -25 4
-32 6 -9 9 1 9 29 0 23 -1 42 -2 42 -2 0 -10 -5 -18 -10z"/>
<path d="M17032 8365 c0 -16 2 -22 5 -12 2 9 2 23 0 30 -3 6 -5 -1 -5 -18z"/>
<path d="M18542 8365 c0 -16 2 -22 5 -12 2 9 2 23 0 30 -3 6 -5 -1 -5 -18z"/>
<path d="M16691 8364 c0 -11 3 -14 6 -6 3 7 2 16 -1 19 -3 4 -6 -2 -5 -13z"/>
<path d="M18621 8364 c0 -11 3 -14 6 -6 3 7 2 16 -1 19 -3 4 -6 -2 -5 -13z"/>
<path d="M16843 8355 c-3 -9 -3 -18 -1 -21 3 -3 8 4 11 16 6 23 -1 27 -10 5z"/>
<path d="M18448 8358 c5 -5 16 -8 23 -6 8 3 3 7 -10 11 -17 4 -21 3 -13 -5z"/>
<path d="M15868 8343 c-8 -10 -18 -26 -21 -35 -6 -16 2 -18 78 -18 92 0 102 8
65 48 -27 28 -99 31 -122 5z"/>
<path d="M18732 8340 c0 -14 2 -19 5 -12 2 6 2 18 0 25 -3 6 -5 1 -5 -13z"/>
<path d="M16229 8333 c-13 -16 -12 -17 4 -4 9 7 17 15 17 17 0 8 -8 3 -21 -13z"/>
<path d="M16280 8341 c0 -6 4 -13 10 -16 6 -3 7 1 4 9 -7 18 -14 21 -14 7z"/>
<path d="M16730 8341 c0 -6 4 -13 10 -16 6 -3 7 1 4 9 -7 18 -14 21 -14 7z"/>
<path d="M18320 8341 c0 -6 4 -13 10 -16 6 -3 7 1 4 9 -7 18 -14 21 -14 7z"/>
<path d="M18448 8328 c6 -6 18 -8 28 -6 14 3 12 5 -9 10 -19 3 -25 2 -19 -4z"/>
<path d="M14007 8323 c-11 -10 -8 -43 3 -43 6 0 10 4 10 9 0 5 3 16 6 25 6 16
-7 22 -19 9z"/>
<path d="M18797 8319 c7 -7 15 -10 18 -7 3 3 -2 9 -12 12 -14 6 -15 5 -6 -5z"/>
<path d="M18506 8307 c3 -10 9 -15 12 -12 3 3 0 11 -7 18 -10 9 -11 8 -5 -6z"/>
<path d="M4690 6771 c-61 -31 -176 -107 -186 -123 -9 -14 -18 -193 -10 -221 5
-23 10 -24 113 -30 145 -8 398 -33 474 -47 33 -6 64 -8 68 -5 13 14 3 249 -12
285 -21 49 -91 115 -154 145 -46 21 -67 25 -146 25 -81 -1 -99 -4 -147 -29z"/>
<path d="M17581 6730 c-36 -16 -50 -18 -80 -10 -49 13 -97 -1 -130 -38 -14
-16 -47 -37 -73 -46 -67 -24 -123 -85 -143 -152 -9 -30 -14 -58 -11 -63 3 -4
-8 -15 -25 -25 -16 -9 -36 -30 -44 -45 -11 -22 -24 -30 -57 -35 -46 -7 -160
-32 -218 -46 -22 -6 -59 -32 -97 -69 -67 -65 -113 -94 -136 -85 -37 14 -207
-111 -266 -195 -22 -33 -57 -97 -77 -142 -20 -46 -48 -108 -62 -137 -22 -48
-24 -60 -17 -120 4 -37 7 -82 7 -101 0 -19 8 -51 19 -72 10 -21 19 -53 19 -71
0 -38 19 -108 50 -188 11 -30 23 -83 27 -118 6 -60 8 -64 75 -134 99 -101 99
-101 88 -178 -5 -36 -10 -76 -10 -88 0 -32 53 -80 91 -84 27 -3 34 -10 49 -50
10 -26 34 -69 54 -96 32 -44 35 -52 26 -83 -6 -19 -13 -59 -16 -89 -3 -30 -12
-62 -20 -71 -11 -13 -12 -22 -4 -43 5 -15 7 -33 3 -39 -4 -6 -5 -33 -4 -59 1
-29 -2 -48 -8 -48 -6 0 -11 -16 -11 -36 0 -19 -12 -56 -26 -82 -20 -36 -24
-50 -15 -64 9 -14 5 -21 -21 -41 -41 -32 -28 -55 13 -24 26 19 30 27 26 55 -3
18 -1 32 4 32 6 0 9 -24 7 -57 -3 -50 -6 -58 -22 -56 -16 1 -18 -5 -14 -46 4
-45 4 -46 -21 -45 -17 0 -30 9 -38 25 -15 29 -16 13 -4 -63 12 -68 6 -99 -17
-90 -15 5 -15 4 -3 -11 12 -16 9 -21 -12 -18 -4 1 -10 -6 -13 -14 -8 -19 -50
-20 -58 0 -6 17 -46 21 -46 4 0 -6 -7 -9 -15 -5 -10 3 -15 -1 -15 -14 0 -10
-8 -21 -17 -23 -17 -4 -17 -5 0 -6 29 -2 19 -29 -13 -36 -17 -4 -27 -11 -24
-17 13 -21 -20 -1 -34 20 -14 21 -13 22 4 16 16 -6 17 -5 7 7 -20 20 -15 37
10 42 13 3 8 5 -15 6 -40 1 -44 -5 -39 -56 1 -17 -2 -21 -14 -17 -9 4 -17 -1
-21 -11 -5 -13 -14 -15 -38 -11 -27 6 -29 5 -12 -7 20 -15 14 -39 -7 -31 -16
6 -69 -20 -60 -29 3 -4 14 -7 24 -7 9 0 30 -7 45 -16 28 -15 28 -15 -26 -9
-30 4 -59 11 -65 15 -5 5 -31 11 -57 15 -27 4 -48 12 -48 17 0 5 -15 25 -32
43 -18 18 -85 88 -148 154 -124 131 -133 136 -197 101 -21 -11 -43 -20 -50
-20 -7 0 -13 -4 -13 -10 0 -25 -28 -7 -34 21 -11 55 -6 184 8 235 8 27 17 67
20 89 21 130 26 145 52 145 13 0 43 11 65 25 63 40 118 174 119 288 0 27 5 79
11 116 10 61 9 73 -6 102 -15 28 -19 61 -20 179 -4 286 -17 370 -78 489 -38
76 -73 113 -136 146 -25 14 -73 49 -106 79 -33 31 -69 59 -80 64 -62 29 -107
41 -169 47 -38 4 -77 11 -85 15 -26 13 -142 28 -199 25 -31 -2 -61 -10 -71
-19 -9 -8 -44 -18 -76 -22 -92 -10 -185 -59 -247 -130 -9 -10 -23 -23 -30 -29
-69 -52 -115 -95 -147 -139 -37 -50 -88 -169 -110 -256 -7 -25 -18 -68 -26
-96 -12 -40 -13 -64 -5 -104 6 -29 10 -72 10 -96 0 -23 5 -55 10 -70 19 -50
16 -112 -5 -128 -20 -14 -20 -15 3 -78 13 -35 27 -97 32 -139 9 -87 62 -213
110 -264 20 -21 31 -45 36 -80 7 -48 6 -49 -11 -35 -11 9 -16 10 -11 3 5 -9 0
-13 -13 -13 -12 0 -21 -5 -21 -10 0 -6 -11 -8 -25 -4 -20 5 -24 3 -19 -9 7
-20 -49 -50 -65 -34 -8 8 -11 5 -11 -9 0 -12 -11 -24 -30 -32 -17 -8 -49 -29
-71 -48 -23 -19 -47 -34 -56 -34 -8 0 -12 -4 -9 -9 3 -5 -1 -11 -9 -15 -8 -3
-15 -13 -15 -21 0 -9 -4 -14 -10 -10 -5 3 -16 -7 -25 -22 -9 -15 -14 -20 -11
-10 3 11 2 15 -4 12 -6 -3 -10 -13 -10 -22 0 -10 -6 -14 -20 -10 -12 3 -18 1
-14 -5 3 -5 -3 -16 -15 -24 -12 -8 -21 -21 -21 -28 0 -8 -7 -17 -16 -20 -9 -3
-14 -12 -12 -18 7 -19 -36 -48 -69 -48 l-28 -1 33 -14 c17 -8 32 -19 32 -25 0
-13 -17 -13 -25 0 -9 14 -37 -1 -31 -17 3 -8 -4 -18 -19 -25 -17 -7 -21 -14
-14 -19 16 -10 2 -29 -21 -29 -16 0 -19 -6 -16 -30 3 -25 0 -30 -19 -30 -26 0
-53 -26 -34 -32 8 -3 7 -11 -6 -26 -10 -11 -23 -18 -29 -15 -6 4 -5 -1 3 -11
13 -15 12 -18 -8 -23 -12 -3 -20 -11 -18 -17 3 -6 -2 -19 -11 -28 -11 -13 -12
-18 -2 -18 6 0 -2 -14 -20 -30 -23 -21 -31 -36 -27 -51 5 -17 3 -18 -9 -8 -22
18 -30 2 -9 -21 18 -19 17 -20 -3 -20 -11 0 -23 -4 -26 -9 -9 -15 5 -42 18
-34 6 3 2 -4 -8 -16 -11 -12 -20 -31 -21 -43 -1 -11 -9 -26 -18 -33 -14 -10
-14 -12 1 -22 16 -11 16 -12 1 -12 -19 -1 -35 -31 -16 -31 6 0 2 -7 -10 -15
-14 -10 -19 -22 -16 -35 3 -11 1 -20 -4 -20 -5 0 -17 46 -26 103 -46 273 -81
397 -152 539 -127 255 -309 433 -515 503 -71 24 -116 42 -169 68 -13 6 -28 23
-33 37 -10 26 -108 160 -117 160 -4 0 -24 16 -45 35 -57 49 -84 58 -145 47
-42 -8 -51 -7 -47 4 3 7 -2 18 -10 24 -8 7 -14 19 -14 28 0 8 3 12 7 9 3 -4
13 -1 21 5 11 10 16 9 23 -5 6 -9 19 -22 31 -28 19 -10 20 -9 16 29 -2 27 0
38 8 35 16 -6 62 38 66 62 2 12 -3 20 -12 21 -33 2 -37 5 -48 29 l-12 25 -823
0 c-453 0 -826 -3 -830 -6 -10 -10 14 -53 39 -69 15 -10 21 -21 17 -35 -10
-38 16 -69 63 -76 l44 -6 0 -48 c0 -87 63 -148 155 -149 28 -1 75 -7 105 -15
30 -8 58 -12 62 -10 5 3 41 9 81 13 112 13 142 -15 62 -59 -25 -14 -45 -28
-45 -31 0 -4 -9 -9 -21 -12 -20 -5 -20 -5 -3 14 22 24 18 27 -39 33 -26 3 -50
7 -55 10 -17 11 -193 36 -204 30 -16 -10 -77 -14 -83 -5 -2 4 -25 6 -51 5 -27
-2 -53 0 -58 4 -6 4 -31 7 -56 8 -25 1 -37 -2 -27 -5 13 -5 6 -10 -26 -19 -25
-8 -51 -12 -58 -11 -22 3 -49 -12 -49 -27 0 -16 -16 -19 -25 -4 -10 16 -25 1
-25 -25 0 -17 -8 -26 -30 -33 -16 -6 -37 -20 -47 -31 -9 -12 -27 -22 -38 -22
-17 -1 -17 -2 -2 -6 23 -6 21 -16 -5 -28 -16 -7 -22 -18 -21 -33 2 -12 -2 -22
-7 -22 -6 0 -10 5 -10 11 0 5 -5 7 -11 4 -5 -4 -9 -19 -7 -33 2 -16 -2 -27 -9
-27 -6 0 -15 -3 -19 -7 -4 -5 -15 -8 -25 -8 -13 0 -16 -6 -11 -22 3 -14 2 -19
-6 -14 -7 4 -15 0 -18 -8 -3 -9 -18 -16 -33 -17 -14 0 -20 -3 -13 -6 16 -6
-29 -36 -71 -46 -15 -4 -27 -14 -27 -23 0 -12 -6 -15 -22 -11 -29 7 -53 -4
-53 -23 0 -9 -17 -19 -45 -27 -25 -6 -37 -12 -27 -12 9 -1 17 -7 17 -14 0 -9
-10 -12 -30 -9 -19 3 -30 0 -30 -8 0 -7 -8 -10 -20 -7 -12 3 -18 1 -14 -5 6
-9 -12 -27 -26 -28 -3 0 -18 11 -33 24 -15 13 -35 22 -45 19 -13 -3 -24 11
-46 59 -43 91 -48 110 -35 134 8 16 6 28 -10 57 -22 39 -41 144 -24 134 5 -4
8 6 5 24 -2 16 -10 29 -17 29 -12 0 -25 53 -24 95 l0 20 9 -20 c5 -11 9 -32 9
-47 1 -16 6 -28 12 -28 13 0 4 106 -10 124 -10 12 -23 78 -41 201 -6 44 -16
104 -22 133 l-9 52 -803 0 -803 0 -6 -55 c-3 -30 -10 -69 -16 -87 -6 -18 -17
-70 -26 -116 -8 -46 -22 -96 -30 -112 -8 -16 -15 -37 -15 -47 0 -10 -7 -39
-17 -65 -13 -37 -22 -47 -45 -52 -23 -4 -28 -11 -28 -34 0 -17 -10 -40 -24
-54 -16 -18 -20 -31 -14 -41 5 -10 4 -18 -3 -23 -8 -4 -9 -3 -5 4 4 7 1 12 -8
12 -10 0 -16 -9 -16 -22 -1 -27 -32 -68 -52 -68 -9 -1 -7 -5 5 -14 15 -12 16
-18 7 -35 -6 -12 -14 -21 -18 -21 -9 0 -32 -49 -32 -67 0 -7 -4 -13 -10 -13
-5 0 -10 -9 -10 -20 0 -11 -5 -20 -11 -20 -6 0 -8 -9 -4 -21 5 -16 3 -20 -11
-17 -10 2 -19 -2 -19 -9 0 -6 -3 -15 -7 -19 -5 -4 -8 -17 -8 -29 0 -11 -5 -26
-12 -33 -9 -9 -9 -12 2 -12 9 0 6 -6 -8 -16 -18 -12 -22 -22 -17 -43 4 -19 1
-32 -10 -41 -8 -7 -15 -18 -15 -26 0 -7 -6 -17 -12 -21 -7 -4 -13 -15 -14 -23
-1 -8 -4 -25 -8 -37 -5 -17 -1 -23 21 -31 25 -9 23 -10 -24 -11 -74 -1 -128
-26 -208 -95 -93 -80 -96 -84 -129 -140 -16 -27 -39 -64 -52 -84 -13 -19 -24
-41 -24 -48 0 -7 -19 -45 -42 -86 -57 -98 -74 -133 -121 -253 -24 -61 -46
-137 -49 -170 -2 -22 -8 -29 -20 -27 -10 2 -18 -2 -18 -8 0 -5 -6 -10 -14 -10
-9 0 -12 -10 -10 -30 2 -16 -1 -30 -6 -30 -6 0 -10 -5 -10 -11 0 -6 7 -9 15
-5 9 3 15 0 15 -10 0 -8 -4 -13 -9 -10 -4 3 -6 -6 -3 -20 l4 -24 383 0 c324 1
384 3 389 16 3 8 10 14 17 14 6 0 8 -7 5 -16 -5 -13 39 -15 423 -12 236 2 433
7 437 11 12 12 -18 28 -32 16 -7 -6 -16 -4 -24 6 -10 13 -9 15 9 15 21 0 21 1
5 17 -23 23 -6 27 57 14 28 -6 54 -9 58 -7 4 3 12 -4 19 -14 10 -16 7 -22 -16
-39 -25 -19 -26 -20 -5 -21 12 0 24 6 27 13 5 10 7 10 12 0 7 -17 116 -17 132
-1 9 9 15 9 24 0 9 -9 587 -12 2542 -12 l2529 0 28 31 c25 28 32 31 67 26 21
-4 73 -18 116 -32 72 -24 89 -25 291 -25 183 0 215 2 215 15 0 11 13 14 59 14
33 -1 65 2 72 6 7 5 19 -2 30 -16 20 -25 26 -11 9 21 -8 15 -5 22 12 34 12 9
35 16 50 16 22 0 28 -5 28 -22 0 -57 10 -68 56 -68 32 0 44 4 44 15 0 8 4 15
10 15 5 0 7 -7 4 -15 -5 -13 117 -15 1061 -15 l1067 0 -191 187 c-324 315
-374 370 -445 491 -17 30 -41 70 -53 90 -32 54 -29 71 7 37 17 -16 30 -35 30
-42 0 -7 5 -13 10 -13 6 0 10 2 10 5 0 14 -92 136 -132 174 -27 25 -48 53 -48
63 0 21 11 23 28 6 10 -10 17 -10 32 0 11 6 24 12 29 12 16 0 61 -46 61 -62 0
-8 66 -98 148 -200 131 -165 239 -302 366 -465 23 -29 47 -52 54 -53 6 0 12
-7 12 -15 0 -37 28 -8 62 64 21 43 54 100 74 127 62 81 188 216 192 205 12
-35 -41 -118 -138 -221 -95 -101 -165 -219 -143 -241 8 -8 20 7 42 52 18 38
58 93 98 135 80 83 97 104 106 128 5 12 13 15 28 11 31 -10 69 30 69 71 0 18
5 36 12 40 15 10 3 -68 -17 -107 -16 -30 -55 -58 -55 -39 0 20 -27 9 -38 -15
-17 -36 -15 -52 7 -67 16 -11 17 -18 7 -46 -6 -17 -21 -44 -34 -60 -12 -15
-37 -48 -55 -74 -17 -26 -45 -65 -60 -87 -29 -39 -29 -40 -10 -65 l18 -25 308
-1 c286 0 307 1 308 18 4 110 32 266 58 319 12 23 21 48 21 55 0 8 7 24 16 36
8 12 27 61 41 110 16 56 40 110 69 153 24 37 44 76 44 88 0 11 9 47 19 78 10
32 23 99 29 148 5 50 17 108 25 131 26 68 76 170 76 157 1 -7 -8 -29 -18 -50
-11 -21 -22 -63 -26 -93 -3 -30 -15 -95 -25 -145 -10 -49 -21 -128 -24 -175
-6 -85 -6 -85 13 -62 22 26 38 89 51 211 13 122 38 256 55 298 8 19 15 45 15
57 0 11 7 30 15 40 8 11 15 28 15 38 0 32 49 98 72 98 5 0 -3 -22 -16 -49 -31
-60 -75 -246 -105 -446 -5 -33 -23 -125 -40 -205 -17 -80 -38 -185 -46 -235
-22 -135 -33 -182 -60 -267 -14 -43 -27 -101 -30 -129 -3 -28 -12 -77 -20
-109 -19 -72 -19 -70 3 -70 14 0 21 17 35 82 9 46 19 106 23 133 3 28 11 68
19 90 39 118 54 185 90 390 9 50 29 149 45 220 16 72 33 155 38 185 26 151 64
338 74 365 12 32 65 91 74 83 2 -3 -6 -48 -20 -99 -14 -52 -28 -119 -31 -149
-4 -30 -13 -86 -21 -125 -27 -136 -44 -220 -53 -260 -6 -22 -17 -76 -27 -120
-31 -150 -55 -240 -74 -280 -24 -51 -58 -208 -64 -303 -3 -40 -10 -90 -15
-110 -22 -88 -22 -102 -1 -102 12 0 21 8 24 23 25 122 35 184 40 252 7 94 43
271 62 300 23 38 57 170 136 540 17 77 36 172 43 210 16 80 53 251 61 278 9
30 23 8 17 -28 -3 -19 -2 -42 1 -52 6 -15 12 -12 41 22 40 47 43 40 14 -35
-53 -139 -99 -277 -99 -297 0 -46 -91 -383 -110 -408 -37 -48 -116 -442 -125
-620 -2 -49 -9 -106 -15 -125 -14 -49 -13 -60 9 -60 16 0 22 13 34 73 8 39 16
100 16 134 2 155 84 570 131 663 10 19 22 51 28 70 38 127 53 187 71 276 19
90 31 130 61 199 4 11 22 56 39 100 18 44 36 88 41 97 6 10 20 48 32 85 12 38
30 76 39 86 19 18 34 23 25 9 -3 -5 4 -14 14 -22 15 -11 17 -18 8 -33 -6 -12
-6 -23 0 -29 5 -5 -11 -88 -45 -220 -29 -117 -53 -216 -53 -221 0 -5 9 1 20
14 10 13 19 21 20 17 0 -7 -52 -328 -70 -428 -5 -30 -16 -102 -25 -160 -8 -58
-29 -196 -46 -307 -16 -111 -31 -239 -33 -285 -2 -46 -6 -91 -11 -101 -6 -14
-2 -17 24 -17 35 0 37 8 32 126 -3 65 19 235 74 579 20 125 72 446 95 590 10
66 17 132 13 147 -7 36 43 236 68 271 11 15 17 32 14 37 -3 5 -1 11 5 15 6 4
8 10 5 15 -3 5 -1 12 5 15 7 4 9 -20 6 -74 -2 -51 0 -78 6 -75 11 7 9 -6 -17
-126 -7 -36 -21 -108 -30 -160 -9 -52 -22 -131 -30 -175 -8 -44 -24 -138 -36
-210 -11 -71 -30 -170 -41 -220 -11 -49 -24 -137 -29 -195 -5 -58 -13 -134
-19 -170 -26 -167 -40 -274 -40 -303 0 -18 -7 -44 -14 -59 l-15 -28 40 0 c21
0 39 3 40 8 0 4 2 45 3 92 5 114 24 305 36 355 5 22 10 72 10 110 1 39 5 88 9
110 39 183 65 321 96 510 29 172 85 458 102 510 16 51 57 115 74 115 5 0 9
-11 9 -25 0 -36 13 -31 39 15 12 22 26 40 32 40 13 0 11 -12 -11 -58 -11 -22
-20 -46 -20 -52 0 -6 -8 -27 -19 -48 -10 -20 -22 -48 -26 -62 -14 -44 22 -4
38 43 25 72 91 182 111 185 17 4 16 -1 -9 -44 -78 -133 -91 -170 -110 -311 -8
-59 -22 -148 -30 -198 -21 -113 -43 -272 -55 -395 -5 -52 -14 -138 -19 -190
-27 -263 -36 -370 -56 -662 l-4 -48 69 0 69 0 7 34 c3 19 14 42 24 51 16 15
18 15 24 0 3 -9 1 -25 -4 -35 -17 -31 -12 -50 13 -50 20 0 26 11 52 92 25 81
29 89 37 67 10 -24 5 -110 -7 -142 -6 -15 0 -17 64 -17 l71 0 0 170 c0 135 -3
176 -15 194 -17 26 -36 113 -28 133 10 25 20 13 30 -34 9 -44 10 -37 12 70 1
82 -4 135 -15 176 -16 55 -16 62 0 94 9 21 16 59 15 94 0 51 -2 55 -12 33 -29
-65 -87 -182 -122 -245 -34 -64 -37 -67 -32 -33 3 21 2 40 -2 43 -11 6 -25
-32 -42 -110 -21 -100 -28 -96 -29 17 0 100 10 157 40 223 27 61 63 155 103
275 25 74 57 161 71 194 18 41 26 75 26 115 -1 54 -1 55 -15 30 -17 -32 -57
-137 -95 -249 -15 -47 -38 -110 -50 -140 -12 -30 -24 -64 -27 -75 -4 -11 -12
-29 -20 -40 -13 -19 -13 -19 -13 0 0 56 35 209 70 303 63 173 97 263 125 331
18 44 25 77 23 110 l-3 46 -27 -45 c-14 -25 -29 -61 -33 -80 -8 -43 -73 -208
-91 -235 -13 -19 -14 -18 -14 6 0 47 38 206 65 270 15 35 45 90 66 123 l39 58
0 354 c0 347 0 354 -21 375 -17 17 -23 19 -30 8 -6 -11 -13 -8 -33 10 -14 13
-24 27 -21 31 2 3 -12 24 -32 46 -53 59 -112 152 -158 252 -13 28 -28 52 -32
52 -5 0 -16 12 -26 28 -9 15 -32 45 -52 67 -19 22 -35 44 -35 48 0 9 -43 68
-72 101 -10 11 -21 29 -24 40 -7 23 -63 146 -96 211 -47 91 -158 245 -235 325
-163 168 -230 236 -305 309 -43 41 -76 77 -74 80 2 3 9 25 15 49 12 42 12 42
50 36 36 -6 40 -3 75 39 26 32 47 47 71 51 41 8 76 50 93 112 17 58 15 87 -6
101 -13 8 -18 20 -15 40 4 23 -4 36 -41 72 -38 38 -53 45 -88 47 -24 1 -62 9
-85 18 -73 27 -142 30 -192 6z m-6 -79 c10 -18 -12 -21 -56 -7 l-44 14 47 1
c26 1 49 -3 53 -8z m20 -61 c19 -16 19 -40 0 -40 -16 0 -95 48 -95 58 0 9 81
-6 95 -18z m-110 -60 c8 -16 15 -34 15 -41 0 -20 -30 11 -51 53 l-20 39 20
-11 c12 -6 28 -24 36 -40z m42 3 c3 -7 -3 -9 -16 -6 -12 3 -21 10 -21 15 0 13
32 6 37 -9z m59 -30 c-8 -8 -36 5 -36 17 0 7 6 7 21 0 11 -7 18 -14 15 -17z
m-231 -53 c3 -5 -1 -10 -9 -10 -8 0 -18 5 -21 10 -3 6 1 10 9 10 8 0 18 -4 21
-10z m116 -12 c19 -23 26 -58 11 -58 -18 0 -50 32 -54 55 -7 32 17 34 43 3z
m-266 -48 c3 -5 1 -10 -4 -10 -6 0 -11 5 -11 10 0 6 2 10 4 10 3 0 8 -4 11
-10z m206 -43 c26 -16 24 -27 -6 -27 -14 0 -25 4 -25 9 0 6 -13 18 -30 28 -16
9 -30 21 -30 25 0 7 59 -15 91 -35z m-202 -521 c-2 -2 -38 -6 -79 -10 -52 -5
-70 -4 -60 4 13 9 149 15 139 6z m174 -3 c-29 -2 -77 -2 -105 0 -29 2 -6 3 52
3 58 0 81 -1 53 -3z m-333 -324 c-10 -7 -3 -8 23 -3 33 6 42 3 68 -22 16 -15
29 -32 29 -37 0 -11 54 -83 87 -115 13 -13 23 -26 23 -31 0 -17 -71 -71 -94
-71 -13 0 -26 -3 -29 -7 -2 -5 -2 -2 0 6 2 8 -2 11 -12 7 -9 -3 -20 4 -29 22
-8 15 -33 47 -55 71 -21 24 -37 50 -34 58 3 7 0 13 -6 13 -6 0 -11 -4 -11 -10
0 -5 -20 -10 -44 -10 -25 0 -48 -4 -51 -10 -3 -5 -32 -10 -64 -10 -58 0 -58 0
-57 29 1 28 4 30 63 41 58 11 62 14 57 35 -4 17 0 26 14 34 28 15 31 14 25 -8
-7 -26 24 -36 37 -11 14 26 13 33 -6 26 -8 -3 -13 -2 -10 3 3 5 25 9 48 9 31
1 38 -2 28 -9z m378 -587 c-4 -33 -35 -53 -48 -32 -5 8 -10 24 -10 35 0 15 7
20 31 21 26 1 30 -2 27 -24z m-868 -57 c0 -13 -4 -14 -20 -5 -11 6 -20 13 -20
15 0 3 9 5 20 5 11 0 20 -7 20 -15z m840 -10 c0 -16 -12 -18 -47 -9 -31 8 -19
24 18 24 19 0 29 -5 29 -15z m-783 -102 c51 -24 110 -80 98 -92 -17 -17 -172
-26 -191 -10 -15 12 -14 55 3 112 5 21 32 18 90 -10z m1983 -498 c10 -12 9
-16 -4 -21 -9 -3 -23 -3 -32 0 -13 5 -14 9 -4 21 7 8 16 15 20 15 4 0 13 -7
20 -15z m-10195 -74 c-3 -25 -1 -76 4 -113 11 -65 2 -118 -20 -118 -27 0 -35
96 -12 151 9 24 13 54 10 75 -7 40 0 67 15 58 5 -4 7 -26 3 -53z m210 -111 c3
-5 2 -10 -4 -10 -5 0 -13 5 -16 10 -3 6 -2 10 4 10 5 0 13 -4 16 -10z m9715
-137 c0 -19 -68 -140 -87 -156 -13 -10 -23 -23 -23 -30 0 -6 -10 -21 -22 -34
-39 -42 -72 -22 -40 24 10 16 45 67 76 116 39 60 63 87 77 87 10 0 19 -3 19
-7z m-114 -30 c-4 -11 -14 -28 -24 -39 -9 -10 -30 -45 -46 -77 -23 -46 -31
-55 -42 -46 -21 17 -17 28 26 75 22 24 40 49 40 56 0 13 41 60 48 54 2 -3 1
-13 -2 -23z m150 -50 c-24 -38 -58 -91 -76 -119 -31 -51 -82 -98 -93 -87 -3 3
10 20 29 39 18 19 37 47 40 62 3 15 16 36 28 47 12 11 38 40 56 65 30 40 49
59 58 60 1 0 -18 -30 -42 -67z m-3529 12 c7 -20 -2 -29 -21 -22 -9 4 -13 13
-10 22 8 19 23 19 31 0z m3603 -20 c0 -8 -7 -15 -15 -15 -16 0 -20 12 -8 23
11 12 23 8 23 -8z m470 -6 c0 -4 -13 -28 -30 -52 -42 -62 -97 -183 -111 -242
-28 -119 -39 -77 -14 53 24 123 105 269 141 255 8 -3 14 -9 14 -14z m-830 -38
c-6 -12 -16 -19 -21 -15 -6 4 -3 13 8 24 23 22 28 18 13 -9z m-20 -125 c0 -2
-8 -21 -17 -42 -12 -29 -18 -34 -21 -21 -6 29 7 67 23 67 8 0 15 -2 15 -4z
m-1500 -167 c0 -5 -7 -9 -15 -9 -8 0 -15 7 -15 15 0 9 6 12 15 9 8 -4 15 -10
15 -15z m-8 -43 c5 -35 3 -96 -3 -96 -11 0 -49 84 -49 108 0 19 3 20 25 10 14
-6 26 -16 27 -22z m-42 -83 c0 -6 -8 -9 -20 -6 -23 6 -24 9 -7 27 13 14 27 4
27 -21z m-5171 -47 l44 -44 -89 -45 c-49 -24 -100 -48 -114 -52 -14 -4 -38
-13 -55 -20 -16 -7 -50 -20 -75 -28 -79 -28 -463 -175 -515 -197 -27 -12 -110
-46 -184 -76 -268 -109 -350 -168 -406 -290 -31 -68 -35 -72 -81 -88 -27 -9
-114 -28 -193 -41 -266 -46 -555 -105 -736 -150 -99 -25 -223 -52 -275 -60
-52 -9 -144 -25 -203 -36 -60 -11 -110 -19 -112 -17 -8 10 -13 55 -7 65 12 19
91 41 172 48 99 9 278 40 365 63 39 10 102 25 140 32 103 19 192 48 199 65 4
10 20 15 52 15 38 0 47 4 51 20 5 19 7 19 23 5 16 -14 29 -14 146 0 75 9 145
24 167 34 20 10 37 14 37 9 0 -7 22 -8 58 -4 31 4 80 9 109 12 51 6 52 7 58
45 17 98 131 200 332 295 54 26 148 71 208 100 312 149 416 198 535 251 97 43
213 98 245 114 46 25 57 22 104 -25z m4985 19 c4 -10 -1 -15 -16 -15 -17 0
-18 2 -8 15 7 8 14 15 15 15 2 0 5 -7 9 -15z m-4 -65 c0 -5 -7 -10 -16 -10 -8
0 -12 5 -9 10 3 6 10 10 16 10 5 0 9 -4 9 -10z m-161 -124 c9 -11 6 -12 -14
-8 -14 2 -25 8 -25 13 0 14 26 11 39 -5z m-9049 -255 c0 -12 -20 -25 -27 -18
-7 7 6 27 18 27 5 0 9 -4 9 -9z m9971 -44 c-8 -8 -11 -3 -11 19 1 25 2 27 11
11 8 -14 8 -22 0 -30z m611 -10 c-6 -7 -13 -34 -17 -61 -4 -27 -18 -65 -32
-84 -13 -20 -26 -47 -30 -61 -3 -14 -14 -37 -25 -50 -35 -45 -20 8 45 161 38
92 63 141 65 128 2 -12 -1 -26 -6 -33z m-10662 9 c0 -3 -4 -8 -10 -11 -5 -3
-10 -1 -10 4 0 6 5 11 10 11 6 0 10 -2 10 -4z m-95 -35 c-3 -6 -11 -8 -17 -5
-6 4 -5 9 3 15 16 10 23 4 14 -10z m10035 -15 c0 -16 -70 -109 -77 -102 -3 3
9 30 27 60 30 54 50 71 50 42z m-9898 -28 c-7 -7 -12 -8 -12 -2 0 14 12 26 19
19 2 -3 -1 -11 -7 -17z m-72 -27 c0 -12 -20 -25 -27 -18 -7 7 6 27 18 27 5 0
9 -4 9 -9z m-86 -46 c-4 -8 -10 -12 -15 -9 -14 8 -10 24 6 24 9 0 12 -6 9 -15z
m10056 -16 c0 -5 5 -7 10 -4 6 3 10 3 10 0 0 -9 -86 -121 -130 -170 -19 -22
-43 -51 -53 -64 -33 -48 -26 -13 14 67 51 103 149 216 149 171z m1926 -56 c-3
-7 -12 -10 -20 -7 -10 4 -19 -10 -32 -48 -9 -29 -23 -62 -29 -73 -7 -11 -15
-66 -19 -123 -6 -95 -34 -211 -57 -236 -15 -17 -10 23 6 47 12 19 13 33 3 83
-9 53 -8 78 12 187 19 98 27 124 36 116 10 -8 19 0 38 30 14 22 26 44 26 49 0
4 5 13 12 20 10 10 14 8 21 -10 4 -12 5 -28 3 -35z m-11845 14 c-8 -8 -11 -7
-11 4 0 20 13 34 18 19 3 -7 -1 -17 -7 -23z m147 -41 c3 -12 -1 -17 -10 -14
-7 3 -15 13 -16 22 -3 12 1 17 10 14 7 -3 15 -13 16 -22z m-280 -15 c3 -8 -1
-12 -9 -9 -7 2 -15 10 -17 17 -3 8 1 12 9 9 7 -2 15 -10 17 -17z m11995 -43
c-7 -13 -21 -9 -27 8 -4 9 -1 23 6 32 11 13 13 11 19 -9 3 -13 4 -27 2 -31z
m-10968 32 c3 -5 2 -10 -4 -10 -5 0 -13 5 -16 10 -3 6 -2 10 4 10 5 0 13 -4
16 -10z m1800 -1 c12 -19 -5 -23 -22 -6 -16 16 -16 17 -1 17 9 0 20 -5 23 -11z
m-2575 -29 c0 -13 -7 -20 -20 -20 -23 0 -26 10 -8 28 18 18 28 15 28 -8z m930
11 c0 -14 -18 -23 -30 -16 -6 4 -8 11 -5 16 8 12 35 12 35 0z m-1233 -23 c-3
-8 -6 -5 -6 6 -1 11 2 17 5 13 3 -3 4 -12 1 -19z m193 -14 c0 -14 -12 -19 -23
-8 -9 9 4 35 14 28 5 -3 9 -12 9 -20z m10444 -15 c-13 -14 -21 -16 -28 -9 -8
8 -4 17 14 32 30 24 41 7 14 -23z m51 -1 c-4 -24 -18 -64 -31 -90 -13 -26 -24
-56 -24 -66 0 -10 -9 -35 -19 -55 -11 -21 -22 -56 -26 -78 -4 -21 -12 -42 -17
-46 -8 -4 -9 2 -4 18 4 13 11 47 16 75 4 27 17 72 28 100 10 27 25 71 31 99
10 41 34 82 49 84 2 1 1 -18 -3 -41z m-9275 16 c0 -8 -5 -12 -10 -9 -6 4 -8
11 -5 16 9 14 15 11 15 -7z m-362 -12 c6 -18 -15 -14 -22 4 -4 10 -1 14 6 12
6 -2 14 -10 16 -16z m422 8 c0 -5 -7 -10 -15 -10 -8 0 -15 5 -15 10 0 6 7 10
15 10 8 0 15 -4 15 -10z m-325 -10 c3 -5 -1 -10 -10 -10 -9 0 -13 5 -10 10 3
6 8 10 10 10 2 0 7 -4 10 -10z m6836 -23 c4 -15 5 -27 2 -27 -10 0 -41 45 -36
53 9 15 27 1 34 -26z m-6718 17 c11 -11 -3 -24 -18 -18 -8 4 -12 10 -9 15 6
11 18 12 27 3z m-1199 -20 c4 -10 1 -14 -6 -12 -15 5 -23 28 -10 28 5 0 13 -7
16 -16z m1399 7 c21 -3 3 -21 -22 -21 -21 0 -30 -6 -34 -21 -5 -20 -6 -20 -28
3 -13 13 -30 28 -38 34 -11 9 0 11 50 9 35 -1 67 -3 72 -4z m6156 -107 c32
-17 98 -83 104 -105 4 -14 0 -19 -14 -19 -29 0 -44 -42 -28 -78 l13 -30 19 24
c26 33 42 30 54 -11 l11 -35 -71 0 c-40 0 -90 -3 -112 -6 l-40 -5 25 21 c62
53 80 73 80 90 0 16 -7 19 -42 18 -24 -1 -50 -7 -59 -15 -18 -15 -17 -18 -40
161 -14 110 -7 120 39 55 21 -29 48 -59 61 -65z m451 106 c0 -5 -2 -10 -4 -10
-3 0 -8 5 -11 10 -3 6 -1 10 4 10 6 0 11 -4 11 -10z m-40 -15 c11 -13 10 -14
-4 -9 -9 3 -16 10 -16 15 0 13 6 11 20 -6z m-7770 -5 c0 -5 -4 -10 -10 -10 -5
0 -10 5 -10 10 0 6 5 10 10 10 6 0 10 -4 10 -10z m765 0 c3 -5 2 -16 -2 -24
-11 -20 -38 -3 -30 18 7 18 23 21 32 6z m6401 -10 c22 0 32 -34 44 -150 7 -57
13 -107 16 -111 2 -3 -10 -26 -25 -51 -31 -48 -30 -57 9 -76 22 -11 20 -12
-24 -7 -27 3 -52 7 -55 10 -8 9 -5 285 3 350 5 33 11 54 13 48 3 -7 11 -13 19
-13z m384 9 c0 -6 8 -8 19 -4 13 4 20 0 23 -13 4 -15 1 -18 -18 -14 -29 5 -34
-23 -6 -33 16 -5 62 -68 62 -85 0 -4 7 -10 15 -14 8 -3 15 -9 15 -15 0 -11
-35 -21 -46 -12 -18 13 -62 77 -65 96 -3 12 -17 24 -37 30 -17 5 -32 14 -32
21 0 6 -7 17 -15 24 -26 22 -16 30 35 30 29 0 50 -5 50 -11z m80 1 c0 -5 -4
-10 -10 -10 -5 0 -10 5 -10 10 0 6 5 10 10 10 6 0 10 -4 10 -10z m-7550 -26
c0 -16 -16 -19 -25 -4 -8 13 4 32 16 25 5 -4 9 -13 9 -21z m10130 22 c0 -2 -7
-6 -15 -10 -8 -3 -15 -1 -15 4 0 6 7 10 15 10 8 0 15 -2 15 -4z m-100 -27 c0
-5 12 -6 26 -3 41 10 50 -16 13 -38 -41 -25 -63 -24 -49 1 13 26 13 31 -5 31
-8 0 -15 7 -15 15 0 9 6 12 15 9 8 -4 15 -10 15 -15z m-10510 -3 c0 -3 -4 -8
-10 -11 -5 -3 -10 -1 -10 4 0 6 5 11 10 11 6 0 10 -2 10 -4z m2303 -3 c-7 -2
-21 -2 -30 0 -10 3 -4 5 12 5 17 0 24 -2 18 -5z m-1063 -13 c0 -5 -5 -10 -11
-10 -5 0 -7 5 -4 10 3 6 8 10 11 10 2 0 4 -4 4 -10z m120 0 c0 -5 -7 -10 -16
-10 -8 0 -12 5 -9 10 3 6 10 10 16 10 5 0 9 -4 9 -10z m490 -5 c0 -8 -4 -15
-10 -15 -5 0 -10 7 -10 15 0 8 5 15 10 15 6 0 10 -7 10 -15z m307 -1 c-3 -3
-12 -4 -19 -1 -8 3 -5 6 6 6 11 1 17 -2 13 -5z m8579 -31 c-11 -11 -19 6 -11
24 8 17 8 17 12 0 3 -10 2 -21 -1 -24z m-9610 16 c3 -6 2 -15 -2 -19 -12 -12
-38 5 -30 19 9 14 23 14 32 0z m-676 -20 c0 -5 -9 -9 -20 -9 -22 0 -27 16 -7
23 15 5 27 -1 27 -14z m1405 -9 c-3 -4 -45 -17 -95 -29 -79 -19 -95 -21 -120
-9 -40 17 -33 31 16 35 21 1 59 6 84 10 51 9 122 5 115 -7z m98 13 c-7 -2 -19
-2 -25 0 -7 3 -2 5 12 5 14 0 19 -2 13 -5z m-1428 -43 c-3 -5 -10 -10 -16 -10
-5 0 -9 5 -9 10 0 6 7 10 16 10 8 0 12 -4 9 -10z m665 -5 c-7 -8 -17 -15 -22
-15 -6 0 -5 7 2 15 7 8 17 15 22 15 6 0 5 -7 -2 -15z m130 5 c0 -9 -32 -30
-46 -30 -4 0 1 9 11 20 19 21 35 26 35 10z m-232 -11 c-2 -6 -8 -10 -13 -10
-5 0 -11 4 -13 10 -2 6 4 11 13 11 9 0 15 -5 13 -11z m402 -20 c0 -17 -24 -21
-35 -6 -7 10 -20 17 -29 17 -10 0 -15 4 -12 9 7 10 76 -8 76 -20z m9108 14
c-10 -2 -18 -13 -18 -23 0 -10 -7 -25 -15 -34 -8 -8 -15 -19 -15 -25 0 -6 -6
-11 -14 -11 -8 0 -16 -4 -18 -9 -1 -5 -21 -6 -43 -2 -26 4 -36 9 -27 15 7 4
19 5 27 2 10 -3 15 1 15 11 0 20 28 53 45 53 7 0 18 7 25 15 7 8 22 14 34 14
17 -1 17 -2 4 -6z m-10194 -28 c-4 -8 -8 -15 -10 -15 -2 0 -4 7 -4 15 0 8 4
15 10 15 5 0 7 -7 4 -15z m92 -6 c3 -6 0 -15 -7 -20 -22 -14 -29 -11 -29 11 0
21 24 27 36 9z m744 2 c0 -10 -30 -24 -37 -17 -3 3 -2 9 2 15 8 13 35 15 35 2z
m9167 -7 c-3 -3 -12 -4 -19 -1 -8 3 -5 6 6 6 11 1 17 -2 13 -5z m-10132 -14
c3 -5 1 -10 -4 -10 -6 0 -11 5 -11 10 0 6 2 10 4 10 3 0 8 -4 11 -10z m1185
-4 c0 -18 -23 -27 -41 -15 -12 8 -12 10 1 19 22 14 40 12 40 -4z m-1489 -9
c-1 -12 -15 -9 -19 4 -3 6 1 10 8 8 6 -3 11 -8 11 -12z m1319 -22 c-21 -21
-38 -31 -43 -26 -13 13 0 31 22 31 10 0 24 7 31 15 7 8 15 15 18 15 3 0 -9
-16 -28 -35z m-232 13 c-6 -18 -28 -21 -28 -4 0 9 7 16 16 16 9 0 14 -5 12
-12z m9337 -17 c-9 -8 30 -30 55 -31 22 -1 20 -3 -12 -17 -21 -8 -38 -22 -38
-31 0 -12 -4 -12 -22 4 -12 10 -18 14 -15 8 6 -10 -31 -44 -47 -44 -11 0 2 50
22 84 12 21 22 41 22 47 0 5 9 4 20 -3 10 -7 17 -14 15 -17z m-9923 -32 c6 -4
9 -12 6 -19 -2 -8 -11 -2 -21 14 -10 15 -14 32 -10 39 5 8 9 6 11 -8 3 -11 9
-23 14 -26z m688 31 c0 -12 -28 -25 -36 -17 -9 9 6 27 22 27 8 0 14 -5 14 -10z
m-778 -32 c-7 -7 -12 -8 -12 -2 0 14 12 26 19 19 2 -3 -1 -11 -7 -17z m234 -7
c-10 -16 -36 -13 -36 3 0 17 21 27 34 16 4 -5 5 -13 2 -19z m-676 9 c0 -5 -4
-10 -10 -10 -5 0 -10 5 -10 10 0 6 5 10 10 10 6 0 10 -4 10 -10z m1499 1 c8
-5 9 -11 3 -15 -13 -8 -42 3 -42 15 0 11 21 11 39 0z m-574 -21 c3 -5 -1 -10
-10 -10 -9 0 -13 5 -10 10 3 6 8 10 10 10 2 0 7 -4 10 -10z m165 -10 c0 -5 -4
-10 -10 -10 -5 0 -10 5 -10 10 0 6 5 10 10 10 6 0 10 -4 10 -10z m170 -4 c0
-16 -18 -31 -27 -22 -8 8 5 36 17 36 5 0 10 -6 10 -14z m-235 -6 c-3 -5 -10
-10 -16 -10 -5 0 -9 5 -9 10 0 6 7 10 16 10 8 0 12 -4 9 -10z m-958 -26 c-9
-9 -28 6 -21 18 4 6 10 6 17 -1 6 -6 8 -13 4 -17z m531 4 c-3 -7 -13 -15 -24
-17 -16 -3 -17 -1 -5 13 16 19 34 21 29 4z m-684 -37 c-4 -18 -11 -28 -15 -24
-5 5 -4 21 3 35 16 34 20 30 12 -11z m981 18 c-4 -5 -13 -9 -22 -9 -13 0 -13
3 -3 15 13 15 35 11 25 -6z m6625 2 c0 -10 -6 -23 -12 -29 -10 -8 -13 -3 -13
19 0 17 5 29 13 29 6 0 12 -8 12 -19z m-7495 -11 c3 -5 1 -10 -4 -10 -6 0 -11
5 -11 10 0 6 2 10 4 10 3 0 8 -4 11 -10z m1163 -2 c-6 -16 -36 -34 -44 -26 -3
4 -4 14 -1 23 7 17 51 21 45 3z m112 -2 c0 -16 -18 -31 -27 -22 -8 8 5 36 17
36 5 0 10 -6 10 -14z m-310 -11 c0 -8 -7 -15 -15 -15 -8 0 -15 7 -15 15 0 8 7
15 15 15 8 0 15 -7 15 -15z m-460 -25 c0 -5 -5 -10 -11 -10 -5 0 -7 5 -4 10 3
6 8 10 11 10 2 0 4 -4 4 -10z m107 4 c-3 -3 -12 -4 -19 -1 -8 3 -5 6 6 6 11 1
17 -2 13 -5z m10120 -26 c-3 -8 -6 -5 -6 6 -1 11 2 17 5 13 3 -3 4 -12 1 -19z
m-10657 -7 c0 -12 -20 -25 -27 -18 -7 7 6 27 18 27 5 0 9 -4 9 -9z"/>
<path d="M14620 2451 c0 -18 26 -31 38 -19 19 19 14 28 -13 28 -14 0 -25 -4
-25 -9z"/>
<path d="M4215 6319 c-27 -10 -67 -18 -88 -19 -25 0 -36 -4 -31 -11 6 -11 200
-6 267 7 55 11 29 26 -63 38 -20 2 -57 -4 -85 -15z"/>
<path d="M4120 6251 c-186 -21 -240 -30 -240 -41 0 -12 39 -20 96 -20 43 0 53
-3 57 -20 5 -18 4 -19 -16 -5 -35 24 -55 18 -83 -27 -29 -45 -29 -46 -1 -214
22 -138 91 -244 158 -244 l29 0 0 -227 0 -228 -33 -15 c-17 -8 -42 -31 -55
-50 -12 -19 -30 -44 -40 -55 -50 -55 -110 -143 -116 -167 -9 -40 -33 -58 -76
-58 -21 0 -42 -4 -45 -10 -3 -5 -13 -10 -21 -10 -14 0 -45 -12 -141 -56 -17
-8 -36 -14 -41 -14 -6 0 -12 -3 -14 -7 -1 -5 -17 -15 -33 -24 l-31 -16 13 56
c7 31 27 128 43 216 34 178 54 255 77 300 21 39 29 181 14 228 -7 21 -41 65
-82 106 -39 39 -68 75 -65 80 3 5 -1 12 -10 15 -8 3 -12 10 -9 16 3 5 1 10 -4
10 -6 0 -11 5 -11 11 0 10 -28 49 -65 92 -8 9 -15 21 -15 27 0 5 -14 17 -32
26 -18 9 -41 27 -51 40 -10 13 -25 24 -32 24 -8 0 -34 22 -60 49 -25 26 -65
56 -88 66 -23 9 -51 21 -62 26 -163 70 -312 99 -514 99 -192 0 -276 -22 -401
-105 -66 -44 -188 -163 -250 -245 -19 -25 -38 -46 -42 -48 -5 -2 -8 -9 -8 -16
0 -7 -29 -58 -64 -113 -73 -113 -79 -125 -184 -383 -37 -88 -81 -213 -91 -255
-5 -17 -13 -39 -18 -50 -6 -11 -14 -40 -18 -65 -4 -25 -12 -54 -18 -65 -5 -10
-16 -40 -23 -65 -35 -123 -83 -226 -114 -245 -5 -3 -10 -14 -10 -23 0 -10 -8
-24 -17 -33 -10 -8 -36 -37 -58 -63 l-40 -48 -60 6 -60 5 30 -24 c16 -13 42
-27 58 -31 16 -3 40 -12 55 -20 15 -8 32 -14 37 -14 6 0 32 -20 60 -45 27 -25
53 -45 57 -45 20 0 30 -44 18 -85 -17 -61 -1 -89 45 -81 70 13 109 -31 98
-111 -4 -28 -1 -42 11 -52 9 -7 16 -19 16 -27 0 -22 -109 -16 -139 7 -13 11
-32 17 -41 14 -25 -8 -120 75 -120 105 0 24 -26 46 -32 28 -3 -8 -12 1 -22 20
-9 17 -12 32 -6 32 5 0 10 -7 10 -15 0 -8 5 -15 10 -15 17 0 11 23 -21 75
l-30 50 7 -40 6 -40 -26 37 c-28 40 -33 64 -14 70 9 3 7 14 -5 41 -17 36 -34
53 -43 45 -2 -3 5 -16 16 -31 11 -14 20 -32 20 -41 0 -20 -26 -21 -34 -1 -3 8
-15 15 -27 15 -19 0 -21 -4 -14 -36 3 -20 17 -57 30 -83 28 -55 70 -189 62
-198 -13 -12 -38 21 -52 71 -9 31 -31 68 -55 95 -22 25 -40 53 -40 63 0 11 -7
18 -19 18 -11 0 -31 14 -45 32 -20 25 -26 29 -31 17 -9 -23 11 -66 33 -73 20
-7 32 -33 32 -72 0 -12 8 -32 19 -45 10 -13 22 -35 26 -49 4 -14 27 -58 51
-97 45 -74 58 -128 29 -116 -9 3 -23 19 -31 36 -17 32 -20 36 -58 79 -14 15
-27 37 -31 48 -3 11 -13 20 -20 20 -8 0 -24 18 -35 40 -11 22 -28 40 -37 40
-9 0 -22 8 -29 18 -12 15 -13 13 -14 -19 0 -24 7 -42 21 -55 11 -10 27 -33 34
-50 7 -18 23 -38 35 -44 16 -9 20 -18 16 -35 -4 -17 2 -32 22 -53 46 -51 76
-94 79 -116 2 -12 12 -27 24 -35 11 -8 26 -29 34 -48 9 -21 31 -43 59 -61 28
-16 45 -34 46 -46 0 -19 -1 -19 -20 -1 -13 11 -35 19 -55 18 -19 -1 -39 5 -46
13 -6 8 -18 14 -26 14 -7 0 -16 7 -19 15 -4 8 -15 15 -26 15 -11 0 -27 4 -37
9 -9 5 -23 6 -31 1 -11 -7 -10 -14 3 -43 10 -19 17 -40 17 -45 0 -6 22 -46 48
-89 45 -72 52 -78 85 -81 43 -4 49 14 17 43 -21 19 -26 60 -11 84 10 16 31 6
31 -14 0 -8 9 -19 20 -25 26 -14 26 -30 0 -30 -11 0 -20 -7 -20 -15 0 -8 9
-15 19 -15 11 0 22 -4 25 -8 8 -13 -11 -35 -25 -29 -8 2 -29 -7 -47 -20 -27
-20 -36 -22 -48 -12 -17 14 -80 103 -104 147 -38 68 -63 102 -75 102 -8 0 -20
9 -27 19 -8 11 -25 23 -38 26 -25 7 -70 65 -70 91 0 8 -9 14 -19 14 -11 0 -31
14 -45 32 -30 38 -43 32 -27 -13 15 -45 14 -61 -7 -58 -39 4 -52 -2 -52 -22 0
-27 19 -61 30 -54 12 7 60 -15 61 -29 1 -6 2 -22 3 -36 1 -19 7 -26 26 -28 24
-3 60 -54 60 -85 0 -20 72 -84 102 -91 26 -6 159 -127 190 -174 17 -27 78 -58
78 -41 0 5 -6 22 -14 37 -8 15 -17 46 -21 67 l-6 40 24 -28 c15 -19 29 -26 40
-21 22 8 23 -23 2 -50 -9 -12 -11 -24 -6 -30 10 -13 41 -113 41 -134 0 -10 -8
-6 -25 12 -13 14 -28 27 -32 27 -4 1 -21 3 -37 5 -16 2 -41 7 -55 13 -49 18
-128 21 -141 5 -7 -8 -25 -14 -39 -14 -17 0 -37 -10 -52 -26 -13 -14 -41 -35
-62 -46 -24 -12 -42 -30 -49 -49 -6 -18 -16 -28 -26 -27 -9 2 -21 -8 -28 -21
-7 -13 -20 -29 -30 -34 -15 -8 -16 -6 -10 14 19 62 19 69 -3 69 -11 0 -28 -11
-37 -25 -10 -15 -26 -25 -40 -25 -12 0 -26 -5 -29 -10 -5 -8 -11 -7 -21 1 -20
17 -17 26 14 41 16 8 36 32 49 60 13 26 32 49 43 53 21 7 25 16 13 29 -7 7
-14 126 -8 126 2 0 11 -7 19 -16 14 -14 17 -13 27 10 10 21 15 23 31 15 31
-17 68 -3 68 25 0 13 7 29 15 36 19 15 3 40 -25 40 -10 0 -31 13 -47 28 -15
16 -41 33 -57 38 -43 15 -64 64 -71 163 -4 58 -11 91 -22 103 -13 15 -14 20
-3 33 11 14 10 17 -8 22 -27 7 -28 17 -2 43 22 22 40 26 40 8 0 -30 23 14 26
49 1 21 5 54 8 73 3 19 3 43 0 53 -5 17 -9 16 -36 -10 -21 -19 -32 -24 -35
-15 -6 16 -24 16 -22 0 4 -30 -2 -48 -15 -48 -17 0 -28 38 -12 43 8 3 8 8 -2
18 -18 19 -15 31 7 24 16 -5 18 -2 14 15 -4 14 -1 20 11 20 9 0 16 4 16 9 0
17 -21 23 -36 10 -17 -14 -30 -6 -18 13 5 7 9 22 10 33 3 38 24 162 31 181 3
11 -12 1 -34 -22 -33 -34 -42 -51 -48 -94 -5 -37 -16 -62 -38 -87 -25 -29 -29
-38 -19 -53 9 -14 7 -21 -9 -36 -10 -9 -19 -23 -19 -31 0 -16 -45 -90 -58 -94
-13 -5 -101 -161 -175 -309 -34 -69 -66 -128 -72 -132 -6 -5 -11 -235 -13
-648 l-2 -640 1203 0 1204 0 38 75 c39 76 68 115 85 115 15 0 12 -15 -10 -63
-10 -23 -26 -61 -33 -84 l-15 -43 1919 0 1919 0 6 26 c4 14 4 57 2 95 -5 61
-3 71 13 80 25 13 24 40 -2 90 -17 34 -18 45 -9 75 24 73 -8 205 -71 288 l-37
49 50 74 c80 120 91 161 84 333 -15 379 -25 506 -45 580 -84 313 -221 469
-566 644 -124 62 -282 136 -292 136 -11 0 -33 26 -62 75 -72 120 -220 299
-324 393 l-48 43 7 52 c4 37 17 68 44 107 55 81 88 151 131 278 34 101 44 119
86 160 27 26 57 63 68 82 10 19 32 48 48 63 30 28 30 28 24 118 -3 50 -2 101
3 113 4 13 10 45 11 72 l3 49 -99 38 c-55 21 -120 43 -145 47 -25 5 -63 13
-85 19 -22 6 -116 17 -210 26 -93 8 -213 19 -265 25 -52 5 -122 10 -155 10
-34 0 -65 4 -71 10 -18 18 -120 18 -284 1z m-1275 -979 c4 -9 8 -43 10 -74 3
-56 3 -57 -28 -65 -50 -12 -61 -10 -84 14 -18 18 -21 32 -18 80 2 32 3 59 4
60 1 1 25 2 55 2 42 0 56 -4 61 -17z m-475 -142 c0 -11 -4 -20 -9 -20 -5 0 -7
9 -4 20 3 11 7 20 9 20 2 0 4 -9 4 -20z m487 -52 c-3 -8 -6 -5 -6 6 -1 11 2
17 5 13 3 -3 4 -12 1 -19z m-576 2 c5 0 9 -9 9 -20 0 -17 -3 -19 -19 -11 -24
14 -38 46 -15 37 8 -3 20 -6 25 -6z m979 -149 c0 -38 -15 -71 -31 -71 -20 0
-25 15 -9 25 6 3 10 17 10 31 0 15 6 24 15 24 8 0 15 -4 15 -9z m30 -201 c0
-11 -10 -19 -25 -22 -32 -7 -38 3 -19 30 17 24 44 19 44 -8z m-70 -32 c0 -13
-43 -6 -47 8 -2 7 6 10 22 7 14 -3 25 -10 25 -15z m-973 -40 c-3 -7 -5 -2 -5
12 0 14 2 19 5 13 2 -7 2 -19 0 -25z m2823 -735 c-49 -478 -50 -540 -3 -806
19 -112 16 -108 128 -133 208 -45 469 -127 535 -167 34 -20 67 -57 62 -67 -12
-23 -159 -2 -307 44 -61 20 -163 44 -230 56 -27 5 -126 25 -220 45 -189 39
-271 55 -455 86 -69 11 -224 40 -345 64 -121 23 -263 48 -316 55 l-96 12 12
34 c6 19 21 45 33 59 21 24 27 25 90 20 37 -4 78 -9 92 -12 42 -9 203 -35 246
-40 l40 -5 17 99 c9 54 22 142 27 195 14 122 12 130 -105 438 -20 52 -40 104
-45 115 -4 11 -16 45 -25 75 -10 30 -24 70 -31 88 -8 18 -14 37 -14 42 0 5
-13 37 -29 72 -39 83 -45 112 -31 137 10 19 13 20 26 6 88 -87 304 -177 494
-204 102 -15 300 -17 325 -3 65 35 139 142 147 212 1 14 4 -30 5 -97 3 -84 -6
-213 -27 -420z m-3630 352 c15 -18 71 -20 68 -3 -4 18 37 21 54 4 10 -10 35
-14 77 -14 34 1 66 -3 72 -9 6 -6 7 -24 1 -51 -8 -32 -7 -42 4 -46 13 -5 9
-36 -4 -34 -22 2 -29 -5 -26 -28 l3 -27 -60 6 c-33 3 -65 9 -72 15 -17 12
-111 42 -136 42 -26 0 -45 34 -37 66 4 15 1 33 -8 46 -11 16 -13 25 -4 35 14
18 53 17 68 -2z m-134 -380 c16 -8 36 -15 45 -15 9 0 22 -7 29 -15 7 -8 24
-15 38 -15 25 0 25 -1 6 -15 -18 -14 -18 -16 -1 -29 9 -7 17 -19 17 -26 0 -17
30 -50 45 -50 19 0 63 -119 70 -190 4 -36 12 -74 19 -85 7 -11 15 -34 19 -51
6 -30 5 -30 -33 -30 -22 1 -44 6 -50 12 -6 6 -13 42 -15 79 -2 38 -11 87 -20
109 -34 85 -61 131 -81 141 -11 6 -33 24 -47 40 l-26 30 -1 -32 c0 -25 10 -42
46 -77 41 -41 45 -49 42 -87 -3 -46 -28 -68 -28 -25 0 18 -9 30 -30 41 -16 8
-34 24 -40 35 -6 11 -14 19 -18 16 -4 -2 -8 22 -9 54 -1 32 -7 69 -14 81 -6
13 -13 45 -14 71 -3 53 4 58 51 33z m1642 -2 c18 -3 37 -14 43 -25 11 -20 9
-20 -50 -16 -60 4 -61 4 -91 -33 -16 -21 -30 -47 -30 -58 0 -11 -7 -24 -16
-29 -9 -5 -16 -24 -17 -43 -2 -34 -2 -34 -54 -37 -56 -3 -67 7 -34 30 11 8 23
27 26 43 4 17 14 41 22 53 8 13 12 26 9 29 -3 3 4 19 15 35 13 17 19 37 16 50
-5 19 -3 20 61 14 37 -4 82 -10 100 -13z m-1456 -75 c-10 -10 -44 0 -37 12 3
5 14 6 26 3 12 -3 17 -9 11 -15z m84 -25 c16 -21 33 -43 40 -48 8 -7 9 -30 5
-75 l-7 -65 -5 53 c-4 31 -15 65 -28 82 -11 16 -21 38 -21 50 0 11 -7 20 -15
20 -8 0 -15 5 -15 10 0 21 20 9 46 -27z m-1030 -2 c-4 -6 -14 -11 -22 -11 -12
0 -12 3 -2 20 7 11 16 16 21 11 5 -5 6 -14 3 -20z m1156 -58 c22 -39 37 -90
42 -143 2 -25 10 -83 16 -129 9 -60 9 -90 1 -107 -20 -46 -71 -20 -71 36 0 12
-4 19 -9 16 -10 -7 -28 53 -36 124 l-7 55 20 -24 c24 -30 41 -11 19 22 -16 25
-31 136 -21 161 9 24 28 19 46 -11z m1348 -56 c14 -13 38 -27 53 -31 18 -4 27
-13 27 -26 0 -23 -25 -38 -74 -43 -40 -4 -61 -17 -28 -17 26 0 143 -38 157
-52 16 -15 -14 -26 -92 -34 -40 -3 -76 -10 -78 -15 -3 -4 22 -14 55 -21 33 -6
68 -20 77 -30 15 -17 14 -18 -13 -18 -17 0 -35 -5 -41 -11 -7 -7 -44 -12 -82
-13 -61 -2 -71 0 -71 15 0 9 -7 22 -15 29 -8 7 -15 19 -15 27 0 8 -4 11 -10 8
-5 -3 -26 1 -45 11 -35 16 -41 32 -36 92 2 20 -2 22 -24 16 -24 -6 -26 -5 -19
21 6 23 4 26 -14 23 -38 -6 -24 17 15 25 21 4 61 13 88 19 28 5 74 10 103 9
48 -1 52 1 38 15 -20 20 -20 24 2 24 9 0 29 -11 42 -23z m-2396 -91 c-3 -9
-10 -16 -15 -16 -14 0 -11 28 4 33 16 6 19 3 11 -17z m2106 -36 c0 -5 -5 -10
-11 -10 -5 0 -7 5 -4 10 3 6 8 10 11 10 2 0 4 -4 4 -10z m-1362 -63 c2 -15 -1
-27 -7 -27 -6 0 -11 5 -11 10 0 6 -7 10 -15 10 -13 0 -13 3 -3 20 17 26 32 20
36 -13z m-21 -63 c-3 -3 -12 -4 -19 -1 -8 3 -5 6 6 6 11 1 17 -2 13 -5z m507
-56 c10 -39 7 -44 -9 -14 -17 33 -18 36 -6 36 5 0 11 -10 15 -22z m-487 -4
c-3 -3 -12 -4 -19 -1 -8 3 -5 6 6 6 11 1 17 -2 13 -5z m188 -24 c3 -5 -1 -10
-9 -10 -9 0 -16 5 -16 10 0 6 4 10 9 10 6 0 13 -4 16 -10z m145 -38 c-17 -6
-42 7 -35 18 4 6 13 5 26 -3 10 -6 15 -13 9 -15z m-150 -17 c7 -8 9 -15 5 -15
-4 0 5 -14 19 -31 31 -37 33 -55 6 -62 -26 -7 -26 -27 0 -27 28 0 48 -44 30
-65 -7 -8 -22 -15 -34 -15 -28 0 -66 27 -66 46 0 11 -4 12 -19 4 -13 -6 -22
-25 -26 -54 -8 -53 -18 -54 -108 -13 -32 15 -64 27 -72 27 -21 0 -35 32 -35
79 l0 41 41 0 c32 0 40 3 35 15 -3 9 0 15 7 15 7 0 19 -16 27 -35 8 -19 17
-35 22 -35 4 0 3 11 -4 24 -6 14 -8 32 -5 40 8 21 56 21 64 0 5 -13 7 -13 14
-2 7 10 12 8 24 -9 9 -13 27 -23 41 -23 28 0 31 17 7 36 -16 12 -16 15 -3 23
18 12 12 19 -21 25 -13 2 -26 5 -29 6 -4 2 36 14 61 19 4 0 12 -6 19 -14z
m327 -7 c-3 -8 -6 -5 -6 6 -1 11 2 17 5 13 3 -3 4 -12 1 -19z m-149 -18 c21
-17 24 -28 23 -86 0 -37 -3 -69 -6 -72 -2 -3 0 -11 6 -18 17 -21 3 -31 -38
-29 -57 3 -57 4 -38 25 10 11 14 20 9 20 -5 0 -17 12 -26 27 -15 25 -15 27 6
45 18 16 19 20 6 31 -27 23 -40 53 -27 66 17 17 59 13 85 -9z m-1199 -107 c1
-34 -15 -45 -25 -18 -4 9 -3 41 2 73 l7 57 8 -40 c4 -22 8 -55 8 -72z m-45
-39 c9 -23 7 -72 -3 -78 -10 -7 -34 71 -26 84 9 15 22 12 29 -6z m1406 1 c0
-8 -4 -15 -10 -15 -5 0 -7 7 -4 15 4 8 8 15 10 15 2 0 4 -7 4 -15z m40 -124
c0 -6 -4 -13 -10 -16 -5 -3 -10 1 -10 9 0 9 5 16 10 16 6 0 10 -4 10 -9z
m-307 -33 c-12 -12 -31 -22 -42 -23 -11 -1 -28 -9 -38 -18 -10 -9 -37 -19 -59
-23 -40 -6 -41 -5 -48 27 -3 18 -4 34 -1 37 2 2 23 0 46 -6 23 -6 49 -7 58 -2
24 12 74 28 91 29 10 1 8 -5 -7 -21z m106 -85 c-6 -32 -12 -73 -13 -92 -1 -44
-17 -49 -34 -11 -8 17 -21 37 -29 45 -13 14 -13 20 2 58 9 23 31 56 48 72 31
29 32 29 35 8 2 -12 -2 -48 -9 -80z m139 82 c-3 -3 -9 2 -12 12 -6 14 -5 15 5
6 7 -7 10 -15 7 -18z m757 2 c45 -1 70 -93 36 -133 -19 -23 -81 -43 -81 -25 0
12 -40 11 -57 -2 -7 -5 -16 -6 -21 -3 -5 3 -30 -15 -56 -40 -26 -24 -56 -46
-66 -47 -11 -2 -30 -14 -42 -28 -13 -14 -41 -31 -63 -38 -40 -13 -74 -29 -150
-70 -21 -11 -52 -21 -68 -21 -15 0 -37 -5 -47 -10 -12 -6 -28 -7 -44 -1 -18 7
-28 6 -36 -4 -8 -9 -22 -12 -40 -8 -24 4 -29 2 -32 -18 -3 -21 -9 -24 -55 -27
-38 -2 -53 -7 -53 -18 0 -9 -11 -14 -35 -14 -19 0 -35 5 -35 10 0 6 -7 10 -15
10 -11 0 -12 6 -6 23 5 12 12 22 17 23 31 3 73 21 99 42 l30 25 12 -29 c7 -16
12 -35 13 -42 0 -7 5 -10 10 -7 8 5 8 11 1 19 -7 9 -7 16 1 24 9 9 9 12 -1 12
-7 0 -9 5 -6 10 3 6 14 10 24 10 9 0 30 13 47 28 40 38 97 72 122 72 12 0 31
13 44 30 12 17 29 30 39 30 9 0 22 7 29 15 7 8 16 12 21 10 4 -3 16 -2 26 3
29 15 116 42 135 42 9 0 30 11 46 25 17 14 34 25 38 25 5 0 40 25 79 56 57 46
73 54 95 48 14 -4 34 -7 45 -7z m-758 -49 c-3 -8 -6 -5 -6 6 -1 11 2 17 5 13
3 -3 4 -12 1 -19z m83 -73 c-16 -19 -26 -19 -34 0 -3 9 2 24 12 35 l17 21 9
-20 c6 -14 5 -26 -4 -36z m-56 23 c3 -13 6 -34 6 -47 0 -16 4 -21 15 -17 25 9
17 -8 -9 -20 -23 -11 -24 -9 -30 34 -3 25 -6 51 -6 58 0 22 17 16 24 -8z
m-989 2 c4 -6 18 -10 33 -10 41 1 164 -19 191 -30 16 -8 27 -7 37 1 11 9 16 6
24 -16 14 -37 13 -43 -10 -55 -15 -8 -28 -7 -52 6 -40 21 -239 26 -258 8 -28
-28 37 -100 96 -108 40 -5 65 -16 59 -27 -3 -4 -28 -5 -55 -2 -45 5 -52 3 -85
-25 -19 -18 -50 -39 -68 -48 -58 -30 -57 -43 5 -75 40 -20 42 -21 55 -3 7 10
13 23 13 29 0 19 121 78 165 80 57 4 292 24 302 26 24 4 32 -6 42 -51 13 -61
14 -177 2 -184 -4 -3 -11 -19 -14 -35 -4 -18 -14 -32 -27 -36 -12 -4 -25 -18
-31 -32 -5 -15 -15 -23 -23 -20 -22 9 -126 20 -126 14 0 -9 47 -54 67 -66 10
-6 12 -11 6 -11 -7 0 -27 9 -45 20 -18 11 -42 20 -53 20 -11 1 -45 14 -75 30
-57 31 -85 37 -95 20 -10 -16 -34 -11 -57 13 -39 38 -65 48 -84 30 -25 -25
-39 -1 -16 28 17 20 22 22 36 10 12 -10 20 -11 28 -3 14 14 0 34 -20 30 -11
-2 -21 7 -29 24 -14 33 -29 36 -38 8 -14 -45 -105 -31 -105 16 0 16 -7 24 -22
26 -17 2 -24 11 -26 31 -3 24 0 27 27 27 23 0 31 5 31 18 1 19 113 90 152 95
30 5 35 38 8 62 -30 27 -86 27 -145 0 -65 -30 -141 -55 -165 -55 -10 0 -23 7
-28 16 -11 20 -4 105 10 119 6 6 7 0 3 -17 -5 -18 -3 -28 4 -28 11 0 65 29
111 59 48 31 65 41 75 45 6 2 30 10 55 19 52 18 106 21 115 7z m4976 -97 c13
-17 13 -17 -6 -3 -11 8 -22 16 -24 17 -2 2 0 3 6 3 6 0 17 -8 24 -17z m-4281
-51 c0 -13 -12 -22 -22 -16 -10 6 -1 24 13 24 5 0 9 -4 9 -8z m3350 -23 c96
-7 180 -14 187 -18 6 -3 -97 -6 -230 -6 -374 0 -701 -17 -713 -36 -12 -20 -44
-8 -59 22 -9 17 -14 33 -11 36 24 24 472 25 826 2z m934 -3 c-3 -9 -10 -16
-15 -16 -5 0 -4 9 3 20 14 22 21 20 12 -4z m-575 -42 c8 -7 -64 -3 -104 6 -31
7 -24 7 30 3 39 -3 72 -7 74 -9z m536 6 c-3 -5 -12 -10 -18 -10 -7 0 -6 4 3
10 19 12 23 12 15 0z m-442 -27 c-7 -2 -19 -2 -25 0 -7 3 -2 5 12 5 14 0 19
-2 13 -5z m404 1 c-3 -3 -12 -4 -19 -1 -8 3 -5 6 6 6 11 1 17 -2 13 -5z m-330
-10 c-3 -3 -12 -4 -19 -1 -8 3 -5 6 6 6 11 1 17 -2 13 -5z m-3852 -155 c10
-16 -1 -22 -40 -24 -38 -1 -45 8 -17 24 22 14 49 14 57 0z m-935 -52 c0 -23
-2 -22 -19 10 -10 19 -9 22 4 17 8 -4 15 -15 15 -27z m837 27 c-3 -3 -12 -4
-19 -1 -8 3 -5 6 6 6 11 1 17 -2 13 -5z m-727 -99 c0 -8 -7 -15 -15 -15 -16 0
-20 12 -8 23 11 12 23 8 23 -8z m1744 -117 c-39 -31 -73 -8 -39 26 13 12 21
13 40 4 l24 -11 -25 -19z m156 -8 c13 -9 13 -10 0 -10 -8 0 -22 5 -30 10 -13
9 -13 10 0 10 8 0 22 -5 30 -10z"/>
<path d="M2945 3560 c-3 -6 5 -10 19 -10 14 0 28 5 31 10 3 6 -5 10 -19 10
-14 0 -28 -4 -31 -10z"/>
<path d="M1500 3160 c0 -6 7 -10 15 -10 8 0 15 2 15 4 0 2 -7 6 -15 10 -8 3
-15 1 -15 -4z"/>
<path d="M1457 3128 c13 -26 18 -29 21 -15 5 26 -5 47 -23 47 -14 0 -13 -4 2
-32z"/>
<path d="M1587 3113 c-12 -11 -8 -23 8 -23 8 0 15 7 15 15 0 16 -12 20 -23 8z"/>
<path d="M2625 2810 c3 -5 8 -10 11 -10 2 0 4 5 4 10 0 6 -5 10 -11 10 -5 0
-7 -4 -4 -10z"/>
<path d="M1098 2323 c7 -3 16 -2 19 1 4 3 -2 6 -13 5 -11 0 -14 -3 -6 -6z"/>
<path d="M11325 6221 c-3 -6 -40 -17 -83 -26 -124 -26 -242 -57 -248 -67 -3
-4 -15 -8 -27 -8 -12 0 -44 -13 -72 -29 -27 -16 -68 -38 -90 -49 -22 -11 -51
-31 -64 -46 -21 -22 -33 -26 -80 -26 -42 0 -66 -7 -96 -25 -22 -14 -52 -30
-67 -37 -16 -7 -28 -16 -28 -20 0 -4 -4 -8 -9 -8 -19 0 -118 -72 -173 -126
l-57 -56 22 -18 c18 -15 23 -16 25 -4 2 8 16 14 33 14 l29 0 0 -185 0 -185
-30 0 -30 0 0 66 c0 59 -2 65 -17 58 -10 -5 -42 -9 -70 -9 -29 -1 -55 -4 -59
-8 -4 -3 1 -39 11 -79 30 -124 90 -232 180 -326 l59 -62 897 0 896 0 -9 61
c-7 41 -6 64 1 73 14 16 4 46 -14 46 -8 0 -15 12 -17 28 -2 15 -7 26 -13 25
-6 -1 -11 45 -12 115 -2 65 -6 139 -11 167 l-7 50 -22 -38 c-25 -41 -55 -57
-109 -57 -75 0 -124 51 -124 130 0 84 45 130 127 130 l52 0 -9 31 c-5 18 -16
39 -23 48 -8 9 -19 30 -26 48 -7 18 -18 31 -25 30 -6 -1 -12 10 -14 26 -2 18
-9 27 -21 27 -12 0 -22 13 -30 41 -14 45 -34 58 -63 40 -17 -11 -24 -8 -49 20
-31 35 -35 44 -19 54 20 12 -3 27 -31 21 -23 -4 -32 -1 -45 19 -9 14 -22 25
-29 25 -7 0 -18 7 -25 15 -8 9 -30 15 -56 15 -24 0 -44 4 -44 9 0 5 -8 12 -17
15 -10 4 -36 17 -58 30 -41 25 -99 34 -110 17z m335 -342 c0 -4 -7 -6 -15 -3
-8 4 -15 10 -15 15 0 4 7 6 15 3 8 -4 15 -10 15 -15z m150 -134 c0 -24 -2 -25
-70 -25 l-70 0 0 -50 0 -50 65 0 c63 0 65 -1 65 -25 0 -24 -2 -25 -65 -25
l-65 0 0 -70 0 -70 -30 0 -30 0 0 139 c0 76 -3 153 -6 170 l-6 31 106 0 106 0
0 -25z m-1340 -147 c0 -51 4 -99 9 -106 5 -8 22 -12 42 -10 45 4 59 34 59 131
l0 77 30 0 30 0 0 -130 0 -130 -24 0 c-13 0 -27 7 -30 16 -5 14 -8 14 -28 0
-27 -19 -97 -20 -121 -2 -26 20 -37 69 -37 163 l0 83 35 0 35 0 0 -92z m425
67 c23 -23 25 -31 25 -130 l0 -105 -25 0 c-16 0 -25 6 -25 15 0 8 -4 15 -9 15
-5 0 -14 -7 -21 -15 -16 -20 -89 -20 -117 0 -26 18 -38 67 -23 94 16 30 63 51
115 51 46 0 54 10 36 39 -7 10 -23 13 -64 8 -53 -5 -67 1 -67 29 0 11 49 23
98 23 43 1 57 -3 77 -24z m149 9 c5 -14 8 -14 28 0 23 16 88 22 88 9 -1 -24
-14 -52 -22 -47 -17 10 -69 -18 -79 -43 -5 -13 -9 -56 -9 -94 l0 -69 -30 0
-30 0 0 130 0 130 24 0 c13 0 27 -7 30 -16z m336 -11 c23 -20 33 -40 37 -70
l6 -43 -91 0 -91 0 11 -30 c12 -35 40 -45 104 -36 41 5 44 4 44 -18 0 -13 -7
-27 -16 -30 -29 -11 -115 -6 -143 9 -52 26 -74 105 -50 174 25 71 132 95 189
44z"/>
<path d="M10778 5539 c-10 -5 -18 -21 -18 -34 0 -22 5 -25 34 -25 38 0 66 21
66 51 0 15 -7 19 -32 19 -18 0 -41 -5 -50 -11z"/>
<path d="M11272 5634 c-40 -28 -28 -44 32 -44 50 0 54 2 49 21 -3 11 -17 25
-30 30 -30 11 -25 12 -51 -7z"/>
<path d="M10175 5604 c-30 -73 -12 -124 44 -124 39 0 56 25 56 80 0 56 -17 80
-56 80 -24 0 -31 -7 -44 -36z"/>
<path d="M11914 5604 c-18 -43 -10 -100 17 -114 27 -15 65 -12 80 7 8 9 14 37
14 63 0 58 -17 80 -62 80 -30 0 -36 -5 -49 -36z"/>
<path d="M8573 5385 c-36 -10 -66 -12 -103 -6 -146 23 -324 -71 -458 -242 -39
-51 -102 -157 -102 -173 0 -2 293 -4 651 -4 l650 0 -37 68 c-74 134 -96 162
-184 233 -51 42 -178 109 -204 109 -9 0 -25 4 -34 9 -33 18 -126 21 -179 6z"/>
<path d="M12579 4943 c-11 -13 -14 -68 -14 -263 0 -195 3 -250 14 -263 12 -15
45 -17 291 -17 256 0 278 1 293 18 15 16 17 50 17 264 0 225 -2 246 -18 261
-16 15 -52 17 -294 17 -244 0 -277 -2 -289 -17z m334 -169 c31 -30 41 -71 28
-106 -8 -22 -5 -30 20 -54 16 -15 29 -34 29 -41 0 -22 -35 -15 -60 12 -21 22
-30 25 -66 19 -79 -11 -134 44 -120 120 14 74 115 104 169 50z"/>
<path d="M12805 4746 c-30 -30 -32 -59 -5 -86 40 -40 103 -12 103 46 0 29 -17
49 -50 59 -17 4 -29 -1 -48 -19z"/>
<path d="M8550 4680 c0 -53 4 -90 10 -90 6 0 10 22 10 48 0 26 6 54 13 61 10
11 10 13 0 7 -9 -5 -13 3 -13 28 0 20 -4 36 -10 36 -6 0 -10 -37 -10 -90z"/>
<path d="M8780 4755 c-8 -10 -12 -42 -11 -87 2 -89 11 -105 11 -20 0 49 3 61
18 65 16 4 16 5 0 6 -24 1 -22 17 4 35 17 12 18 16 6 16 -8 0 -21 -7 -28 -15z"/>
<path d="M5990 4675 l0 -85 48 1 47 2 -40 6 c-36 5 -40 9 -43 39 -3 31 -3 32
40 33 l43 2 -40 6 c-36 5 -40 9 -40 36 0 27 4 31 40 36 l40 6 -47 2 -48 1 0
-85z"/>
<path d="M9152 4673 c1 -49 3 -72 5 -52 4 32 7 36 46 45 38 8 42 12 45 42 3
27 -1 34 -23 42 -14 6 -37 10 -51 10 -24 0 -24 -1 -22 -87z m69 67 c27 -15 24
-48 -5 -62 -35 -15 -56 -4 -56 30 0 43 20 53 61 32z"/>
<path d="M9335 4748 c-31 -16 -45 -39 -45 -71 0 -59 44 -94 102 -82 25 6 28
11 28 46 0 36 -2 39 -27 38 -27 0 -27 -1 -5 -9 28 -12 31 -56 3 -65 -25 -8
-68 10 -80 34 -16 29 -13 56 8 82 15 19 28 24 63 23 30 -1 37 1 23 7 -28 11
-47 10 -70 -3z"/>
<path d="M7669 4730 c-3 -46 4 -117 13 -127 6 -7 18 -13 27 -12 11 0 9 3 -6 9
-20 8 -23 17 -23 60 0 45 2 50 23 51 20 1 20 2 2 6 -11 3 -23 10 -27 17 -5 7
-8 6 -9 -4z"/>
<path d="M6269 4721 c0 -3 0 -28 1 -56 2 -54 13 -75 38 -75 12 0 11 4 -6 16
-17 12 -22 25 -22 59 0 38 3 44 23 47 20 3 20 4 -5 9 -16 4 -28 3 -29 0z"/>
<path d="M7399 4721 c0 -3 0 -28 1 -56 2 -54 13 -75 38 -75 12 0 11 4 -6 16
-17 12 -22 25 -22 59 0 38 3 44 23 47 20 3 20 4 -5 9 -16 4 -28 3 -29 0z"/>
<path d="M6121 4655 c2 -65 2 -66 8 -24 4 26 13 55 21 65 11 13 12 16 1 10 -8
-5 -17 -3 -22 5 -5 9 -8 -13 -8 -56z"/>
<path d="M6188 4708 c18 -9 22 -20 24 -67 l2 -56 3 55 c3 43 1 57 -13 67 -10
7 -23 13 -28 12 -6 0 -1 -5 12 -11z"/>
<path d="M6372 4704 c-53 -37 -6 -134 51 -106 21 11 21 11 -4 6 -17 -4 -32 0
-43 11 -26 26 -19 35 29 35 51 0 59 16 25 50 -24 24 -29 24 -58 4z m52 -10
c25 -25 19 -34 -24 -34 -43 0 -55 20 -22 39 23 14 28 14 46 -5z"/>
<path d="M6492 4655 c1 -47 3 -55 5 -25 3 34 10 50 31 67 15 13 22 23 16 23
-6 0 -18 -7 -25 -16 -12 -14 -14 -14 -20 3 -4 10 -7 -13 -7 -52z"/>
<path d="M6641 4715 c-1 -5 8 -34 19 -63 26 -67 25 -87 -2 -106 -22 -16 -14
-23 9 -8 14 9 78 171 70 178 -3 3 -13 -19 -23 -50 -10 -31 -20 -56 -23 -56 -4
0 -16 26 -28 58 -12 31 -22 53 -22 47z"/>
<path d="M6792 4704 c-54 -38 -6 -133 53 -106 47 22 30 122 -20 122 -6 0 -21
-7 -33 -16z m56 -6 c17 -17 15 -73 -3 -88 -12 -10 -21 -10 -40 -2 -20 9 -25
19 -25 46 0 46 40 72 68 44z"/>
<path d="M6912 4673 c-3 -69 26 -100 68 -73 9 6 17 5 22 -3 4 -7 7 20 6 58 -2
62 -2 64 -5 18 -3 -39 -9 -56 -23 -63 -39 -21 -55 0 -63 80 -3 26 -4 21 -5
-17z"/>
<path d="M7063 4655 c0 -38 2 -56 4 -40 7 61 14 75 41 89 15 9 22 15 17 16 -6
0 -20 -7 -32 -15 -20 -14 -22 -13 -26 2 -3 10 -5 -13 -4 -52z"/>
<path d="M7242 4704 c-33 -23 -27 -83 10 -104 22 -12 30 -12 40 -2 11 11 10
12 -4 7 -30 -12 -58 12 -58 50 0 38 26 60 56 48 12 -4 15 -3 10 5 -10 16 -27
15 -54 -4z"/>
<path d="M7343 4655 c0 -38 2 -53 4 -32 2 20 2 52 0 70 -2 17 -4 1 -4 -38z"/>
<path d="M7476 4700 c4 -14 13 -38 20 -55 11 -24 13 -25 8 -5 -4 14 -13 39
-20 55 -11 24 -13 25 -8 5z"/>
<path d="M7545 4666 c-11 -31 -23 -56 -28 -56 -5 0 -6 -7 -3 -16 3 -9 -4 -25
-19 -40 -24 -24 -22 -32 3 -16 14 10 74 160 69 175 -1 5 -11 -16 -22 -47z"/>
<path d="M7772 4704 c-54 -38 -6 -133 53 -106 47 22 30 122 -20 122 -6 0 -21
-7 -33 -16z m56 -6 c17 -17 15 -73 -3 -88 -12 -10 -21 -10 -40 -2 -20 9 -25
19 -25 46 0 46 40 72 68 44z"/>
<path d="M7968 4709 c-28 -16 -21 -39 18 -55 28 -12 35 -20 31 -35 -3 -10 -1
-19 4 -19 5 0 9 10 9 23 0 17 -10 28 -35 40 -19 9 -35 21 -35 26 0 13 30 22
54 16 17 -5 18 -4 6 4 -19 13 -30 13 -52 0z"/>
<path d="M8092 4704 c-53 -37 -6 -134 51 -106 21 11 21 11 -4 6 -17 -4 -32 0
-43 11 -26 26 -19 35 29 35 51 0 59 16 25 50 -24 24 -29 24 -58 4z m52 -10
c25 -25 19 -34 -24 -34 -43 0 -55 20 -22 39 23 14 28 14 46 -5z"/>
<path d="M8258 4710 c26 -11 29 -37 5 -43 -17 -4 -17 -5 0 -6 20 -1 23 -31 5
-50 -11 -10 -10 -11 5 -6 13 6 17 19 17 55 0 47 -10 61 -43 59 -7 0 -2 -4 11
-9z"/>
<path d="M8343 4655 c0 -38 2 -56 4 -40 7 61 14 75 41 89 15 9 22 15 17 16 -6
0 -20 -7 -32 -15 -20 -14 -22 -13 -26 2 -3 10 -5 -13 -4 -52z"/>
<path d="M8464 4710 c-12 -5 -24 -20 -28 -34 -13 -54 31 -101 71 -76 16 10 15
10 -4 5 -24 -7 -63 24 -63 50 0 26 39 57 63 50 17 -5 19 -4 7 4 -17 12 -18 12
-46 1z"/>
<path d="M8618 4708 c18 -9 22 -20 24 -67 l2 -56 3 53 c4 56 -7 83 -36 81 -11
0 -10 -3 7 -11z"/>
<path d="M8862 4704 c-44 -30 -18 -114 35 -114 22 0 53 39 53 65 0 26 -31 65
-53 65 -7 0 -23 -7 -35 -16z m65 -20 c15 -24 15 -29 2 -53 -18 -32 -41 -38
-63 -16 -20 21 -21 59 0 79 22 23 41 20 61 -10z"/>
<path d="M8992 4655 c1 -47 3 -55 5 -25 3 34 10 50 31 67 15 13 22 23 16 23
-6 0 -18 -7 -25 -16 -12 -14 -14 -14 -20 3 -4 10 -7 -13 -7 -52z"/>
<path d="M9478 4709 c-28 -16 -21 -39 18 -55 28 -12 35 -20 31 -35 -3 -10 -1
-19 4 -19 5 0 9 10 9 23 0 17 -10 28 -35 40 -19 9 -35 21 -35 26 0 13 30 22
54 16 17 -5 18 -4 6 4 -19 13 -30 13 -52 0z"/>
<path d="M8203 4644 c-8 -22 9 -48 33 -51 16 -2 15 -1 -3 9 -26 12 -29 28 -11
46 9 9 9 12 0 12 -7 0 -15 -7 -19 -16z"/>
<path d="M7960 4600 c8 -5 22 -9 30 -9 10 0 8 3 -5 9 -27 12 -43 12 -25 0z"/>
<path d="M9470 4600 c8 -5 22 -9 30 -9 10 0 8 3 -5 9 -27 12 -43 12 -25 0z"/>
<path d="M500 4291 c0 -13 28 -33 41 -29 6 2 0 12 -15 21 -14 10 -26 13 -26 8z"/>
<path d="M996 4272 c-3 -6 -1 -14 5 -17 15 -10 25 3 12 16 -7 7 -13 7 -17 1z"/>
<path d="M557 3948 c-15 -40 -15 -47 -1 -59 20 -17 23 -10 14 36 -5 28 -9 35
-13 23z"/>
<path d="M870 3780 c0 -21 4 -30 13 -27 6 2 12 14 12 27 0 13 -6 25 -12 28 -9
2 -13 -7 -13 -28z"/>
<path d="M18647 3713 c-19 -22 -34 -93 -19 -93 10 0 45 100 38 107 -1 2 -10
-5 -19 -14z"/>
<path d="M18368 3677 c-22 -23 -32 -57 -20 -69 12 -12 45 45 40 69 -3 15 -5
15 -20 0z"/>
<path d="M535 3639 c12 -39 27 -48 23 -15 -2 16 -9 31 -17 34 -10 3 -11 -2 -6
-19z"/>
<path d="M9506 3575 c-3 -10 -2 -23 4 -29 15 -15 24 1 13 26 -9 20 -10 20 -17
3z"/>
<path d="M18638 3543 c-11 -10 -18 -13 -18 -5 0 19 -18 14 -30 -8 -6 -11 -15
-73 -20 -137 -5 -65 -12 -136 -15 -158 -6 -38 -5 -39 9 -21 15 19 16 17 16
-25 -1 -70 -18 -263 -36 -399 -9 -69 -20 -152 -24 -185 -4 -33 -21 -166 -37
-295 -17 -129 -30 -244 -30 -255 0 -11 -3 -28 -8 -37 -6 -15 -2 -18 24 -18
l31 0 0 58 c0 31 5 84 10 117 5 33 14 107 20 165 6 58 15 137 20 175 45 325
68 542 75 705 3 74 13 172 21 218 8 45 14 92 12 103 -3 19 -4 19 -20 2z"/>
<path d="M18298 3518 c-24 -37 -47 -116 -73 -249 -13 -68 -31 -144 -39 -169
-15 -41 -15 -43 0 -25 33 41 64 124 84 225 12 58 28 133 36 168 17 69 15 85
-8 50z"/>
<path d="M9541 3504 c0 -11 3 -14 6 -6 3 7 2 16 -1 19 -3 4 -6 -2 -5 -13z"/>
<path d="M16257 3366 c-4 -10 -1 -13 9 -9 7 3 14 9 14 14 0 14 -17 10 -23 -5z"/>
<path d="M16125 3350 c-18 -8 -17 -9 8 -9 15 -1 27 4 27 9 0 12 -8 12 -35 0z"/>
<path d="M18887 3071 c-67 -157 -107 -268 -107 -294 0 -45 29 0 85 129 33 76
66 149 73 162 8 13 12 47 10 82 l-3 59 -58 -138z"/>
<path d="M18533 3154 c-15 -49 -16 -74 -3 -74 11 0 23 58 18 91 -2 20 -5 17
-15 -17z"/>
<path d="M735 3170 c-3 -5 -1 -10 4 -10 6 0 11 5 11 10 0 6 -2 10 -4 10 -3 0
-8 -4 -11 -10z"/>
<path d="M18251 3141 c-21 -41 -44 -133 -61 -246 -5 -33 -18 -121 -30 -195
-20 -129 -38 -253 -61 -425 -6 -44 -12 -111 -13 -150 -2 -38 -6 -82 -10 -97
-7 -25 -6 -28 16 -28 22 0 26 6 35 58 6 31 7 64 3 72 -5 8 0 78 11 155 33 244
48 347 64 445 8 52 20 124 25 160 6 35 19 114 30 174 11 60 18 111 16 114 -3
2 -14 -14 -25 -37z"/>
<path d="M770 3160 c-12 -8 -11 -10 8 -10 12 0 22 5 22 10 0 13 -11 13 -30 0z"/>
<path d="M18501 3033 c-31 -78 -52 -224 -71 -508 -5 -77 -21 -198 -36 -270
-15 -71 -27 -153 -28 -180 -1 -28 -5 -56 -10 -63 -5 -9 3 -12 28 -12 l36 0 -1
58 c-1 31 10 125 24 207 14 83 33 263 42 400 9 138 21 281 26 319 10 76 7 91
-10 49z"/>
<path d="M18141 3012 c-26 -50 -63 -185 -85 -317 -28 -167 -74 -518 -73 -555
1 -14 -2 -51 -7 -82 -7 -54 -6 -58 12 -58 17 0 22 11 32 70 7 39 9 78 6 86 -3
9 1 62 9 117 8 56 22 152 31 212 31 219 55 362 75 448 21 86 21 118 0 79z"/>
<path d="M17706 2677 c-22 -28 -52 -88 -68 -131 -16 -43 -33 -87 -39 -97 -5
-10 -14 -60 -19 -111 -20 -194 -31 -260 -45 -288 -19 -36 -19 -50 -1 -50 17 0
58 109 67 180 3 30 12 102 19 160 7 58 19 123 27 145 8 22 25 68 37 102 12 35
27 68 34 75 16 16 15 -2 -2 -38 -8 -16 -19 -72 -26 -124 -6 -52 -15 -115 -20
-140 -18 -91 -52 -236 -62 -265 -25 -74 -27 -95 -9 -95 19 0 65 140 75 225 3
28 14 77 24 110 20 63 44 227 48 333 1 34 1 62 1 62 -1 0 -20 -24 -41 -53z"/>
<path d="M16940 2341 c0 -5 -38 -49 -84 -99 -93 -99 -109 -128 -81 -148 23
-17 35 -9 35 20 0 13 14 36 34 54 19 17 49 58 66 91 18 33 36 58 41 55 5 -3 9
4 9 15 0 12 -4 21 -10 21 -5 0 -10 -4 -10 -9z"/>
<path d="M17512 2257 c-8 -9 -16 -55 -19 -107 -3 -50 -10 -93 -15 -96 -4 -3
-8 -16 -8 -30 0 -17 5 -24 20 -24 15 0 20 7 20 29 0 15 5 42 10 58 6 16 10 65
8 108 -3 66 -5 76 -16 62z"/>
<path d="M6490 2110 c0 -5 5 -10 10 -10 6 0 10 5 10 10 0 6 -4 10 -10 10 -5 0
-10 -4 -10 -10z"/>
<path d="M6500 2042 c0 -15 28 -47 35 -40 8 8 -13 48 -25 48 -6 0 -10 -4 -10
-8z"/>
<path d="M6325 2010 c-4 -6 5 -10 19 -10 14 0 26 5 26 10 0 6 -9 10 -19 10
-11 0 -23 -4 -26 -10z"/>
<path d="M8789 654 c-15 -18 -2 -47 24 -52 25 -5 40 33 21 52 -19 20 -28 20
-45 0z"/>
<path d="M9992 661 c-8 -4 -12 -19 -10 -32 2 -18 9 -24 28 -24 19 0 26 6 28
24 3 20 -11 41 -28 41 -3 0 -11 -4 -18 -9z"/>
<path d="M10349 654 c-15 -18 -2 -47 24 -52 25 -5 40 33 21 52 -19 20 -28 20
-45 0z"/>
<path d="M7980 465 l0 -195 25 0 25 0 0 162 c0 89 3 159 6 156 3 -3 29 -75 58
-159 48 -139 56 -154 78 -157 23 -3 27 4 51 70 15 40 41 114 59 163 l33 90 3
-162 2 -163 25 0 25 0 0 196 0 195 -41 -3 -42 -3 -51 -147 c-28 -81 -54 -150
-58 -153 -5 -5 -69 163 -98 263 -13 41 -14 42 -57 42 l-43 0 0 -195z"/>
<path d="M9721 644 c-49 -26 -82 -82 -88 -153 -7 -80 10 -141 53 -182 30 -29
42 -34 99 -37 87 -6 115 2 115 32 0 23 -2 24 -63 19 -40 -4 -72 -1 -86 6 -78
42 -83 217 -6 267 20 13 39 16 90 11 53 -5 64 -3 69 10 11 27 -11 37 -82 41
-48 2 -76 -2 -101 -14z"/>
<path d="M10152 591 c-6 -16 -20 -34 -31 -41 -27 -14 -27 -40 -1 -40 19 0 20
-7 20 -100 0 -123 11 -140 90 -140 46 0 50 2 50 24 0 19 -4 22 -25 18 -45 -8
-55 12 -55 109 l0 89 40 0 c36 0 40 3 40 25 0 23 -4 25 -40 25 -38 0 -40 2
-40 30 0 41 -34 42 -48 1z"/>
<path d="M8502 550 c-19 -8 -21 -13 -12 -30 9 -16 15 -18 36 -10 39 15 79 12
97 -8 33 -36 22 -49 -50 -57 -55 -6 -72 -12 -96 -36 -25 -26 -29 -35 -24 -67
4 -20 16 -45 28 -54 30 -25 99 -24 133 3 l27 21 6 -21 c3 -12 13 -21 24 -21
18 0 19 9 19 120 0 115 -1 122 -25 145 -20 21 -33 25 -82 24 -32 0 -68 -4 -81
-9z m138 -165 c0 -35 -42 -75 -78 -75 -34 0 -52 16 -52 46 0 32 36 54 87 54
39 0 43 -2 43 -25z"/>
<path d="M8790 401 c0 -186 -6 -211 -50 -211 -27 0 -31 -3 -28 -22 3 -20 9
-23 47 -22 77 2 81 14 81 230 l0 184 -25 0 -25 0 0 -159z"/>
<path d="M8963 527 c-32 -30 -37 -41 -41 -90 -9 -107 40 -167 135 -167 49 0
59 4 88 33 60 60 57 179 -6 231 -25 21 -41 26 -85 26 -48 0 -59 -4 -91 -33z
m147 -33 c10 -10 15 -35 15 -79 0 -72 -11 -91 -62 -101 -26 -5 -37 -1 -57 19
-22 22 -26 35 -26 82 0 47 4 60 26 82 20 20 31 24 57 19 17 -4 39 -13 47 -22z"/>
<path d="M9270 415 l0 -145 25 0 c25 0 25 1 25 85 0 46 5 95 11 108 12 26 47
47 78 47 17 0 31 18 31 41 0 20 -67 9 -90 -16 -25 -27 -40 -25 -40 6 0 12 -7
19 -20 19 -19 0 -20 -7 -20 -145z"/>
<path d="M9980 415 l0 -145 30 0 30 0 0 145 0 145 -30 0 -30 0 0 -145z"/>
<path d="M10350 415 l0 -145 25 0 25 0 0 145 0 145 -25 0 -25 0 0 -145z"/>
<path d="M10545 549 c-43 -22 -60 -60 -60 -137 0 -72 1 -74 37 -108 34 -31 43
-34 99 -34 70 0 99 12 99 41 0 16 -4 19 -17 14 -10 -4 -39 -10 -65 -12 -40 -5
-50 -2 -72 20 -14 15 -26 35 -26 47 0 19 6 20 96 20 l97 0 -5 52 c-7 71 -47
108 -116 107 -26 0 -56 -5 -67 -10z m108 -46 c8 -10 17 -27 19 -38 3 -18 -3
-20 -64 -23 -63 -3 -68 -1 -68 18 0 50 79 80 113 43z"/>
<path d="M10818 540 c-30 -23 -36 -57 -17 -91 5 -11 39 -34 75 -51 66 -31 79
-53 49 -78 -15 -13 -82 -10 -117 5 -14 6 -18 2 -18 -18 0 -30 16 -37 85 -37
67 0 100 15 115 51 21 49 2 78 -76 118 -38 20 -69 42 -69 50 0 27 31 36 84 25
46 -9 50 -9 55 10 3 11 3 22 0 25 -3 3 -35 7 -72 9 -57 3 -71 1 -94 -18z"/>
<path d="M19045 110 l29 -30 28 27 c15 15 28 28 28 30 0 2 -26 3 -57 3 l-57 0
29 -30z"/>
</g>
</svg>
