<?xml version="1.0" standalone="no"?>
<!DOCTYPE svg PUBLIC "-//W3C//DTD SVG 20010904//EN"
 "http://www.w3.org/TR/2001/REC-SVG-20010904/DTD/svg10.dtd">
<svg version="1.0" xmlns="http://www.w3.org/2000/svg"
 width="1898.000000pt" height="882.000000pt" viewBox="0 0 1898.000000 882.000000"
 preserveAspectRatio="xMidYMid meet">

<g transform="translate(0.000000,882.000000) scale(0.100000,-0.100000)"
fill="#000000" stroke="none">
<path d="M17510 8622 c-117 -31 -202 -96 -215 -165 -4 -18 -5 -101 -3 -184 3
-173 7 -183 92 -240 94 -64 114 -67 498 -71 372 -3 424 1 517 43 66 31 108 68
127 112 17 40 19 317 3 360 -24 65 -108 121 -221 148 -97 23 -708 20 -798 -3z
m806 -12 c98 -25 167 -70 194 -126 17 -34 20 -61 20 -184 0 -172 -12 -206 -87
-257 -93 -63 -164 -73 -528 -73 -361 0 -431 9 -526 71 -76 49 -89 85 -89 259
0 174 13 210 89 259 95 61 158 70 522 70 295 1 333 -1 405 -19z"/>
<path d="M17480 8341 c-34 -33 -38 -66 -15 -111 16 -31 65 -48 104 -35 35 11
24 21 -18 17 -71 -7 -104 56 -60 113 18 22 28 26 61 23 23 -2 37 0 35 7 -2 5
-20 11 -40 13 -30 3 -43 -2 -67 -27z"/>
<path d="M17960 8340 c0 -11 -7 -20 -15 -20 -8 0 -15 -4 -15 -10 0 -5 7 -10
14 -10 11 0 16 -15 18 -52 3 -46 6 -53 26 -56 12 -2 22 1 22 7 0 6 -7 11 -15
11 -11 0 -15 12 -15 45 0 33 4 45 15 45 8 0 15 5 15 10 0 6 -7 10 -15 10 -8 0
-15 9 -15 20 0 11 -4 20 -10 20 -5 0 -10 -9 -10 -20z"/>
<path d="M18335 8345 c-5 -11 -13 -23 -19 -27 -8 -6 -7 -10 1 -16 6 -4 13 -30
15 -57 3 -43 6 -50 26 -53 12 -2 22 1 22 7 0 6 -7 11 -15 11 -11 0 -15 12 -15
45 0 33 4 45 15 45 8 0 15 5 15 10 0 6 -6 10 -14 10 -8 0 -16 10 -19 23 -3 21
-4 21 -12 2z"/>
<path d="M17640 8300 c-11 -11 -20 -31 -20 -45 0 -14 9 -34 20 -45 11 -11 31
-20 45 -20 14 0 34 9 45 20 11 11 20 31 20 45 0 14 -9 34 -20 45 -11 11 -31
20 -45 20 -14 0 -34 -9 -45 -20z m78 -12 c28 -28 7 -78 -33 -78 -27 0 -45 18
-45 45 0 27 18 45 45 45 12 0 26 -5 33 -12z"/>
<path d="M17790 8255 c0 -74 17 -89 22 -19 3 50 22 72 52 61 12 -5 16 -19 16
-57 0 -27 5 -50 10 -50 13 0 13 86 0 111 -12 21 -50 25 -68 7 -9 -9 -12 -9
-12 0 0 7 -4 12 -10 12 -6 0 -10 -28 -10 -65z"/>
<path d="M18063 8313 c-26 -10 -12 -19 22 -15 49 6 49 -24 0 -34 -22 -4 -37
-13 -40 -26 -12 -37 35 -64 63 -36 9 9 12 9 12 0 0 -7 5 -12 10 -12 14 0 12
104 -2 118 -12 12 -43 15 -65 5z m55 -80 c-4 -22 -58 -31 -58 -10 0 20 10 27
37 27 18 0 24 -5 21 -17z"/>
<path d="M18200 8293 c-35 -44 -8 -103 46 -103 13 0 26 5 29 10 4 6 -6 10 -24
10 -39 0 -58 31 -42 66 8 18 19 24 41 24 18 0 29 4 25 10 -12 20 -53 10 -75
-17z"/>
<path d="M358 8496 c-36 -22 -61 -46 -78 -77 l-24 -44 24 16 c14 9 50 30 80
47 l55 30 75 -44 c41 -24 78 -44 83 -44 5 0 7 12 5 26 -2 20 -20 36 -85 74
l-81 48 -54 -32z"/>
<path d="M460 8522 c0 -6 29 -27 65 -47 l65 -36 0 -94 c0 -52 3 -95 6 -95 3 0
14 5 25 10 17 10 19 22 19 109 l0 99 -47 27 c-51 29 -133 45 -133 27z"/>
<path d="M328 8404 l-78 -46 0 -66 c1 -53 6 -75 25 -107 l25 -40 0 92 0 92 81
47 c74 43 80 49 63 61 -25 19 -30 17 -116 -33z"/>
<path d="M658 8350 l-3 -85 -77 -45 c-43 -25 -78 -48 -78 -52 0 -4 9 -12 20
-18 17 -9 34 -3 103 37 l82 49 3 59 c2 49 -2 67 -22 100 l-25 40 -3 -85z"/>
<path d="M907 8423 c-4 -3 -7 -24 -7 -46 0 -31 8 -49 40 -87 44 -52 52 -90 21
-90 -13 0 -21 8 -23 23 -2 12 -10 22 -18 22 -11 0 -15 -11 -15 -40 l0 -40 43
-3 c24 -2 50 2 58 9 27 22 17 73 -24 125 -22 27 -41 59 -45 72 -4 18 -1 22 19
22 17 0 24 -6 24 -20 0 -13 7 -20 20 -20 15 0 20 7 20 28 0 15 -5 33 -12 40
-13 13 -90 17 -101 5z"/>
<path d="M1138 8295 c3 -110 6 -135 18 -135 11 0 14 24 14 135 0 122 -2 135
-17 135 -16 0 -18 -12 -15 -135z"/>
<path d="M1450 8423 c0 -5 7 -62 15 -128 8 -65 15 -123 15 -127 0 -4 11 -8 24
-8 25 0 35 20 37 75 0 26 2 27 9 10 5 -11 9 -35 9 -52 1 -28 5 -33 25 -33 30
0 32 6 46 135 6 55 13 108 16 118 4 12 0 17 -15 17 -16 0 -21 -9 -26 -57 -11
-99 -22 -107 -30 -20 -6 65 -10 77 -26 77 -14 0 -19 -10 -24 -47 -3 -27 -10
-64 -14 -83 -7 -31 -9 -24 -15 48 -7 71 -11 82 -27 82 -10 0 -19 -3 -19 -7z"/>
<path d="M16666 8411 c-4 -7 1 -11 13 -11 15 0 22 -11 30 -50 6 -28 11 -59 11
-68 0 -10 5 -23 12 -30 15 -15 168 -17 168 -2 0 6 -31 10 -74 10 -41 0 -78 5
-81 10 -4 6 20 10 64 10 82 0 104 14 115 75 10 50 1 55 -105 55 -48 0 -100 3
-117 6 -17 4 -32 1 -36 -5z"/>
<path d="M1380 8357 c0 -32 -1 -33 -36 -29 -24 3 -39 0 -45 -9 -13 -21 -11
-133 3 -147 15 -15 78 -16 78 -1 0 8 4 8 14 0 20 -17 71 -10 71 9 0 8 -10 16
-22 18 -17 3 -22 11 -25 49 -3 38 0 47 14 51 22 5 24 32 3 32 -10 0 -15 10
-15 30 0 23 -4 30 -20 30 -16 0 -20 -7 -20 -33z m2 -105 c-4 -58 -4 -58 -33
-54 -27 4 -29 7 -29 53 0 46 1 48 33 52 17 2 32 5 32 5 0 1 -1 -24 -3 -56z"/>
<path d="M14210 8302 l0 -89 39 -1 c31 -1 44 3 55 20 34 48 3 107 -49 94 -23
-6 -25 -4 -25 29 0 19 -4 35 -10 35 -6 0 -10 -36 -10 -88z m85 -12 c11 -36 -4
-62 -33 -58 -28 3 -40 32 -28 64 8 22 54 18 61 -6z"/>
<path d="M16090 8355 c0 -32 -2 -35 -24 -29 -41 10 -66 -11 -66 -55 0 -47 16
-62 64 -59 l36 3 0 88 c0 48 -2 87 -5 87 -3 0 -5 -16 -5 -35z m-4 -70 c11 -45
-37 -74 -66 -40 -20 24 3 65 35 65 18 0 26 -7 31 -25z"/>
<path d="M1657 8373 c-12 -11 -8 -23 8 -23 8 0 15 7 15 15 0 16 -12 20 -23 8z"/>
<path d="M12850 8295 c0 -50 4 -85 10 -85 6 0 10 18 10 40 l0 40 40 0 40 0 0
-40 c0 -22 5 -40 10 -40 6 0 10 35 10 85 0 50 -4 85 -10 85 -5 0 -10 -16 -10
-35 0 -34 -1 -35 -40 -35 -39 0 -40 1 -40 35 0 19 -4 35 -10 35 -6 0 -10 -35
-10 -85z"/>
<path d="M14067 8313 c-40 -103 -40 -103 -30 -103 6 0 15 11 21 25 9 20 19 25
47 25 29 0 36 -4 41 -25 3 -14 12 -25 19 -25 16 0 -43 161 -61 167 -6 2 -22
-27 -37 -64z m51 0 c10 -31 10 -33 -14 -33 -27 0 -29 6 -14 46 12 31 13 30 28
-13z"/>
<path d="M14810 8312 c0 -77 16 -102 63 -102 45 0 57 23 55 103 l-1 72 -6 -65
c-7 -76 -14 -90 -45 -90 -36 0 -46 19 -46 87 0 35 -4 63 -10 63 -6 0 -10 -29
-10 -68z"/>
<path d="M15620 8295 c0 -50 4 -85 10 -85 6 0 10 14 10 30 0 22 5 30 18 30 32
0 62 29 62 60 0 34 -23 50 -69 50 l-31 0 0 -85z m79 47 c13 -25 -5 -52 -34
-52 -22 0 -25 5 -25 35 0 31 3 35 25 35 13 0 29 -8 34 -18z"/>
<path d="M14655 8353 c-4 -13 -12 -23 -18 -23 -7 0 -7 -4 1 -12 7 -7 12 -25
12 -41 0 -36 16 -67 35 -67 19 0 19 16 0 24 -9 3 -15 19 -15 41 0 24 4 35 15
35 8 0 15 5 15 10 0 6 -6 10 -14 10 -8 0 -17 10 -19 23 l-4 22 -8 -22z"/>
<path d="M16425 8355 c-5 -11 -13 -23 -19 -27 -8 -6 -7 -10 1 -16 6 -4 13 -28
15 -52 2 -38 7 -46 26 -48 12 -2 22 1 22 7 0 6 -7 11 -15 11 -22 0 -20 69 3
86 16 12 16 13 0 14 -9 0 -18 10 -21 23 -3 21 -4 21 -12 2z"/>
<path d="M328 8329 c-15 -8 -18 -25 -18 -107 l0 -97 54 -28 c40 -21 65 -27 97
-25 l44 3 -72 40 -73 40 0 93 c0 50 -3 92 -7 92 -5 0 -16 -5 -25 -11z"/>
<path d="M1034 8317 c-3 -8 -4 -45 -2 -83 l3 -69 40 0 c30 0 41 4 43 18 3 13
-3 17 -28 17 -21 0 -30 4 -27 13 3 11 7 13 43 16 12 1 14 11 12 49 -3 47 -3
47 -41 50 -25 2 -39 -1 -43 -11z m56 -37 c0 -11 -6 -20 -14 -20 -7 0 -16 9
-19 20 -4 15 0 20 14 20 12 0 19 -7 19 -20z"/>
<path d="M1186 8315 c-12 -32 -6 -132 8 -144 22 -18 80 -10 84 12 3 14 -4 17
-33 17 -40 0 -46 24 -6 26 33 2 43 17 39 60 -3 38 -4 39 -44 42 -31 2 -43 -1
-48 -13z m62 -38 c2 -12 -3 -17 -17 -17 -15 0 -21 6 -21 21 0 25 33 22 38 -4z"/>
<path d="M1652 8248 c2 -54 7 -83 16 -86 9 -3 12 18 12 82 0 71 -3 86 -15 86
-13 0 -15 -14 -13 -82z"/>
<path d="M1707 8323 c-18 -18 -6 -63 23 -85 39 -28 38 -41 -1 -33 -28 6 -30 5
-27 -17 2 -18 10 -24 36 -26 68 -7 85 50 27 89 -36 25 -46 49 -20 49 8 0 15
-4 15 -10 0 -5 9 -10 20 -10 22 0 26 20 8 38 -13 13 -70 17 -81 5z"/>
<path d="M1814 8317 c-3 -8 -4 -45 -2 -83 l3 -69 33 -3 c34 -3 66 13 56 29 -3
5 -19 9 -35 9 -36 0 -35 23 0 25 35 3 52 45 35 89 -8 20 -82 22 -90 3z m56
-37 c0 -11 -7 -20 -15 -20 -8 0 -15 9 -15 20 0 11 7 20 15 20 8 0 15 -9 15
-20z"/>
<path d="M13038 8319 c-26 -15 -25 -85 1 -99 46 -24 91 2 91 53 0 47 -48 72
-92 46z m67 -49 c0 -31 -3 -35 -27 -38 -34 -4 -54 27 -38 59 8 14 19 19 38 17
24 -3 27 -7 27 -38z"/>
<path d="M13170 8268 c0 -69 18 -78 22 -10 3 40 6 47 26 50 20 3 22 0 22 -47
0 -28 5 -51 10 -51 6 0 10 17 10 38 0 46 12 65 36 60 15 -2 20 -14 22 -51 4
-57 22 -63 22 -6 0 67 -34 101 -68 67 -8 -8 -15 -8 -24 -1 -7 6 -28 10 -45 10
l-33 0 0 -59z"/>
<path d="M13395 8314 c-10 -11 -15 -29 -13 -53 2 -28 8 -38 29 -45 15 -5 35
-5 45 -1 16 7 13 9 -15 14 -51 9 -52 31 -2 31 34 0 41 3 41 19 0 44 -54 66
-85 35z m63 -21 c2 -9 -7 -13 -27 -13 -30 0 -39 9 -24 24 11 10 46 3 51 -11z"/>
<path d="M14367 8312 c-53 -58 28 -137 83 -82 24 24 25 48 4 78 -19 27 -64 29
-87 4z m78 -22 c3 -11 3 -29 0 -41 -10 -30 -69 -23 -73 9 -6 37 5 52 37 52 21
0 32 -6 36 -20z"/>
<path d="M14500 8289 c0 -62 13 -79 60 -77 l40 1 0 59 c0 69 -18 78 -22 11 -3
-44 -5 -48 -28 -48 -23 0 -25 4 -28 48 -4 57 -22 63 -22 6z"/>
<path d="M14993 8323 c-24 -9 -14 -42 17 -58 34 -18 31 -35 -6 -35 -13 0 -24
-4 -24 -10 0 -12 40 -13 58 -1 20 12 11 44 -16 56 -30 13 -28 35 3 35 14 0 25
5 25 10 0 10 -35 12 -57 3z"/>
<path d="M15760 8270 c0 -68 17 -82 22 -17 2 32 8 44 26 52 12 5 22 13 22 17
0 12 -25 9 -38 -4 -9 -9 -12 -9 -12 0 0 7 -4 12 -10 12 -6 0 -10 -27 -10 -60z"/>
<path d="M15868 8319 c-26 -15 -25 -85 1 -99 46 -24 91 2 91 53 0 47 -48 72
-92 46z m67 -49 c0 -31 -3 -35 -27 -38 -34 -4 -54 27 -38 59 8 14 19 19 38 17
24 -3 27 -7 27 -38z"/>
<path d="M16150 8281 c0 -57 12 -70 63 -68 l37 1 0 58 c0 32 -4 58 -10 58 -5
0 -10 -15 -10 -34 0 -50 -9 -66 -36 -66 -22 0 -24 4 -24 50 0 28 -4 50 -10 50
-5 0 -10 -22 -10 -49z"/>
<path d="M16306 8314 c-23 -22 -21 -81 3 -94 25 -13 61 -13 61 0 0 6 -11 10
-25 10 -31 0 -50 32 -35 60 6 12 21 20 35 20 14 0 25 5 25 10 0 16 -47 12 -64
-6z"/>
<path d="M16501 8316 c-16 -19 -3 -45 25 -52 35 -9 30 -34 -7 -34 -17 0 -28
-4 -24 -10 9 -14 48 -13 63 2 20 20 14 37 -18 53 -39 20 -38 35 1 35 17 0 28
4 24 10 -9 15 -51 12 -64 -4z"/>
<path d="M382 8189 c3 -28 12 -37 81 -77 l78 -45 47 26 c40 21 101 86 102 109
0 4 -31 -11 -69 -33 -37 -21 -73 -39 -79 -39 -6 0 -45 20 -87 45 l-76 45 3
-31z"/>
<path d="M16727 8213 c-3 -5 -2 -15 3 -22 10 -17 43 -6 38 12 -6 15 -34 22
-41 10z"/>
<path d="M16862 8203 c2 -10 10 -18 18 -18 8 0 16 8 18 18 2 12 -3 17 -18 17
-15 0 -20 -5 -18 -17z"/>
<path d="M12449 7226 c-74 -18 -139 -84 -172 -176 -16 -42 -17 -277 -17 -3113
l0 -3067 26 -65 c31 -77 95 -141 153 -151 20 -4 42 -11 48 -16 8 -7 102 -8
255 -3 134 4 1169 8 2301 10 1845 3 2061 5 2082 19 14 9 31 16 38 16 23 0 82
62 104 110 12 25 26 83 31 130 7 56 9 664 6 1785 -3 935 -4 1743 -3 1795 9
305 2 2490 -7 2525 -13 48 -29 78 -69 123 -38 43 -75 63 -145 79 -76 16 -4562
16 -4631 -1z m2686 -188 c9 -8 8 -117 -1 -167 -4 -20 -20 -53 -36 -74 -44 -56
-77 -126 -84 -180 l-7 -48 27 12 c18 9 30 9 37 2 6 -6 11 -64 12 -136 l2 -126
32 -6 c17 -3 33 -11 36 -18 3 -9 7 -9 20 1 13 11 19 11 36 0 17 -10 21 -22 19
-50 -1 -21 1 -41 5 -44 4 -4 7 61 7 144 l0 151 -37 -25 -38 -25 -18 22 c-18
22 -17 23 10 45 15 13 40 29 56 36 15 7 27 21 27 31 0 22 -29 35 -40 17 -14
-23 -33 -4 -51 52 -13 43 -15 65 -8 98 5 22 7 45 4 50 -9 15 13 48 37 56 51
17 115 -10 156 -65 31 -43 32 -141 0 -171 -26 -24 -54 -26 -66 -4 -8 14 -10
13 -15 -5 -4 -16 -1 -21 13 -21 10 0 22 -6 28 -12 18 -23 5 -356 -16 -408 -3
-8 -7 -28 -8 -45 -1 -16 -7 -57 -13 -90 -6 -33 -11 -79 -11 -102 0 -76 -52
-150 -86 -122 -8 6 -14 20 -14 30 0 26 -12 30 -36 10 -17 -14 -23 -33 -29 -92
-18 -188 -56 -282 -129 -312 -23 -9 -47 -17 -55 -17 -35 0 -152 -111 -177
-167 -17 -40 -18 -104 -1 -125 6 -9 31 -18 55 -22 30 -4 59 -20 98 -51 30 -25
60 -45 67 -45 7 0 31 -14 54 -30 49 -36 78 -108 67 -168 -9 -49 -19 -60 -49
-54 -18 3 -25 0 -25 -12 0 -9 8 -16 18 -17 10 0 12 -3 5 -6 -7 -2 -13 -9 -13
-14 0 -14 -17 -35 -72 -87 -26 -24 -52 -60 -58 -78 -14 -43 -22 -47 -155 -79
-61 -14 -119 -30 -130 -35 -11 -5 -31 -12 -45 -15 -44 -12 -144 -72 -178 -107
l-33 -34 31 -33 c24 -24 45 -35 88 -43 31 -6 89 -22 127 -35 39 -14 90 -31
115 -38 25 -8 59 -27 75 -42 17 -15 50 -43 73 -61 23 -19 40 -38 36 -43 -11
-18 -41 -8 -78 26 -21 19 -41 35 -45 35 -4 0 -40 17 -81 38 -124 62 -190 78
-190 47 0 -8 -9 -15 -19 -15 -18 0 -61 -47 -61 -67 0 -5 23 -15 50 -22 28 -7
64 -24 80 -37 15 -13 49 -28 75 -33 53 -10 59 -14 60 -44 0 -13 17 -38 41 -60
39 -35 46 -37 123 -42 72 -5 88 -3 127 16 52 27 58 55 19 96 -26 29 -19 53 16
53 10 0 30 5 44 12 21 9 29 9 41 -3 13 -14 12 -18 -6 -41 -18 -24 -19 -28 -4
-42 19 -19 17 -19 57 -3 63 26 150 42 155 29 2 -7 13 -12 25 -11 22 0 22 0 0
9 -28 12 -29 27 -3 35 19 6 29 35 11 35 -4 0 -21 12 -36 26 -28 26 -28 27 -9
41 11 8 28 11 39 8 11 -4 33 -9 49 -12 20 -4 32 -15 42 -39 7 -18 23 -35 34
-39 11 -4 20 -15 20 -26 0 -11 5 -29 11 -41 13 -25 10 -27 -37 -35 -22 -3 -46
-11 -54 -18 -8 -7 -38 -20 -66 -29 -28 -9 -60 -23 -70 -31 -10 -8 -25 -15 -32
-15 -7 0 -32 -9 -54 -20 -23 -11 -51 -20 -63 -20 -12 0 -30 -9 -40 -20 -10
-11 -27 -20 -37 -20 -12 0 -23 -11 -29 -30 -6 -17 -14 -30 -17 -30 -4 0 -25
-16 -47 -36 -22 -20 -50 -40 -62 -45 -19 -7 -23 -16 -23 -54 0 -25 -4 -45 -10
-45 -15 0 -12 -15 9 -39 11 -13 25 -19 35 -15 9 4 16 1 16 -7 0 -7 8 -30 17
-51 13 -29 22 -38 35 -35 10 3 18 1 18 -4 0 -6 15 -17 33 -25 45 -21 97 -60
116 -87 8 -12 21 -28 28 -35 7 -7 13 -20 13 -28 0 -26 30 -14 50 19 11 18 33
43 50 55 37 27 39 49 5 58 -14 3 -25 9 -25 13 1 15 17 30 43 40 15 6 27 18 27
26 0 20 70 105 86 105 6 0 23 9 37 20 46 37 81 20 47 -22 -11 -14 -17 -28 -13
-31 9 -10 55 4 85 24 14 11 33 17 40 14 8 -3 23 3 33 15 10 11 24 20 32 20 8
0 26 11 41 26 15 14 39 28 55 31 15 3 30 10 33 14 3 5 16 9 29 9 13 0 27 5 30
10 3 6 22 10 40 10 38 0 63 28 43 48 -8 8 -3 13 18 18 18 5 29 3 32 -4 2 -7
12 -12 22 -12 39 0 53 -65 20 -93 -22 -18 -19 -37 5 -37 7 0 15 10 17 23 4 31
49 35 87 6 l29 -21 37 27 c20 16 45 44 56 64 11 20 26 47 34 61 23 41 45 97
45 113 0 8 15 38 34 66 19 28 31 53 26 56 -12 8 53 74 96 97 22 12 53 25 69
29 28 7 29 8 8 14 -40 13 -25 25 31 25 64 0 79 13 34 29 -49 17 -138 13 -187
-9 -24 -11 -47 -20 -52 -20 -5 0 -31 -14 -58 -30 -34 -21 -56 -45 -71 -73 -25
-51 -44 -77 -56 -77 -20 0 -90 -41 -114 -67 l-25 -28 -3 24 c-2 13 2 27 8 31
7 4 9 16 5 29 -5 16 -2 21 10 21 13 0 15 6 9 32 -3 18 -13 47 -22 65 -14 30
-14 33 9 63 13 17 53 60 89 95 73 71 131 95 184 76 34 -13 107 -14 138 -2 13
5 35 12 51 15 15 4 27 13 27 21 0 9 14 17 40 21 22 4 40 12 40 19 0 6 9 20 19
29 10 10 22 33 25 52 4 19 11 34 16 34 6 0 10 9 10 19 0 22 24 35 61 32 31 -3
59 34 59 76 0 21 8 33 31 46 29 16 33 16 50 1 16 -14 18 -14 29 6 17 32 9 64
-17 68 -30 4 -29 30 2 76 14 20 25 43 25 50 0 7 9 21 20 31 11 10 17 22 14 27
-3 5 2 18 13 30 31 34 132 108 137 99 7 -11 5 -1665 -3 -1749 l-6 -73 -40 34
c-55 46 -162 83 -281 97 -40 5 -81 13 -92 19 -12 6 -37 11 -57 11 -22 0 -34 4
-30 10 3 5 33 10 66 10 76 0 77 17 2 23 -86 7 -167 31 -171 49 -2 9 22 41 54
72 80 78 109 86 328 85 146 -1 181 2 194 14 21 21 9 43 -35 66 -35 19 -36 21
-15 27 12 3 22 10 22 14 0 7 -153 22 -210 21 -14 0 -40 2 -59 5 -31 5 -32 6
-15 20 17 14 15 14 -26 9 -40 -5 -43 -4 -27 8 9 8 17 17 17 20 0 8 -102 -4
-115 -13 -5 -3 -30 -13 -55 -20 -25 -7 -52 -20 -61 -27 -8 -7 -22 -13 -31 -13
-18 0 -43 -27 -52 -57 -6 -18 -3 -22 20 -25 15 -2 29 -8 31 -15 3 -6 -30 -46
-72 -89 -42 -42 -81 -89 -86 -104 -6 -15 -24 -34 -44 -43 -35 -17 -46 -36 -22
-38 6 -1 47 0 90 1 61 1 77 -1 77 -13 0 -8 27 -27 60 -43 76 -36 83 -64 17
-64 -43 0 -131 24 -154 43 -14 11 -131 13 -243 5 -80 -5 -140 -19 -183 -41
l-27 -14 35 -19 c19 -10 35 -24 35 -30 0 -27 -125 -43 -203 -25 -28 7 -49 5
-82 -8 -47 -18 -50 -31 -6 -32 l26 0 -23 -10 c-13 -5 -28 -7 -32 -4 -5 3 -11
1 -15 -4 -11 -18 45 -45 89 -43 28 1 48 -4 64 -17 l22 -20 -41 -55 c-30 -40
-48 -56 -65 -56 -25 0 -32 14 -13 26 8 4 8 9 0 17 -8 8 -16 7 -27 -5 -14 -13
-22 -14 -43 -5 -38 16 -182 25 -177 11 2 -6 -11 -18 -30 -27 -19 -9 -34 -22
-34 -27 0 -6 -8 -10 -17 -8 -26 4 -43 -10 -43 -37 0 -24 -17 -35 -55 -35 -13
0 -27 -4 -30 -10 -3 -5 -14 -10 -23 -10 -17 0 -23 -8 -61 -90 -12 -25 -34 -54
-50 -65 -43 -28 -70 -97 -70 -175 0 -62 20 -130 38 -130 5 0 12 -11 15 -25 8
-31 24 -33 28 -3 2 13 8 22 13 21 11 -3 19 -108 10 -132 -6 -14 -8 -14 -20 3
-15 20 -20 15 -27 -29 -2 -12 -12 -21 -26 -23 -18 -3 -22 1 -22 22 0 41 -15
37 -27 -7 -28 -103 -36 -182 -24 -236 16 -74 14 -127 -5 -146 -20 -19 -12 -29
24 -30 18 0 30 -7 37 -23 8 -19 17 -22 67 -22 37 0 62 -5 72 -15 8 -8 32 -15
54 -15 28 0 45 -7 61 -24 19 -20 21 -30 15 -75 -6 -50 7 -88 26 -76 21 13 40
-28 40 -85 0 -32 5 -62 10 -65 6 -3 10 -35 10 -70 0 -48 -4 -64 -16 -69 -23
-9 -38 3 -92 69 -26 33 -60 66 -76 73 -15 8 -30 20 -33 28 -7 19 -23 18 -23
-1 0 -8 -4 -15 -10 -15 -13 0 -13 6 1 31 13 26 -12 69 -40 69 -13 0 -21 9 -26
30 -5 23 -14 32 -43 40 -54 15 -70 12 -78 -12 -6 -19 -8 -17 -19 18 -7 21 -16
56 -19 76 -8 43 -41 70 -48 40 -3 -10 -3 -103 -1 -207 2 -105 4 -220 4 -257 1
-71 -24 -143 -49 -143 -8 0 -19 -8 -26 -17 -29 -40 -61 -5 -70 77 -4 35 -21
89 -40 130 -19 39 -36 80 -40 92 -6 19 -48 41 -93 49 -54 9 -119 26 -148 38
-39 17 -46 46 -20 80 21 28 19 53 -5 59 -16 4 -20 0 -20 -19 0 -27 -27 -34
-36 -9 -9 22 -22 18 -26 -7 -2 -15 -13 -25 -33 -31 -18 -5 -40 -23 -54 -44
-20 -32 -25 -34 -33 -19 -11 20 15 65 77 131 21 22 45 51 53 65 9 14 31 43 48
65 34 43 43 86 29 143 -5 22 -11 29 -19 23 -6 -4 -29 -14 -51 -21 -43 -14
-109 -52 -120 -70 -5 -8 -11 -8 -20 0 -17 14 -37 4 -33 -17 2 -10 -12 -21 -38
-32 -41 -16 -96 -65 -108 -98 -6 -15 -8 -15 -23 -1 -14 15 -14 19 6 44 29 36
15 47 -45 35 -71 -14 -114 -10 -114 12 0 9 7 17 16 17 11 0 15 6 11 20 -3 12
0 20 8 20 7 0 32 16 55 35 23 19 46 35 51 35 5 0 29 35 54 78 34 57 44 83 39
102 -8 36 -36 212 -36 230 3 162 5 176 34 234 26 51 29 68 25 110 -3 28 0 87
6 131 12 77 13 81 47 98 44 22 84 17 140 -18 47 -30 61 -27 36 7 -62 85 -77
114 -74 148 3 31 9 38 58 62 30 15 69 28 86 28 17 0 34 3 37 7 9 9 -19 52 -56
86 -23 20 -26 27 -14 27 9 0 26 -9 37 -20 36 -36 43 -16 37 110 -4 90 -10 127
-26 160 -12 24 -21 58 -21 74 0 47 -25 128 -56 185 -28 52 -129 154 -171 174
-13 6 -23 14 -23 19 0 4 -4 8 -10 8 -11 0 -1 -63 12 -68 4 -2 8 -17 8 -32 0
-16 5 -32 10 -35 6 -3 10 -21 10 -40 0 -19 -4 -37 -10 -40 -5 -3 -10 2 -10 12
0 11 -11 35 -25 54 -15 19 -36 54 -48 79 -12 25 -30 51 -39 58 -21 15 -23 35
-6 61 9 14 8 23 -5 42 -10 13 -17 35 -17 50 0 34 -27 59 -36 35 -4 -10 1 -25
10 -35 11 -12 16 -32 14 -60 -2 -22 -5 -41 -8 -41 -14 0 -164 118 -190 150
-16 19 -84 42 -94 32 -10 -10 -6 -61 5 -68 7 -4 16 1 21 11 9 15 12 14 28 -10
10 -16 21 -44 25 -63 4 -20 13 -36 23 -39 24 -7 114 -124 137 -180 29 -70 34
-76 50 -63 19 16 30 7 62 -48 14 -26 32 -54 39 -62 7 -9 18 -49 25 -90 6 -41
20 -93 30 -116 11 -22 19 -56 19 -75 0 -19 5 -54 11 -79 5 -24 8 -54 4 -67 -4
-19 -9 -21 -33 -12 -39 14 -101 127 -102 186 0 12 -11 34 -23 50 -13 15 -28
36 -33 45 -14 26 -35 7 -50 -48 -8 -32 -13 -40 -14 -24 0 24 -25 66 -84 142
-23 31 -33 37 -52 32 -15 -4 -24 -2 -24 5 0 6 5 11 10 11 6 0 10 7 10 15 0 16
-29 10 -42 -9 -10 -13 -28 11 -28 36 0 15 -4 16 -26 8 -35 -14 -37 -13 -32 15
3 16 -1 29 -11 37 -9 7 -13 9 -10 5 4 -4 -5 -21 -19 -37 -30 -34 -36 -29 -47
44 -3 27 -9 55 -12 62 -3 9 2 14 16 14 17 0 21 6 22 33 2 88 -4 146 -22 192
-10 27 -19 62 -19 77 0 33 -24 48 -77 48 -29 0 -42 6 -53 23 -38 59 -45 81
-42 135 2 23 22 32 22 8 0 -7 7 -19 15 -26 8 -7 15 -23 15 -35 0 -24 22 -49
33 -38 24 23 -9 179 -49 238 -8 11 -14 33 -14 50 l0 30 40 -42 c21 -24 44 -43
51 -43 17 0 2 108 -21 147 -12 20 -15 35 -9 39 15 9 39 -3 39 -20 0 -9 8 -20
19 -25 22 -12 38 -109 23 -138 -6 -11 -6 -27 0 -43 16 -44 27 -3 24 100 -2 83
-5 101 -24 125 -12 15 -22 34 -22 41 0 7 -13 20 -29 28 -38 20 -50 49 -17 40
16 -4 30 0 43 13 15 16 18 39 21 168 4 144 14 204 32 175 6 -9 10 -6 15 9 4
15 1 29 -10 41 -12 13 -13 20 -4 25 8 6 10 37 6 111 -2 57 -2 104 2 104 19 0
32 -32 52 -122 18 -80 25 -96 35 -86 19 20 20 102 2 140 -65 136 -89 186 -97
209 -11 30 3 92 26 120 7 8 13 23 13 32 0 9 4 17 8 17 12 0 78 90 108 146 43
79 86 223 92 303 4 57 7 69 15 55 13 -23 16 -225 3 -242 -5 -7 -11 -25 -12
-39 -2 -14 -8 -29 -14 -33 -8 -5 -9 -21 -4 -46 6 -35 5 -38 -8 -26 -13 10 -17
10 -20 0 -3 -7 -1 -20 3 -28 4 -8 11 -36 14 -62 5 -39 10 -48 26 -48 10 0 46
-9 80 -21 50 -18 65 -19 89 -9 16 7 33 9 39 6 12 -8 31 -95 31 -141 0 -21 8
-43 23 -58 20 -22 22 -33 19 -101 -2 -42 -8 -76 -13 -76 -5 0 -8 18 -7 40 1
22 -2 43 -6 47 -4 4 -6 -20 -5 -53 1 -38 -6 -85 -21 -131 -19 -60 -20 -77 -11
-104 22 -64 5 -233 -28 -273 -6 -7 -14 -30 -19 -52 -6 -31 -14 -41 -37 -49
-24 -8 -29 -15 -27 -34 l4 -24 -82 6 c-45 3 -87 10 -93 16 -16 16 -47 14 -53
-3 -7 -19 13 -56 31 -56 8 0 19 -9 25 -21 9 -16 18 -19 36 -15 19 5 24 2 24
-12 0 -32 79 -90 123 -90 15 0 36 -7 46 -16 10 -9 21 -13 24 -9 4 3 14 -2 21
-13 23 -31 30 5 12 60 -21 62 -22 233 -1 283 8 19 15 53 15 74 0 21 5 41 10
44 6 3 10 23 10 44 0 20 7 46 15 57 8 10 15 31 15 46 0 15 4 29 9 33 13 7 8
-155 -6 -180 -6 -11 -16 -45 -22 -75 -7 -30 -16 -74 -22 -98 -12 -55 -12 -99
1 -107 6 -3 10 -34 10 -69 0 -40 5 -69 15 -82 15 -18 16 -18 50 20 19 21 38
54 41 73 5 24 11 33 23 30 9 -2 15 -9 13 -15 -1 -7 5 -12 13 -12 8 0 15 -9 15
-19 0 -11 4 -23 10 -26 13 -8 50 13 50 29 0 8 7 19 15 26 21 17 19 44 -6 66
-16 14 -19 25 -13 49 3 16 6 53 5 80 -1 36 6 65 24 102 14 29 25 59 25 67 0
34 45 114 103 183 95 112 129 184 176 366 24 93 47 133 116 207 75 80 145 167
145 179 0 6 12 8 30 5 34 -7 37 1 14 34 -8 12 -10 22 -5 22 6 0 11 20 11 44 0
27 6 48 15 56 10 9 12 17 6 23 -14 14 -1 78 22 108 10 15 30 32 44 38 19 9 23
16 17 29 -4 9 -10 42 -13 72 l-6 55 -92 -3 c-93 -3 -93 -3 -93 22 0 26 32 87
63 121 10 11 32 40 48 64 l29 45 -24 25 c-23 24 -24 32 -20 111 3 47 9 94 14
105 17 42 18 54 5 91 -16 45 -18 40 -15 -39 l2 -58 -64 3 -63 3 -3 47 -3 47
38 3 c33 3 38 6 35 27 -1 13 -9 29 -16 35 -8 6 -16 20 -19 31 -4 18 -5 17 -6
-3 -1 -22 -46 -72 -83 -93 -16 -8 -18 -5 -18 28 0 22 11 56 25 82 14 23 25 49
25 57 0 7 6 17 14 21 18 10 321 11 331 1z m381 -14 c-3 -9 -6 -21 -6 -27 0 -7
-7 -3 -16 8 -12 16 -18 18 -34 7 -11 -7 -30 -11 -43 -9 -12 2 -16 2 -9 0 14
-5 16 -49 2 -58 -6 -3 -13 1 -16 9 -3 9 -13 16 -21 16 -12 0 -13 3 -3 15 15
18 5 35 -21 35 -10 0 -19 5 -19 10 0 6 39 10 96 10 84 0 95 -2 90 -16z m1124
12 c0 -9 -39 -13 -51 -5 -10 6 -4 9 19 9 17 0 32 -2 32 -4z m108 -13 c-4 -22
-22 -20 -26 1 -2 10 3 16 13 16 10 0 15 -7 13 -17z m292 -3 c0 -17 -7 -20 -39
-20 -40 0 -57 11 -46 30 3 6 24 10 46 10 32 0 39 -3 39 -20z m-1571 -107 c-1
-16 -5 -41 -8 -58 l-8 -30 -13 27 c-10 22 -10 33 0 58 16 37 30 39 29 3z m824
-98 c-3 -28 -19 -74 -36 -105 -17 -30 -35 -65 -41 -77 -6 -13 -16 -23 -22 -23
-17 0 -5 89 17 126 11 17 19 43 19 57 0 14 4 28 9 31 5 3 12 18 16 33 3 15 12
31 18 35 18 11 26 -21 20 -77z m69 -68 c-6 -7 -13 -33 -17 -60 -4 -26 -11 -50
-16 -53 -5 -3 -9 -12 -9 -20 0 -8 -11 -31 -24 -52 -13 -21 -26 -47 -28 -58 -5
-18 -5 -18 -13 -1 -4 10 -3 28 3 40 6 12 25 65 42 117 18 52 39 106 48 120
l17 25 3 -23 c2 -13 -1 -28 -6 -35z m-952 -11 c0 -20 -26 -40 -35 -26 -10 16
2 40 20 40 8 0 15 -6 15 -14z m-845 -166 c3 -5 15 -10 25 -10 10 0 32 -17 47
-37 27 -35 28 -42 28 -142 0 -82 -4 -113 -18 -139 -25 -46 -72 -72 -130 -72
-42 0 -54 5 -83 34 -38 38 -42 51 -18 60 10 4 24 -5 40 -24 14 -16 34 -32 45
-35 30 -10 83 12 101 43 17 29 34 102 24 102 -4 0 -24 -9 -46 -20 -22 -11 -48
-20 -58 -20 -36 0 -87 28 -111 60 -45 62 -6 171 70 196 45 15 76 16 84 4z
m335 -35 c0 -8 -4 -15 -9 -15 -5 0 -11 7 -15 15 -3 9 0 15 9 15 8 0 15 -7 15
-15z m-1470 -58 c14 -13 35 -30 48 -36 22 -12 23 -17 20 -104 -1 -51 1 -97 4
-102 4 -6 1 -56 -6 -110 -12 -86 -20 -124 -42 -203 -2 -7 -4 -16 -5 -20 0 -4
-8 -19 -17 -34 -14 -24 -14 -30 -2 -54 13 -23 13 -27 -3 -39 -9 -7 -17 -24
-17 -38 0 -18 -10 -31 -36 -46 -20 -12 -38 -30 -41 -39 -10 -40 -129 -46 -156
-8 -13 17 -15 17 -45 2 -18 -9 -32 -14 -32 -11 0 16 35 55 45 51 27 -10 38 12
34 66 -8 103 0 234 21 327 11 52 20 107 20 122 0 15 4 30 9 33 5 4 14 39 21
79 27 169 32 187 54 192 71 15 86 12 126 -28z m1449 2 c3 -24 3 -24 -18 -5
-11 10 -18 23 -15 28 10 16 29 2 33 -23z m-101 9 c14 -14 -2 -48 -22 -48 -19
0 -29 30 -15 46 14 17 22 17 37 2z m-1998 -109 c0 -5 -4 -9 -10 -9 -5 0 -10 7
-10 16 0 8 5 12 10 9 6 -3 10 -10 10 -16z m2557 -11 c-3 -7 -5 -2 -5 12 0 14
2 19 5 13 2 -7 2 -19 0 -25z m-562 -74 c12 -12 13 -19 4 -30 -25 -30 -55 -7
-37 29 11 21 13 21 33 1z m-832 -116 c8 -28 -1 -42 -18 -28 -8 7 -18 9 -24 6
-11 -7 -20 14 -13 32 7 21 49 14 55 -10z m-25 -59 c1 -8 -4 -23 -12 -34 -15
-19 -15 -18 -16 18 0 27 4 37 13 35 6 -3 13 -11 15 -19z m946 -86 c26 -13 36
-25 36 -42 0 -20 -2 -21 -15 -11 -10 9 -19 9 -27 2 -7 -6 -26 -12 -43 -14 -22
-2 -34 -11 -45 -35 -17 -35 -57 -60 -73 -44 -6 6 -6 25 -1 48 4 21 8 45 9 53
2 28 18 51 31 46 7 -3 16 -1 19 4 10 16 71 11 109 -7z m506 -18 c0 -8 -4 -15
-10 -15 -5 0 -10 7 -10 15 0 8 5 15 10 15 6 0 10 -7 10 -15z m-703 -11 c-3 -3
-12 -4 -19 -1 -8 3 -5 6 6 6 11 1 17 -2 13 -5z m-627 -199 c0 -4 7 -22 16 -40
8 -18 14 -46 12 -62 l-4 -28 -13 30 c-8 17 -17 46 -21 65 -4 19 -11 44 -16 55
-7 19 -7 19 9 3 9 -9 17 -20 17 -23z m-53 -57 c-3 -8 -6 -5 -6 6 -1 11 2 17 5
13 3 -3 4 -12 1 -19z m100 -215 c-2 -16 -4 -3 -4 27 0 30 2 43 4 28 2 -16 2
-40 0 -55z m-1287 24 c0 -13 3 -27 8 -31 4 -4 8 -22 9 -39 1 -18 4 -45 8 -62
9 -47 -4 -58 -48 -40 -45 19 -58 55 -34 98 10 16 17 44 17 63 0 27 4 34 20 34
14 0 20 -7 20 -23z m4319 -164 c0 -169 -2 -184 -14 -153 -7 19 -14 75 -14 123
-1 68 -4 89 -16 93 -8 4 -12 11 -8 17 4 6 8 21 9 34 2 18 32 72 42 73 1 0 2
-84 1 -187z m-3007 43 c-4 -38 -5 -39 -17 -16 -9 17 -10 32 -2 53 13 39 26 15
19 -37z m2891 23 c-6 -6 -17 -8 -24 -3 -9 5 -8 9 7 14 23 9 31 3 17 -11z m-33
-24 c9 -10 9 -15 1 -15 -6 0 -11 -7 -11 -15 0 -8 5 -15 11 -15 8 0 8 -4 2 -12
-5 -7 -10 -35 -11 -62 -1 -28 -8 -56 -17 -66 -8 -9 -15 -22 -15 -28 0 -7 -7
-12 -15 -12 -9 0 -26 -10 -38 -23 -67 -69 -107 -120 -102 -128 4 -5 1 -9 -4
-10 -6 0 -29 -2 -51 -3 -22 -2 -46 -4 -53 -4 -8 -1 -30 -18 -50 -37 -20 -19
-43 -35 -52 -35 -9 0 -18 -7 -21 -15 -4 -8 -19 -15 -35 -15 -30 0 -35 -15 -37
-97 -1 -35 -25 -78 -48 -87 -30 -12 -63 101 -43 151 6 15 17 52 25 82 23 87
65 169 89 175 12 3 47 30 79 61 46 43 55 56 42 61 -12 5 -14 10 -6 19 5 6 8
14 5 17 -9 9 83 48 99 42 9 -3 22 -2 29 3 6 5 40 20 75 33 34 12 62 26 62 30
0 21 74 25 90 5z m-3603 -177 c5 -7 17 -33 27 -58 24 -61 41 -100 57 -134 26
-54 13 -316 -16 -316 -9 0 -14 24 -18 88 -5 90 -32 203 -60 258 -19 36 -45
145 -39 162 5 16 37 15 49 0z m3620 -30 c-3 -8 -6 -5 -6 6 -1 11 2 17 5 13 3
-3 4 -12 1 -19z m-2580 -90 c-2 -13 -4 -3 -4 22 0 25 2 35 4 23 2 -13 2 -33 0
-45z m1802 -126 l23 -8 -31 -33 c-17 -18 -31 -35 -31 -36 0 -8 71 -46 78 -41
4 2 14 0 22 -5 13 -8 12 -11 -2 -23 -10 -7 -18 -25 -18 -39 0 -14 -4 -27 -8
-29 -13 -5 -112 -146 -112 -160 0 -6 -5 -26 -12 -44 -15 -42 -61 -56 -88 -28
-31 32 -80 133 -80 164 0 40 36 133 60 155 12 10 20 13 20 7 0 -7 7 -12 15
-12 12 0 13 4 3 25 -14 30 -7 38 34 41 18 1 34 7 36 14 2 6 12 19 21 28 10 9
21 26 25 37 5 13 9 16 14 8 4 -7 18 -16 31 -21z m97 -148 c-9 -9 -20 -14 -23
-10 -4 3 2 13 13 20 25 18 31 12 10 -10z m-3094 -13 c5 -13 106 -91 118 -91
16 0 12 -21 -7 -36 -17 -13 -17 -15 0 -28 12 -9 17 -27 17 -58 0 -25 3 -48 6
-51 9 -8 43 -108 44 -124 0 -7 -4 -13 -9 -13 -19 0 -41 32 -41 58 0 15 -9 52
-21 82 -12 30 -23 65 -26 77 -7 29 -32 38 -48 17 -6 -10 -17 -14 -23 -10 -17
10 -15 26 3 26 8 0 15 9 15 19 0 23 16 36 25 21 7 -12 25 -4 25 11 0 5 -7 9
-16 9 -9 0 -24 10 -34 23 -17 20 -19 20 -25 5 -4 -10 -16 -18 -26 -18 -22 0
-22 0 -9 36 7 19 7 30 -1 40 -9 11 -7 14 9 14 11 0 22 -4 24 -9z m958 -74 c0
-31 10 -40 27 -25 18 15 27 4 11 -13 -25 -25 -55 -73 -92 -144 -31 -61 -36
-66 -36 -40 0 17 9 59 20 95 11 36 20 79 20 97 0 20 7 36 18 42 26 16 32 13
32 -12z m-790 -67 c0 -5 -7 -10 -15 -10 -8 0 -15 5 -15 10 0 6 7 10 15 10 8 0
15 -4 15 -10z m2705 -280 c9 -7 25 -31 36 -51 30 -60 4 -152 -46 -160 -55 -9
-79 4 -87 46 -2 11 -13 24 -25 30 -31 13 -82 122 -68 145 9 15 170 6 190 -10z
m303 -22 c7 -7 12 -16 12 -20 0 -7 -63 -38 -77 -38 -10 0 10 46 25 58 20 15
25 15 40 0z m-83 -68 c-3 -5 -10 -10 -16 -10 -5 0 -9 5 -9 10 0 6 7 10 16 10
8 0 12 -4 9 -10z m375 -609 c0 -12 -36 -20 -60 -14 -11 3 -17 9 -14 14 7 12
74 12 74 0z m-133 -27 c-3 -3 -12 -4 -19 -1 -8 3 -5 6 6 6 11 1 17 -2 13 -5z
m-545 -26 c-6 -6 -16 -7 -22 -3 -9 6 -9 9 1 16 17 10 34 0 21 -13z m-1142
-228 c9 -16 8 -20 -5 -20 -8 0 -15 9 -15 20 0 11 2 20 5 20 2 0 9 -9 15 -20z
m-596 -63 c8 -12 5 -21 -9 -37 -17 -18 -20 -19 -28 -5 -11 21 0 68 15 63 6 -2
16 -12 22 -21z m-834 -102 c0 -14 -4 -25 -9 -25 -5 0 -11 -9 -14 -20 -8 -30
-22 -24 -25 9 -2 28 19 61 39 61 5 0 9 -11 9 -25z m391 -98 c22 -18 28 -36 38
-107 6 -47 11 -128 11 -180 l0 -94 -18 34 c-10 19 -28 51 -39 70 -21 38 -28
63 -43 179 -15 117 -1 143 51 98z m2067 -325 c9 -7 10 -16 1 -40 -9 -26 -8
-40 4 -71 10 -23 18 -91 23 -174 l7 -136 -31 -30 c-25 -26 -36 -30 -61 -25
-18 4 -37 2 -45 -5 -18 -15 -22 29 -21 222 1 117 -2 147 -13 147 -7 0 -10 5
-7 10 4 6 10 8 15 5 5 -3 21 -3 35 1 26 6 33 35 16 63 -5 8 -7 20 -4 28 6 14
60 18 81 5z m-331 -304 c-3 -8 -6 -5 -6 6 -1 11 2 17 5 13 3 -3 4 -12 1 -19z
m89 -66 c24 -28 38 -36 67 -36 28 -1 34 -4 23 -11 -12 -9 -12 -13 0 -30 8 -10
14 -27 14 -37 0 -10 3 -18 8 -18 4 0 8 -40 10 -89 4 -117 -15 -181 -85 -284
-30 -44 -58 -90 -63 -102 -4 -11 -15 -27 -24 -34 -9 -7 -16 -19 -16 -25 0 -6
-7 -24 -15 -40 -9 -18 -17 -67 -19 -131 -4 -92 -2 -104 15 -119 16 -13 17 -20
9 -36 -11 -21 -21 -19 -52 7 -9 8 -32 22 -50 31 -20 11 -34 26 -36 40 -2 12
-17 32 -33 44 -16 12 -29 27 -29 34 0 20 -34 32 -100 36 -18 2 -40 22 -40 39
0 28 -33 49 -77 49 -37 0 -49 5 -74 33 -33 36 -33 62 1 109 11 15 20 36 20 47
0 11 13 39 29 63 16 23 27 48 24 55 -3 7 -1 13 5 13 5 0 12 -9 15 -20 8 -31
27 -24 27 10 0 19 5 30 14 30 25 0 30 22 9 40 -24 19 -43 52 -43 75 0 9 12 32
26 50 20 26 35 35 70 41 24 3 41 10 39 15 -6 8 26 29 44 29 5 0 12 -9 16 -19
4 -14 19 -21 56 -26 28 -4 52 -5 55 -3 2 3 5 17 6 31 1 15 6 27 10 27 4 0 5 7
2 15 -4 8 11 30 35 54 36 35 40 44 31 61 -29 54 24 42 76 -18z m-558 -113 c-2
-6 -8 -10 -13 -10 -5 0 -11 4 -13 10 -2 6 4 11 13 11 9 0 15 -5 13 -11z m362
-35 c0 -8 -4 -14 -10 -14 -5 0 -10 9 -10 21 0 11 5 17 10 14 6 -3 10 -13 10
-21z m573 -194 c6 -23 -3 -32 -22 -20 -15 8 -8 40 8 40 5 0 11 -9 14 -20z
m-2226 -22 c-3 -8 -6 -5 -6 6 -1 11 2 17 5 13 3 -3 4 -12 1 -19z m3 -38 c0 -5
9 -11 19 -15 10 -3 21 -14 24 -24 3 -11 18 -22 37 -26 28 -6 31 -9 16 -17 -35
-20 -118 24 -100 54 3 4 -2 11 -10 14 -9 3 -16 12 -16 20 0 8 6 11 15 8 8 -4
15 -10 15 -14z m70 -127 c1 -10 7 -36 15 -58 13 -36 12 -42 -6 -72 -12 -19
-28 -40 -36 -49 -21 -21 -33 -3 -33 53 0 23 -5 53 -11 67 -6 13 -9 36 -5 50 5
22 12 26 41 26 27 0 35 -4 35 -17z m1910 -401 c0 -10 3 -22 8 -26 4 -4 7 -50
7 -101 0 -92 0 -92 -28 -105 -25 -11 -34 -10 -65 7 -26 13 -38 27 -40 45 -2
15 -9 32 -17 38 -9 8 -12 22 -8 43 5 24 3 29 -9 25 -11 -5 -14 0 -10 18 5 26
25 35 91 39 33 2 47 8 49 19 5 22 22 20 22 -2z m-783 -154 c-3 -7 -5 -2 -5 12
0 14 2 19 5 13 2 -7 2 -19 0 -25z m58 -207 c6 -43 5 -53 -6 -49 -9 3 -15 25
-17 64 -4 73 13 62 23 -15z m-1645 -101 c0 -5 -9 -14 -19 -20 -11 -5 -23 -19
-26 -30 -8 -24 -18 -25 -39 -4 -20 19 -13 32 28 50 37 16 56 17 56 4z m-60
-112 l20 -22 -24 -13 c-13 -7 -30 -26 -37 -43 -16 -34 -28 -41 -58 -33 -24 6
-28 23 -6 23 9 0 18 8 21 18 16 50 41 92 55 92 4 0 17 -10 29 -22z m1893 -98
c261 0 298 -2 304 -16 3 -8 1 -20 -4 -25 -9 -9 -1300 -13 -1451 -5 -43 3 -72
19 -58 33 8 9 699 22 831 16 44 -1 214 -3 378 -3z m-2022 -32 c58 2 109 -17
54 -19 -16 -1 -48 -3 -70 -5 -22 -2 -65 -1 -95 2 l-55 6 50 17 c28 9 53 12 56
7 4 -5 31 -8 60 -8z"/>
<path d="M14880 7011 c0 -5 3 -17 6 -25 5 -13 9 -14 20 -5 10 8 18 8 27 1 6
-5 21 -6 32 -2 18 7 16 10 -17 24 -42 18 -68 21 -68 7z"/>
<path d="M14906 6953 c-12 -12 -5 -23 14 -23 11 0 20 4 20 9 0 11 -26 22 -34
14z"/>
<path d="M14955 6940 c-3 -5 3 -10 15 -10 12 0 18 5 15 10 -3 6 -10 10 -15 10
-5 0 -12 -4 -15 -10z"/>
<path d="M15010 6834 c0 -8 5 -12 10 -9 6 4 8 11 5 16 -9 14 -15 11 -15 -7z"/>
<path d="M14999 6461 c-9 -9 -30 -37 -47 -63 -18 -25 -38 -53 -46 -61 -22 -22
-10 -27 61 -27 l63 0 -1 33 c-1 17 -4 55 -7 83 -6 46 -8 49 -23 35z"/>
<path d="M15080 6241 c0 -11 3 -27 6 -36 5 -13 10 -10 25 15 24 39 24 40 -6
40 -18 0 -25 -5 -25 -19z"/>
<path d="M14965 5810 c-3 -5 -1 -10 4 -10 6 0 11 5 11 10 0 6 -2 10 -4 10 -3
0 -8 -4 -11 -10z"/>
<path d="M14790 4745 c0 -10 10 -15 33 -15 l32 0 -29 15 c-35 18 -36 18 -36 0z"/>
<path d="M13671 4644 c0 -11 3 -14 6 -6 3 7 2 16 -1 19 -3 4 -6 -2 -5 -13z"/>
<path d="M13647 4586 c-4 -15 -6 -31 -2 -34 10 -10 16 6 13 35 l-3 28 -8 -29z"/>
<path d="M13641 4458 c0 -28 2 -30 9 -13 12 28 12 45 0 45 -5 0 -10 -15 -9
-32z"/>
<path d="M13690 4370 c0 -6 7 -10 15 -10 8 0 15 2 15 4 0 2 -7 6 -15 10 -8 3
-15 1 -15 -4z"/>
<path d="M13885 4351 c-3 -6 4 -15 15 -21 17 -9 20 -8 20 10 0 20 -24 28 -35
11z"/>
<path d="M13741 4344 c-1 -12 156 -164 170 -164 15 0 10 14 -16 44 -14 16 -25
33 -25 38 0 4 -7 8 -15 8 -8 0 -28 14 -45 30 -17 17 -37 30 -45 30 -7 0 -16 6
-18 13 -3 7 -6 7 -6 1z"/>
<path d="M16598 4255 c10 -21 23 -35 34 -35 22 0 24 28 3 36 -8 4 -15 12 -15
20 0 8 -8 14 -19 14 -18 0 -18 -2 -3 -35z"/>
<path d="M14296 4238 c-7 -30 7 -42 33 -29 17 10 19 15 11 31 -14 27 -36 25
-44 -2z"/>
<path d="M13640 4185 c0 -18 5 -25 20 -25 20 0 20 1 4 25 -9 14 -18 25 -20 25
-2 0 -4 -11 -4 -25z"/>
<path d="M13835 4171 c-3 -5 -1 -12 5 -16 5 -3 10 1 10 9 0 18 -6 21 -15 7z"/>
<path d="M13930 4166 c0 -9 5 -16 10 -16 6 0 10 4 10 9 0 6 -4 13 -10 16 -5 3
-10 -1 -10 -9z"/>
<path d="M13690 4154 c0 -17 28 -49 36 -41 4 4 -2 17 -14 30 -12 12 -22 17
-22 11z"/>
<path d="M13880 4120 c0 -5 9 -10 20 -10 11 0 20 5 20 10 0 6 -9 10 -20 10
-11 0 -20 -4 -20 -10z"/>
<path d="M13957 4105 c-4 -8 -2 -17 3 -20 6 -4 10 3 10 14 0 25 -6 27 -13 6z"/>
<path d="M15363 3968 c-28 -14 -30 -28 -3 -28 11 0 20 6 20 14 0 8 6 17 13 19
6 3 8 5 2 6 -5 0 -20 -5 -32 -11z"/>
<path d="M14565 3909 c-10 -15 0 -21 27 -17 l23 3 -22 13 c-15 8 -24 9 -28 1z"/>
<path d="M16750 3800 c0 -6 36 -10 89 -10 50 0 93 5 96 10 4 6 -28 10 -89 10
-57 0 -96 -4 -96 -10z"/>
<path d="M13641 3739 c-6 -17 -9 -35 -6 -39 2 -3 28 -5 57 -2 41 3 57 0 67
-12 17 -20 31 -21 31 0 0 8 5 12 10 9 8 -5 7 -11 -1 -21 -6 -8 -9 -18 -5 -22
8 -8 36 25 36 43 0 18 -41 51 -78 63 -32 11 -34 10 -44 -19 l-10 -30 -19 30
c-10 17 -21 31 -23 31 -2 0 -9 -14 -15 -31z"/>
<path d="M13816 3641 c-3 -5 1 -12 10 -15 20 -8 29 -1 19 13 -8 13 -22 14 -29
2z"/>
<path d="M13890 3520 c0 -12 18 -45 41 -77 14 -19 18 -20 23 -7 12 31 6 53
-20 73 -29 23 -44 27 -44 11z"/>
<path d="M15870 3508 c-98 -44 -154 -74 -168 -90 -6 -7 -13 -30 -17 -52 -7
-35 -6 -37 11 -28 11 6 36 28 56 51 20 23 43 41 52 41 8 0 20 9 26 20 6 11 17
20 25 20 7 0 20 6 27 13 7 7 22 18 33 25 l20 11 -20 0 c-11 0 -31 -5 -45 -11z"/>
<path d="M14740 3391 c0 -11 5 -23 10 -26 6 -3 10 -19 10 -35 0 -40 11 -65 21
-49 6 10 11 10 23 0 9 -7 23 -11 31 -7 14 5 14 9 1 33 -14 29 -80 103 -90 103
-3 0 -6 -9 -6 -19z"/>
<path d="M15375 3389 c-4 -10 -11 -19 -16 -19 -5 0 -9 -9 -9 -20 0 -27 6 -25
35 8 29 32 30 38 11 45 -9 4 -17 -2 -21 -14z"/>
<path d="M16135 3391 c-3 -5 -1 -12 5 -16 5 -3 10 1 10 9 0 18 -6 21 -15 7z"/>
<path d="M16750 3347 c0 -18 77 -28 140 -18 45 7 45 7 -30 14 -41 5 -83 10
-92 13 -11 3 -18 0 -18 -9z"/>
<path d="M15965 3320 c-18 -8 -17 -9 8 -9 15 -1 27 4 27 9 0 12 -8 12 -35 0z"/>
<path d="M15550 3305 c-7 -8 -9 -15 -6 -15 4 0 14 7 22 15 9 8 11 15 6 15 -5
0 -15 -7 -22 -15z"/>
<path d="M15304 3289 c-9 -16 2 -22 21 -11 15 8 16 10 1 15 -8 3 -18 2 -22 -4z"/>
<path d="M14770 3225 c0 -15 6 -25 14 -25 23 0 28 17 10 34 -21 21 -24 20 -24
-9z"/>
<path d="M15441 3215 c-17 -30 -18 -37 -6 -41 17 -7 65 45 58 63 -9 23 -31 14
-52 -22z"/>
<path d="M14877 3176 c-21 -22 -22 -36 -2 -36 17 0 29 22 23 41 -3 8 -9 6 -21
-5z"/>
<path d="M14900 3135 c0 -12 28 -35 44 -35 13 0 5 24 -11 36 -23 18 -33 17
-33 -1z"/>
<path d="M15240 3123 c-28 -26 -31 -32 -24 -70 9 -55 33 -64 79 -28 34 26 45
57 24 70 -5 4 -14 18 -19 31 -12 31 -23 30 -60 -3z"/>
<path d="M15104 3083 c-9 -37 -23 -53 -45 -53 -11 0 -19 -4 -19 -10 0 -21 49
-9 79 19 28 27 30 32 19 50 -17 28 -26 26 -34 -6z"/>
<path d="M14986 3072 c-2 -4 -1 -14 5 -22 7 -12 9 -10 9 8 0 23 -5 28 -14 14z"/>
<path d="M15450 3070 c0 -5 5 -10 10 -10 6 0 10 5 10 10 0 6 -4 10 -10 10 -5
0 -10 -4 -10 -10z"/>
<path d="M15590 3002 c0 -13 32 -39 55 -45 11 -3 34 0 50 8 17 8 23 14 14 14
-9 1 -30 8 -45 16 -32 16 -74 20 -74 7z"/>
<path d="M15465 2970 c-3 -5 -2 -10 4 -10 5 0 13 5 16 10 3 6 2 10 -4 10 -5 0
-13 -4 -16 -10z"/>
<path d="M15048 2943 c7 -3 16 -2 19 1 4 3 -2 6 -13 5 -11 0 -14 -3 -6 -6z"/>
<path d="M15030 2822 c0 -5 -28 -9 -63 -9 -35 0 -73 -4 -85 -7 -43 -14 -16
-66 33 -66 10 0 30 11 47 25 16 14 35 25 41 25 7 0 26 9 42 20 28 18 28 20 8
20 -13 0 -23 -4 -23 -8z"/>
<path d="M14770 2800 c0 -5 7 -10 16 -10 8 0 12 5 9 10 -3 6 -10 10 -16 10 -5
0 -9 -4 -9 -10z"/>
<path d="M14576 2762 c-3 -5 -10 -21 -15 -35 -9 -24 -9 -25 12 -18 12 5 24 16
25 26 4 20 -13 42 -22 27z"/>
<path d="M14828 2723 c7 -3 16 -2 19 1 4 3 -2 6 -13 5 -11 0 -14 -3 -6 -6z"/>
<path d="M14600 2680 c0 -5 7 -10 15 -10 8 0 15 5 15 10 0 6 -7 10 -15 10 -8
0 -15 -4 -15 -10z"/>
<path d="M15010 2299 c0 -5 5 -7 10 -4 6 3 10 8 10 11 0 2 -4 4 -10 4 -5 0
-10 -5 -10 -11z"/>
<path d="M14408 1553 c6 -2 18 -2 25 0 6 3 1 5 -13 5 -14 0 -19 -2 -12 -5z"/>
<path d="M14483 6530 c-30 -12 -43 -41 -43 -93 0 -60 25 -82 91 -81 65 1 91
30 85 93 -2 25 -12 51 -23 62 -22 23 -79 33 -110 19z"/>
<path d="M15472 2283 c-6 -11 -7 -25 -2 -33 6 -10 10 -7 16 13 8 34 -1 46 -14
20z"/>
<path d="M15399 2155 c-20 -42 -19 -72 2 -60 5 4 16 -1 25 -9 32 -32 46 -16
51 61 l4 53 -30 0 c-27 0 -34 -6 -52 -45z"/>
<path d="M15722 1358 c5 -15 28 -18 29 -3 0 6 -7 12 -17 13 -10 3 -15 -1 -12
-10z"/>
<path d="M11510 7199 c-85 -30 -126 -77 -165 -189 -9 -24 -22 -51 -29 -60 -10
-10 -11 -22 -5 -38 7 -19 12 -21 28 -12 49 26 51 21 51 -144 0 -169 8 -203 57
-246 66 -59 83 -63 272 -65 97 -1 194 3 216 8 52 14 121 70 143 116 14 30 17
65 15 218 -3 215 -14 253 -95 311 l-46 33 -189 1 c-128 1 -202 -3 -228 -12
-43 -13 -105 -65 -105 -87 0 -7 -4 -13 -10 -13 -26 0 6 66 47 96 15 11 37 25
48 30 11 5 194 11 407 14 343 4 389 7 404 22 36 36 13 38 -379 37 -351 0 -386
-2 -437 -20z m428 -165 c26 -18 28 -41 5 -66 -31 -35 -73 -16 -73 34 0 15 8
31 18 37 23 14 24 14 50 -5z"/>
<path d="M11321 6844 c0 -11 3 -14 6 -6 3 7 2 16 -1 19 -3 4 -6 -2 -5 -13z"/>
<path d="M12198 5590 c-4 -30 -8 -89 -8 -131 0 -97 -11 -200 -20 -194 -4 3
-13 47 -20 100 -8 52 -17 95 -21 95 -3 0 -10 -47 -14 -105 -4 -58 -11 -103
-16 -99 -5 3 -9 22 -10 42 -1 20 -5 48 -9 62 -7 22 -8 23 -9 4 -2 -42 -31 -54
-129 -54 -50 0 -94 5 -97 10 -3 6 -48 10 -101 10 -56 0 -94 -4 -94 -10 0 -13
-187 -13 -195 0 -10 16 -25 1 -25 -25 0 -20 -26 -42 -37 -31 -2 2 -7 64 -11
137 l-8 134 -7 -95 c-4 -52 -10 -221 -15 -375 -6 -199 -9 -240 -10 -143 -1 77
-6 139 -12 143 -11 7 -15 -718 -15 -2825 0 -1539 -6 -1414 76 -1504 83 -90 80
-90 556 -94 386 -3 412 -2 406 14 -3 9 -19 29 -34 44 -15 14 -39 49 -53 77
l-26 51 0 1058 c-1 1153 -18 3317 -28 3589 -6 137 -8 159 -14 115z"/>
<path d="M1770 4815 l0 -365 75 0 75 0 0 365 0 365 -75 0 -75 0 0 -365z"/>
<path d="M4485 5155 c-52 -51 -11 -135 65 -135 49 0 90 41 90 91 0 35 -44 69
-90 69 -30 0 -47 -6 -65 -25z"/>
<path d="M792 5136 c-126 -41 -185 -162 -131 -273 24 -49 75 -88 163 -126 108
-45 143 -87 116 -137 -28 -53 -177 -46 -262 12 -14 10 -29 18 -32 18 -4 0 -6
-35 -4 -77 l3 -78 40 -13 c58 -20 191 -26 257 -13 66 14 130 57 154 103 11 21
18 56 18 96 0 95 -31 133 -161 197 -55 28 -110 59 -122 69 -30 28 -28 71 6 93
39 26 144 23 202 -5 25 -12 46 -22 48 -22 2 0 3 31 3 70 0 62 -2 71 -22 81
-34 19 -224 22 -276 5z"/>
<path d="M3430 5108 c49 -184 170 -650 170 -654 0 -2 42 -3 92 -2 l93 3 64
242 64 242 61 -242 61 -242 87 -3 87 -3 15 53 c22 79 166 627 166 633 0 3 -35
5 -78 5 l-79 0 -48 -237 c-26 -131 -49 -245 -52 -253 -4 -12 -122 454 -123
483 0 4 -39 6 -87 5 l-87 -3 -38 -140 c-21 -77 -51 -189 -67 -250 -16 -60 -31
-103 -34 -95 -3 8 -27 122 -54 252 l-48 238 -87 0 -86 0 8 -32z"/>
<path d="M3188 5068 l-68 -21 0 -53 0 -54 -40 0 -40 0 0 -55 0 -55 40 0 40 0
0 -137 c0 -152 10 -188 63 -227 23 -17 43 -21 107 -21 43 0 81 2 83 5 3 3 7
30 9 60 l3 54 -41 -3 c-61 -4 -68 11 -73 151 l-3 118 56 0 56 0 0 33 c0 17 3
42 6 55 6 21 4 22 -56 22 l-63 0 6 75 c8 86 13 82 -85 53z"/>
<path d="M1350 4934 c-103 -45 -150 -122 -150 -247 0 -123 46 -197 147 -233
51 -18 158 -17 220 1 49 15 51 16 57 60 10 60 4 67 -46 49 -84 -29 -192 -12
-218 35 -26 50 -21 51 151 51 l162 0 -6 69 c-9 114 -45 177 -122 212 -49 23
-146 24 -195 3z m153 -115 c9 -12 17 -34 17 -50 l0 -29 -86 0 -86 0 6 28 c4
15 21 40 38 55 25 24 37 28 62 23 17 -3 39 -16 49 -27z"/>
<path d="M2162 4924 c-90 -45 -131 -119 -132 -240 0 -97 34 -165 105 -209 46
-28 54 -30 154 -30 143 0 165 11 169 83 2 28 2 52 0 52 -2 0 -21 -7 -43 -15
-48 -17 -130 -19 -174 -4 -29 10 -61 52 -61 79 0 6 55 10 161 10 l162 0 -5 73
c-10 148 -88 227 -226 227 -43 0 -72 -7 -110 -26z m162 -96 c13 -13 27 -38 31
-55 l7 -33 -91 0 c-57 0 -91 4 -91 10 0 21 30 69 52 84 31 22 63 20 92 -6z"/>
<path d="M2737 4934 c-107 -33 -176 -148 -164 -276 15 -163 168 -253 351 -207
l43 11 7 60 c3 34 4 63 2 65 -2 3 -18 -3 -35 -11 -38 -20 -113 -21 -151 -1
-39 20 -60 63 -60 120 0 57 21 100 60 120 37 19 116 19 153 1 l27 -15 0 49 c0
26 3 55 6 63 13 36 -146 49 -239 21z"/>
<path d="M4858 4941 c-111 -36 -158 -141 -101 -227 15 -24 94 -66 146 -78 15
-4 36 -15 47 -26 60 -60 -78 -88 -180 -37 -18 9 -35 17 -37 17 -1 0 -3 -27 -3
-60 0 -78 11 -85 150 -85 90 0 111 4 148 23 53 28 82 74 82 129 0 79 -35 116
-148 154 -69 23 -89 45 -67 75 17 24 106 24 153 0 l32 -17 0 60 c0 33 -5 63
-11 67 -18 11 -181 14 -211 5z"/>
<path d="M5341 4936 c-48 -17 -108 -71 -132 -118 -12 -23 -24 -67 -26 -99 -12
-130 49 -234 155 -265 62 -18 181 -15 240 6 31 11 32 14 32 65 l0 53 -51 -15
c-74 -22 -163 -14 -193 18 -13 13 -27 34 -31 47 l-6 22 162 0 162 0 -5 79 c-6
105 -36 158 -110 195 -58 29 -137 34 -197 12z m122 -97 c26 -12 47 -47 47 -79
0 -18 -7 -20 -89 -20 -87 0 -89 0 -84 23 8 31 29 59 55 74 29 15 41 16 71 2z"/>
<path d="M4470 4695 l0 -245 80 0 80 0 0 245 0 245 -80 0 -80 0 0 -245z"/>
<path d="M3940 4050 c0 -171 2 -200 15 -200 13 0 15 29 15 200 0 171 -2 200
-15 200 -13 0 -15 -29 -15 -200z"/>
<path d="M934 4145 c-4 -9 -2 -21 4 -27 15 -15 44 -1 40 19 -4 23 -36 29 -44
8z"/>
<path d="M1310 4117 c0 -43 -1 -43 -30 -39 -38 5 -65 -17 -74 -59 -6 -30 7
-67 28 -81 6 -4 36 -7 68 -7 l58 1 0 114 0 114 -25 0 c-23 0 -25 -4 -25 -43z
m-2 -109 c-2 -25 -8 -34 -24 -36 -24 -3 -38 20 -29 49 4 12 16 19 31 19 22 0
25 -4 22 -32z"/>
<path d="M1620 4045 l0 -115 24 0 c23 0 25 4 28 53 3 45 6 52 26 55 21 3 22 0
22 -52 0 -53 1 -56 25 -56 24 0 25 3 25 53 0 31 -6 61 -16 75 -17 24 -53 29
-72 10 -9 -9 -12 0 -12 40 0 49 -2 52 -25 52 l-25 0 0 -115z"/>
<path d="M2070 4046 l0 -114 58 0 c64 0 87 14 97 57 13 61 -40 112 -87 82 -17
-10 -18 -7 -18 39 0 47 -2 50 -25 50 l-25 0 0 -114z m105 -41 c0 -25 -4 -30
-25 -30 -16 0 -26 6 -28 18 -6 30 6 49 30 45 18 -2 23 -9 23 -33z"/>
<path d="M3400 4116 l0 -45 -34 6 c-43 7 -76 -25 -76 -74 0 -56 63 -96 98 -61
9 9 12 9 12 0 0 -7 11 -12 25 -12 l25 0 0 115 0 115 -25 0 c-23 0 -25 -4 -25
-44z m-5 -111 c0 -25 -4 -30 -27 -33 -25 -3 -28 0 -28 26 0 35 8 44 35 40 15
-2 20 -10 20 -33z"/>
<path d="M770 4035 l0 -105 25 0 c23 0 25 4 25 40 0 39 1 40 35 40 28 0 35 4
35 20 0 16 -7 20 -35 20 -31 0 -35 3 -35 25 0 23 4 25 40 25 33 0 40 3 40 20
0 18 -7 20 -65 20 l-65 0 0 -105z"/>
<path d="M1528 4123 c-10 -2 -18 -13 -18 -24 0 -10 -4 -19 -10 -19 -5 0 -10
-7 -10 -15 0 -8 5 -15 10 -15 6 0 10 -22 10 -48 0 -55 12 -72 52 -72 21 0 28
5 28 20 0 11 -7 20 -15 20 -11 0 -15 11 -15 40 0 29 4 40 15 40 8 0 15 7 15
15 0 8 -7 15 -15 15 -9 0 -15 9 -15 25 0 25 -1 26 -32 18z"/>
<path d="M2598 4119 c-10 -5 -18 -17 -18 -24 0 -8 -4 -15 -10 -15 -5 0 -10 -7
-10 -15 0 -8 4 -15 9 -15 5 0 11 -23 13 -51 5 -53 18 -69 54 -69 29 0 41 30
14 37 -29 8 -29 78 0 86 11 3 20 10 20 16 0 6 -9 11 -20 11 -15 0 -20 7 -20
25 0 27 -6 30 -32 14z"/>
<path d="M3858 4123 c-10 -2 -18 -13 -18 -24 0 -10 -4 -19 -10 -19 -5 0 -10
-7 -10 -15 0 -8 5 -15 10 -15 6 0 10 -20 10 -44 0 -51 19 -76 56 -76 17 0 24
5 24 20 0 11 -7 20 -15 20 -11 0 -15 11 -15 40 0 29 4 40 15 40 8 0 15 7 15
15 0 8 -7 15 -15 15 -9 0 -15 9 -15 25 0 25 -1 26 -32 18z"/>
<path d="M930 4005 c0 -73 1 -75 25 -75 24 0 25 2 25 75 0 73 -1 75 -25 75
-24 0 -25 -2 -25 -75z"/>
<path d="M1030 4004 c0 -67 2 -74 20 -74 16 0 20 7 20 33 0 51 11 77 31 77 21
0 21 -1 23 -62 1 -37 4 -43 24 -46 21 -3 22 0 22 61 0 40 -5 68 -12 75 -7 5
-39 9 -70 9 l-58 0 0 -73z"/>
<path d="M1831 4063 c-11 -10 -24 -32 -27 -50 -5 -26 -1 -37 19 -57 36 -36
117 -35 117 1 0 10 -8 12 -33 8 -24 -5 -37 -2 -46 9 -12 14 -8 16 38 16 40 0
51 3 51 16 0 19 -19 56 -34 66 -20 13 -63 8 -85 -9z m67 -31 c2 -7 -7 -12 -22
-12 -27 0 -35 15 -13 23 17 7 30 3 35 -11z"/>
<path d="M2280 4062 c-16 -13 -22 -29 -22 -57 0 -59 55 -92 116 -69 31 12 18
33 -17 27 -23 -3 -37 0 -46 11 -12 14 -8 16 38 16 48 0 51 2 51 25 0 56 -73
85 -120 47z m74 -27 c4 -11 -2 -15 -26 -15 -26 0 -29 2 -18 15 7 8 18 15 25
15 7 0 15 -7 19 -15z"/>
<path d="M2436 4058 c-19 -26 -6 -55 30 -68 38 -15 30 -33 -12 -26 -31 6 -35
5 -32 -11 5 -26 73 -31 99 -7 30 27 24 53 -16 70 -39 16 -38 39 1 31 18 -3 24
0 24 14 0 29 -74 27 -94 -3z"/>
<path d="M2790 3970 c0 -103 1 -110 20 -110 17 0 20 7 20 47 0 37 3 44 12 35
37 -37 98 5 98 66 0 60 -42 88 -91 62 -13 -7 -19 -7 -19 0 0 5 -9 10 -20 10
-19 0 -20 -7 -20 -110z m103 56 c11 -27 -4 -56 -29 -56 -28 0 -38 14 -30 46 7
27 50 35 59 10z"/>
<path d="M2980 4005 c0 -73 1 -75 24 -75 23 0 25 4 28 53 3 45 6 52 26 55 14
2 22 10 22 23 0 21 -20 25 -38 7 -9 -9 -12 -9 -12 0 0 7 -11 12 -25 12 -24 0
-25 -2 -25 -75z"/>
<path d="M3122 4057 c-22 -23 -29 -71 -14 -93 11 -18 49 -34 77 -34 35 0 75
42 75 78 0 65 -93 97 -138 49z m86 -49 c-2 -27 -8 -34 -30 -36 -19 -2 -27 2
-30 15 -8 36 3 53 34 53 27 0 29 -2 26 -32z"/>
<path d="M3490 4021 c0 -80 28 -109 81 -81 13 7 19 7 19 0 0 -5 11 -10 25 -10
24 0 25 2 25 75 0 73 -1 75 -24 75 -23 0 -25 -4 -28 -52 -3 -46 -6 -53 -25
-56 -22 -3 -23 0 -23 52 0 53 -1 56 -25 56 -24 0 -25 -3 -25 -59z"/>
<path d="M3695 4055 c-51 -50 -13 -130 59 -123 45 4 48 36 4 40 -29 3 -33 6
-33 33 0 27 4 30 33 33 24 2 32 8 32 23 0 30 -64 26 -95 -6z"/>
<path d="M1512 3213 c258 -2 678 -2 935 0 258 1 47 2 -467 2 -514 0 -725 -1
-468 -2z"/>
<path d="M2933 3213 c9 -2 25 -2 35 0 9 3 1 5 -18 5 -19 0 -27 -2 -17 -5z"/>
<path d="M1000 3200 c-18 -12 -2 -12 25 0 13 6 15 9 5 9 -8 0 -22 -4 -30 -9z"/>
<path d="M3008 3203 c6 -2 18 -2 25 0 6 3 1 5 -13 5 -14 0 -19 -2 -12 -5z"/>
<path d="M930 3153 c-23 -20 -46 -46 -51 -57 -6 -12 1 -7 16 11 14 18 40 44
58 57 18 14 29 26 25 26 -5 0 -26 -16 -48 -37z"/>
<path d="M3227 3106 c24 -21 61 -58 84 -84 23 -26 32 -33 21 -17 -22 32 -93
102 -127 124 -11 8 -1 -3 22 -23z"/>
<path d="M856 3055 c-3 -9 -6 -22 -5 -28 0 -7 5 -1 10 12 5 13 8 26 5 28 -2 2
-6 -3 -10 -12z"/>
<path d="M843 2955 c0 -33 2 -45 4 -27 2 18 2 45 0 60 -2 15 -4 0 -4 -33z"/>
<path d="M4443 2830 c0 -72 1 -84 6 -47 4 26 4 68 0 95 -5 36 -6 24 -6 -48z"/>
<path d="M5110 2830 c0 -53 4 -90 10 -90 6 0 10 37 10 90 0 53 -4 90 -10 90
-6 0 -10 -37 -10 -90z"/>
<path d="M5184 2830 c0 -52 1 -74 3 -47 2 26 2 68 0 95 -2 26 -3 4 -3 -48z"/>
<path d="M1368 2880 c-26 -27 -30 -36 -25 -68 10 -59 71 -92 117 -62 11 7 4
10 -26 10 -66 0 -96 55 -58 108 11 16 25 22 55 22 24 0 38 4 34 10 -13 21 -66
10 -97 -20z"/>
<path d="M2450 2825 c0 -100 18 -115 22 -19 l3 66 42 -66 c23 -36 47 -66 53
-66 6 0 10 33 10 85 0 101 -18 115 -22 18 l-3 -68 -42 68 c-23 37 -47 67 -53
67 -6 0 -10 -33 -10 -85z"/>
<path d="M4312 2898 c-20 -20 -14 -56 11 -69 63 -33 69 -69 11 -69 -19 0 -34
-4 -34 -10 0 -14 64 -12 78 2 24 24 13 57 -28 83 -49 31 -46 59 7 53 20 -2 32
0 30 6 -5 16 -60 19 -75 4z"/>
<path d="M4987 2893 c-2 -10 -16 -48 -30 -85 -14 -38 -22 -68 -16 -68 5 0 15
11 21 25 9 19 19 25 45 25 27 0 35 -5 43 -25 5 -14 14 -25 21 -25 6 0 9 4 7 8
-1 4 -16 42 -32 85 -28 75 -48 96 -59 60z m37 -60 c6 -20 4 -23 -18 -23 -30 0
-29 -2 -15 40 12 34 19 30 33 -17z"/>
<path d="M852 2860 c0 -14 2 -19 5 -12 2 6 2 18 0 25 -3 6 -5 1 -5 -13z"/>
<path d="M1517 2842 c-35 -39 -11 -102 38 -102 33 0 55 26 55 65 0 52 -59 75
-93 37z m73 -22 c15 -28 -4 -60 -35 -60 -14 0 -29 8 -35 20 -15 28 4 60 35 60
14 0 29 -8 35 -20z"/>
<path d="M1662 2800 l1 -65 7 50 c4 28 3 57 -1 65 -5 9 -8 -11 -7 -50z"/>
<path d="M1685 2851 c-3 -5 5 -11 17 -13 20 -3 23 -10 26 -50 2 -27 7 -48 12
-48 5 0 10 21 12 48 3 40 6 47 26 50 20 3 22 0 22 -47 0 -29 5 -51 11 -51 6 0
9 20 7 51 -3 60 -24 82 -58 62 -12 -8 -21 -9 -25 -3 -8 13 -42 13 -50 1z"/>
<path d="M1870 2768 c0 -52 4 -88 10 -88 6 0 10 15 10 33 0 30 3 32 32 32 24
0 36 6 47 28 14 24 14 30 1 55 -13 22 -23 27 -58 28 l-42 1 0 -89z m86 57 c4
-8 3 -27 0 -41 -5 -20 -12 -25 -34 -22 -28 3 -40 32 -28 64 7 19 55 18 62 -1z"/>
<path d="M2033 2853 c-24 -9 -13 -20 16 -15 42 6 47 -15 5 -22 -64 -13 -57
-71 10 -71 l36 -1 0 52 c0 59 -20 76 -67 57z m47 -73 c-12 -22 -50 -27 -50 -7
0 20 10 27 37 27 21 0 22 -3 13 -20z"/>
<path d="M2150 2798 c0 -32 4 -58 10 -58 6 0 10 21 10 46 0 37 4 47 20 51 30
8 24 20 -10 20 -30 0 -30 -1 -30 -59z"/>
<path d="M2247 2842 c-46 -51 6 -121 70 -95 14 6 8 9 -21 13 -55 7 -60 30 -7
30 36 0 41 3 41 23 0 46 -52 64 -83 29z m67 -17 c4 -12 -3 -15 -29 -15 -33 0
-43 8 -28 23 12 13 51 7 57 -8z"/>
<path d="M2640 2840 c-11 -11 -20 -29 -20 -40 0 -11 9 -29 20 -40 11 -11 29
-20 40 -20 25 0 60 34 60 58 0 54 -62 80 -100 42z m75 -40 c0 -32 -3 -35 -32
-38 -24 -2 -33 1 -38 17 -3 12 -3 30 0 42 5 16 14 19 38 17 29 -3 32 -6 32
-38z"/>
<path d="M2770 2847 c0 -24 31 -107 41 -107 4 0 14 18 20 40 14 46 25 44 35
-5 9 -48 27 -44 41 8 7 23 15 50 18 60 4 9 3 17 -3 17 -5 0 -15 -21 -22 -47
l-13 -48 -15 48 c-9 26 -19 47 -23 47 -5 0 -15 -21 -23 -47 l-14 -48 -11 28
c-6 16 -11 34 -11 42 0 8 -4 17 -10 20 -5 3 -10 0 -10 -8z"/>
<path d="M4465 2850 c-4 -6 5 -10 19 -10 26 0 31 -9 39 -75 2 -16 5 -5 6 26 1
44 -3 58 -15 63 -23 9 -42 7 -49 -4z"/>
<path d="M4587 2842 c-53 -58 28 -137 83 -82 24 24 25 48 4 78 -19 27 -64 29
-87 4z m78 -22 c3 -11 3 -29 0 -41 -10 -30 -69 -23 -73 9 -6 37 5 52 37 52 21
0 32 -6 36 -20z"/>
<path d="M4730 2768 c0 -52 4 -88 10 -88 6 0 10 15 10 33 0 31 2 33 29 29 21
-3 33 2 45 19 36 51 8 98 -56 96 l-38 -1 0 -88z m85 52 c11 -36 -4 -62 -33
-58 -28 3 -40 32 -28 64 8 22 54 18 61 -6z"/>
<path d="M3412 2810 c0 -14 2 -19 5 -12 2 6 2 18 0 25 -3 6 -5 1 -5 -13z"/>
<path d="M3423 2715 c0 -33 2 -45 4 -27 2 18 2 45 0 60 -2 15 -4 0 -4 -33z"/>
<path d="M931 2675 c22 -34 92 -105 124 -127 17 -11 9 -2 -17 21 -26 23 -63
60 -84 84 -20 23 -31 33 -23 22z"/>
<path d="M3411 2643 c-1 -6 -4 -20 -7 -30 -5 -17 -5 -17 6 0 6 10 9 23 6 30
-3 9 -5 9 -5 0z"/>
<path d="M3343 2534 c-29 -30 -44 -50 -34 -45 18 10 91 87 91 96 0 8 -2 6 -57
-51z"/>
<path d="M1117 2509 c7 -7 15 -10 18 -7 3 3 -2 9 -12 12 -14 6 -15 5 -6 -5z"/>
<path d="M3245 2470 c-13 -6 -15 -9 -5 -9 8 0 22 4 30 9 18 12 2 12 -25 0z"/>
<path d="M1238 2463 c6 -2 18 -2 25 0 6 3 1 5 -13 5 -14 0 -19 -2 -12 -5z"/>
<path d="M1303 2453 c9 -2 25 -2 35 0 9 3 1 5 -18 5 -19 0 -27 -2 -17 -5z"/>
<path d="M1822 2453 c258 -2 678 -2 935 0 258 1 47 2 -467 2 -514 0 -725 -1
-468 -2z"/>
</g>
</svg>
