<?xml version="1.0" standalone="no"?>
<!DOCTYPE svg PUBLIC "-//W3C//DTD SVG 20010904//EN"
 "http://www.w3.org/TR/2001/REC-SVG-20010904/DTD/svg10.dtd">
<svg version="1.0" xmlns="http://www.w3.org/2000/svg"
 width="1838.000000pt" height="889.000000pt" viewBox="0 0 1838.000000 889.000000"
 preserveAspectRatio="xMidYMid meet">

<g transform="translate(0.000000,889.000000) scale(0.100000,-0.100000)"
fill="#000000" stroke="none">
<path d="M0 8430 l0 -460 9190 0 9190 0 0 460 0 460 -9190 0 -9190 0 0 -460z
m6752 299 c16 -8 22 -8 29 2 14 23 20 3 17 -52 l-3 -54 -15 29 c-24 47 -65 72
-97 60 -31 -11 -41 -37 -22 -60 7 -9 34 -26 60 -39 84 -43 115 -99 87 -160
-22 -48 -108 -72 -160 -44 -14 8 -23 8 -31 0 -21 -21 -27 -10 -27 49 0 33 4
60 10 60 6 0 10 -6 10 -14 0 -23 48 -73 76 -80 32 -8 74 16 74 43 0 21 -22 42
-70 66 -50 25 -88 63 -95 96 -7 31 15 82 42 98 24 14 89 14 115 0z m2796 -5
c38 -26 28 -73 -24 -105 l-34 -21 32 -44 c17 -24 35 -44 40 -44 5 0 14 12 20
26 9 20 9 30 0 45 -11 18 -9 19 40 19 52 0 53 -1 31 -18 -20 -15 -73 -86 -73
-97 0 -3 11 -12 24 -20 20 -13 29 -14 46 -5 32 17 34 6 5 -29 -31 -36 -71 -41
-111 -14 -23 15 -28 15 -60 0 -56 -27 -110 -22 -145 12 -16 16 -29 39 -29 51
0 33 30 77 65 96 30 16 32 20 27 63 -4 40 -1 50 23 74 32 31 87 37 123 11z
m447 7 c11 -5 25 -4 33 1 9 8 12 2 12 -23 0 -19 3 -44 6 -56 9 -34 -12 -28
-26 7 -12 30 -54 60 -83 60 -8 0 -22 -9 -31 -19 -25 -28 -7 -55 56 -87 75 -38
98 -65 98 -114 0 -80 -79 -123 -166 -90 -19 8 -30 8 -38 0 -20 -20 -26 -9 -26
50 0 33 4 60 8 60 5 0 16 -16 25 -35 22 -47 76 -73 112 -57 43 20 31 60 -30
98 -83 52 -105 77 -105 122 0 71 80 113 155 83z m404 -10 c14 -26 -8 -54 -39
-49 -25 3 -36 27 -26 54 8 20 53 17 65 -5z m-2183 -24 c56 -65 6 -147 -91
-147 l-35 0 0 -60 c0 -54 3 -62 23 -70 15 -6 -5 -9 -68 -9 -72 1 -84 3 -62 11
l27 10 0 138 0 138 -27 11 c-22 8 -1 10 90 8 117 -2 119 -3 143 -30z m-1266
-37 c0 -36 3 -40 25 -40 14 0 25 -4 25 -10 0 -5 -11 -10 -25 -10 -25 0 -25 -1
-25 -85 0 -84 5 -96 28 -73 6 6 14 9 18 6 12 -12 -37 -48 -65 -48 -46 0 -61
30 -61 122 0 62 -3 78 -15 78 -14 0 72 97 88 99 4 1 7 -17 7 -39z m219 -44
c49 -26 67 -106 36 -166 -19 -37 -43 -50 -93 -50 -97 0 -139 139 -61 204 34
29 76 33 118 12z m285 -8 c11 -16 16 -46 16 -98 0 -46 5 -81 12 -88 9 -9 -16
-12 -112 -12 -96 0 -121 3 -112 12 17 17 16 170 0 187 -11 10 -1 12 50 10 34
-1 65 1 69 4 15 16 62 6 77 -15z m233 -17 c39 -58 33 -71 -38 -71 l-61 0 6
-27 c7 -27 39 -63 57 -63 4 0 17 10 29 22 11 12 23 18 27 15 3 -4 -6 -21 -22
-37 -48 -50 -119 -39 -151 22 -59 115 83 244 153 139z m752 13 c17 -22 21 -41
21 -100 0 -48 4 -74 11 -74 8 0 8 -5 -1 -15 -16 -20 -69 -20 -77 0 -5 14 -8
14 -29 0 -45 -29 -94 -14 -94 30 0 25 30 55 78 79 25 13 32 23 32 46 0 32 -13
45 -36 36 -11 -4 -12 -11 -6 -23 5 -10 7 -24 5 -30 -6 -17 -48 -16 -62 1 -27
33 26 75 96 76 33 0 46 -5 62 -26z m272 0 c20 -22 24 -36 24 -89 0 -54 -4 -67
-25 -90 -21 -23 -31 -26 -67 -22 l-43 5 0 -39 c0 -26 6 -41 18 -48 13 -8 0
-10 -52 -11 -55 0 -67 3 -58 12 17 17 17 269 0 287 -11 10 -1 12 50 10 34 -1
65 1 69 4 15 16 61 6 84 -19z m204 20 c19 -8 45 -55 45 -84 0 -18 -6 -20 -55
-20 -52 0 -55 -1 -55 -25 0 -26 31 -65 52 -65 6 0 22 10 35 22 19 17 23 19 23
5 0 -26 -49 -57 -90 -57 -57 0 -90 43 -90 117 0 47 4 59 29 84 29 29 68 37
106 23z m260 -29 c0 -35 -31 -47 -51 -21 -11 16 -13 15 -28 -6 -23 -32 -22
-126 2 -144 15 -12 7 -13 -53 -13 -52 0 -66 2 -52 10 14 8 17 25 17 94 0 69
-3 86 -17 94 -14 8 -6 10 35 11 40 0 52 -4 52 -15 0 -12 5 -10 21 6 13 13 30
19 47 17 23 -2 27 -8 27 -33z m1083 19 c32 -22 26 -58 -9 -62 -22 -3 -29 2
-38 29 -9 27 -13 30 -26 19 -17 -14 -20 -85 -5 -124 14 -38 46 -51 76 -31 24
15 31 11 16 -11 -12 -18 -49 -34 -81 -34 -44 0 -81 37 -88 87 -7 55 1 84 33
116 31 32 86 36 122 11z m332 -26 c0 -41 -15 -51 -25 -18 -9 28 -44 46 -59 30
-8 -8 2 -22 42 -56 40 -36 52 -52 52 -75 0 -48 -31 -70 -95 -68 l-55 2 0 40 0
39 29 -31 c33 -35 49 -39 58 -14 5 11 -7 28 -40 56 -37 31 -47 46 -47 70 0 49
24 68 87 65 l53 -2 0 -38z m186 5 c9 -47 0 -50 -34 -12 -17 19 -34 29 -40 25
-21 -13 -12 -30 33 -64 54 -39 66 -73 38 -110 -17 -23 -28 -27 -75 -28 l-56
-2 -6 36 c-3 20 -4 38 -2 39 2 2 17 -10 34 -27 34 -34 50 -38 59 -14 4 11 -8
28 -40 55 -52 45 -63 69 -46 101 17 33 28 38 81 36 46 -1 48 -2 54 -35z m207
16 c37 -28 53 -86 37 -133 -25 -78 -115 -103 -171 -47 -25 26 -29 37 -29 86 0
49 4 60 29 86 37 36 94 40 134 8z m262 -14 c0 -35 -31 -47 -51 -21 -11 16 -13
15 -28 -6 -23 -32 -22 -126 2 -144 15 -12 7 -13 -53 -13 -52 0 -66 2 -52 10
14 8 17 25 17 94 0 69 -3 86 -17 94 -14 8 -6 10 35 11 40 0 52 -4 52 -15 0
-12 5 -10 21 6 13 13 30 19 47 17 23 -2 27 -8 27 -33z m167 -7 c2 -21 1 -38
-1 -38 -3 0 -16 14 -31 32 -16 19 -31 28 -38 24 -22 -13 -12 -32 33 -64 54
-38 66 -72 38 -110 -18 -23 -28 -27 -74 -27 -30 -1 -57 4 -61 10 -8 11 -11 65
-4 65 3 0 18 -14 35 -31 32 -32 54 -34 59 -7 2 10 -15 29 -41 47 -62 42 -75
83 -37 121 16 16 32 20 69 19 l49 -2 4 -39z m-1012 -63 c0 -79 3 -96 18 -104
13 -8 -1 -10 -53 -10 -52 0 -66 2 -52 10 14 8 17 25 17 94 0 69 -3 86 -17 94
-14 8 -6 10 35 11 l52 0 0 -95z m-2590 -54 c19 -37 12 -81 -19 -112 -39 -39
-60 -37 -27 2 32 38 33 49 1 49 -29 0 -45 41 -25 65 18 21 57 19 70 -4z"/>
<path d="M9467 8713 c-11 -10 -8 -52 4 -74 14 -27 39 -7 39 30 0 36 -25 62
-43 44z"/>
<path d="M9397 8563 c-11 -11 -7 -67 6 -84 19 -24 56 -41 77 -34 18 6 16 11
-22 66 -42 59 -49 65 -61 52z"/>
<path d="M8090 8640 c0 -74 11 -88 44 -54 34 33 12 124 -30 124 -11 0 -14 -16
-14 -70z"/>
<path d="M7103 8602 c-16 -10 -27 -90 -19 -135 7 -36 32 -55 49 -38 14 14 20
123 8 154 -11 28 -18 32 -38 19z"/>
<path d="M7362 8588 c-15 -15 -16 -154 -2 -163 24 -15 40 17 40 80 0 88 -10
111 -38 83z"/>
<path d="M7601 8591 c-19 -35 -13 -51 18 -51 27 0 28 2 22 32 -8 38 -26 47
-40 19z"/>
<path d="M8358 8500 c-20 -28 -23 -56 -7 -66 18 -11 31 12 27 52 l-3 39 -17
-25z"/>
<path d="M8612 8588 c-18 -18 -16 -142 4 -158 27 -23 47 10 47 79 0 75 -22
108 -51 79z"/>
<path d="M8863 8598 c-6 -7 -14 -23 -17 -35 -7 -20 -4 -23 23 -23 26 0 31 4
31 24 0 30 -23 51 -37 34z"/>
<path d="M10902 8598 c-18 -18 -16 -152 3 -168 29 -24 45 5 45 84 0 65 -10 96
-30 96 -3 0 -11 -5 -18 -12z"/>
<path d="M7765 3326 c-39 -17 -92 -78 -119 -135 -28 -63 -35 -245 -12 -322 32
-111 107 -189 181 -189 39 0 99 35 134 77 44 54 62 115 68 230 7 127 -16 215
-73 282 -57 66 -116 85 -179 57z m97 -27 c11 -6 29 -32 41 -57 29 -65 37 -316
13 -413 -37 -147 -148 -160 -190 -21 -33 112 -28 339 8 427 28 67 77 91 128
64z"/>
<path d="M9932 3319 c-90 -45 -136 -151 -136 -314 0 -133 23 -203 88 -270 51
-54 97 -65 161 -40 85 32 141 134 152 274 18 243 -119 424 -265 350z m122 -39
c42 -50 51 -101 51 -270 -1 -174 -12 -228 -55 -272 -39 -38 -80 -38 -113 2
-85 101 -70 506 20 559 34 20 70 12 97 -19z"/>
<path d="M7456 2326 c11 -8 44 -50 72 -93 47 -72 52 -84 52 -136 0 -50 -3 -59
-22 -67 -17 -6 -5 -9 47 -9 63 -1 67 1 45 12 -21 11 -25 21 -28 66 -3 51 0 59
53 138 31 46 66 88 78 93 17 7 7 9 -38 9 -45 0 -56 -2 -42 -10 9 -5 17 -17 17
-25 0 -13 -68 -124 -76 -124 -4 0 -75 110 -81 127 -3 7 5 17 18 22 19 8 8 10
-46 10 -63 1 -68 0 -49 -13z"/>
<path d="M9530 2329 c-124 -50 -136 -233 -20 -291 66 -33 155 -13 188 43 11
18 11 20 1 9 -41 -47 -97 -62 -153 -40 -78 29 -90 190 -20 251 46 39 123 27
154 -24 l20 -32 0 49 c0 42 -2 47 -15 36 -11 -9 -22 -9 -46 -1 -38 13 -75 13
-109 0z"/>
<path d="M7801 2226 c-49 -27 -65 -99 -36 -157 43 -81 166 -51 182 44 14 91
-69 155 -146 113z m96 -47 c16 -31 16 -101 1 -121 -25 -30 -48 -29 -79 1 -24
25 -29 38 -29 78 0 50 13 77 40 86 20 6 52 -14 67 -44z"/>
<path d="M7988 2230 c20 -9 22 -16 22 -93 0 -69 3 -87 18 -100 24 -22 44 -21
75 3 31 25 37 25 37 1 0 -18 3 -19 31 -9 26 9 29 12 15 20 -13 7 -16 26 -16
98 l0 90 -37 -1 c-21 -1 -31 -3 -22 -6 21 -5 29 -33 29 -100 0 -42 -4 -55 -22
-67 -55 -39 -78 -11 -78 98 l0 76 -37 -1 c-33 0 -35 -1 -15 -9z"/>
<path d="M9801 2226 c-49 -27 -65 -99 -36 -157 43 -81 166 -51 182 44 14 91
-69 155 -146 113z m96 -47 c16 -31 16 -101 1 -121 -25 -30 -48 -29 -79 1 -24
25 -29 38 -29 78 0 50 13 77 40 86 20 6 52 -14 67 -44z"/>
<path d="M10005 2226 c-24 -10 -26 -13 -12 -19 25 -10 25 -161 0 -176 -14 -8
-5 -10 37 -10 30 1 47 3 38 6 -15 4 -18 17 -18 82 0 84 8 101 51 101 34 0 39
-14 39 -100 0 -55 -4 -71 -17 -79 -14 -8 -5 -10 37 -10 42 0 51 2 38 10 -15 8
-18 24 -18 82 0 80 9 97 51 97 34 0 39 -14 39 -100 0 -55 -4 -71 -17 -79 -14
-8 -5 -10 37 -10 42 0 51 2 38 10 -14 8 -18 24 -18 79 0 38 -5 81 -12 95 -16
36 -53 43 -89 16 l-29 -21 -20 20 c-26 26 -50 25 -84 -1 l-26 -20 0 20 c0 24
-4 25 -45 7z"/>
<path d="M10375 2226 c-24 -10 -26 -13 -12 -19 15 -6 17 -23 17 -137 0 -126
-1 -131 -22 -140 -18 -7 -9 -9 37 -9 33 1 53 3 45 6 -23 9 -30 24 -30 66 0 38
1 38 31 32 41 -9 86 11 104 46 32 60 8 153 -41 165 -28 7 -74 -9 -74 -26 0
-18 -19 -11 -22 9 -3 17 -6 18 -33 7z m125 -36 c15 -15 20 -33 20 -70 0 -37
-5 -55 -20 -70 -45 -45 -90 -8 -90 74 0 45 4 58 22 70 30 21 44 20 68 -4z"/>
<path d="M7410 927 c-52 -17 -133 -102 -149 -157 -9 -33 -11 -130 -9 -355 3
-279 5 -314 22 -347 l18 -38 1713 0 1713 0 18 38 c17 33 19 68 22 347 2 225 0
322 -9 355 -17 59 -97 141 -155 158 -56 16 -3131 16 -3184 -1z m440 -477 c0
-141 2 -160 18 -169 13 -8 3 -10 -42 -11 -51 0 -57 2 -43 13 15 11 17 29 15
152 -2 106 -6 139 -15 138 -22 -5 -14 13 10 25 57 27 57 26 57 -148z m-134
107 c33 -39 31 -81 -5 -118 -24 -24 -38 -29 -75 -29 l-46 0 0 -60 c0 -54 3
-62 23 -70 16 -6 2 -9 -53 -9 -41 1 -68 3 -60 6 34 12 40 36 40 153 0 117 -6
140 -40 154 -8 3 32 4 88 3 100 -2 105 -3 128 -30z m325 -77 c16 -9 19 -22 19
-80 0 -83 7 -105 26 -89 19 16 17 -1 -3 -23 -20 -22 -49 -23 -61 -2 -8 14 -10
14 -21 0 -30 -36 -101 -9 -101 38 0 29 23 49 78 71 42 17 51 35 33 63 -13 22
-56 11 -59 -15 -4 -29 -42 -32 -42 -4 0 41 82 67 131 41z m154 -4 c-19 -14
-19 -16 10 -76 l29 -61 23 52 c26 58 29 85 11 92 -7 3 7 6 31 6 42 1 43 0 28
-17 -9 -10 -39 -74 -67 -142 -28 -69 -60 -133 -72 -143 -28 -24 -73 -19 -73 8
0 16 6 20 33 18 29 -1 36 4 49 33 16 32 15 35 -21 116 -21 46 -47 93 -58 106
l-21 22 58 0 c53 0 57 -1 40 -14z m360 0 c-19 -14 -19 -16 10 -76 l29 -61 23
52 c26 58 29 85 11 92 -7 3 7 6 31 6 42 1 43 0 28 -17 -9 -10 -39 -74 -67
-142 -28 -69 -60 -133 -72 -143 -28 -24 -73 -19 -73 8 0 16 6 20 33 18 29 -1
36 4 49 33 16 32 15 35 -21 116 -21 46 -47 93 -58 106 l-21 22 58 0 c53 0 57
-1 40 -14z m328 -6 c14 -11 31 -36 37 -55 9 -29 8 -41 -8 -79 -11 -24 -29 -49
-40 -55 -36 -19 -88 -13 -120 14 -77 65 -31 195 68 195 22 0 48 -8 63 -20z
m137 -69 c0 -98 11 -116 56 -86 21 14 24 23 24 85 0 55 -3 71 -17 79 -14 8 -9
10 25 11 l42 0 0 -96 c0 -81 2 -95 15 -90 8 3 15 1 15 -3 0 -8 -53 -31 -71
-31 -5 0 -9 7 -9 15 0 14 -3 14 -24 0 -35 -23 -78 -16 -93 15 -7 14 -13 57
-13 97 0 58 -3 74 -17 82 -14 8 -9 10 25 11 l42 0 0 -89z m240 72 c0 -15 1
-15 18 0 22 20 46 22 60 4 18 -21 -1 -39 -33 -31 -37 9 -45 -6 -45 -87 0 -59
3 -67 23 -77 18 -9 12 -11 -40 -11 l-63 -1 20 20 c32 32 25 169 -9 171 -9 0
-3 7 14 14 40 19 55 18 55 -2z m280 -5 l0 -21 23 21 c27 26 63 28 88 6 16 -15
20 -15 41 0 12 9 35 16 50 16 43 0 58 -32 58 -122 0 -63 3 -79 18 -87 13 -8 3
-10 -43 -11 -57 0 -58 1 -37 16 19 13 22 24 22 75 0 90 -26 121 -72 85 -14
-10 -18 -28 -18 -85 0 -65 2 -72 23 -81 17 -7 6 -9 -43 -9 -61 -1 -63 0 -42
15 19 13 22 24 22 75 0 90 -26 121 -72 85 -14 -10 -18 -28 -18 -85 0 -65 2
-72 23 -81 16 -6 6 -9 -43 -9 -36 1 -58 3 -50 6 25 10 30 25 30 90 0 72 -6 93
-29 94 -9 0 -4 6 14 14 42 20 55 18 55 -7z m469 7 c90 -46 47 -205 -55 -205
-46 0 -70 14 -89 50 -54 104 42 208 144 155z m164 8 c-18 -7 -15 -30 11 -92
l24 -54 20 45 c32 74 36 90 21 99 -9 6 -1 9 24 9 l38 0 -20 -27 c-10 -16 -34
-65 -52 -110 -19 -46 -38 -81 -43 -80 -5 2 -26 43 -48 93 -21 49 -48 97 -59
107 -21 17 -20 17 37 16 33 0 53 -3 47 -6z m302 1 c19 -8 48 -61 40 -74 -3 -6
-37 -10 -76 -10 -63 0 -69 -2 -69 -20 0 -29 44 -70 74 -70 14 0 33 10 44 25
26 33 33 32 20 -5 -21 -61 -94 -80 -143 -37 -48 41 -43 146 9 182 21 15 72 20
101 9z"/>
<path d="M7590 500 l0 -70 29 0 c55 0 82 79 41 120 -11 11 -31 20 -45 20 -24
0 -25 -2 -25 -70z"/>
<path d="M7978 374 c-31 -16 -39 -60 -14 -70 28 -11 56 15 56 51 0 39 -3 41
-42 19z"/>
<path d="M8774 445 c-32 -49 2 -155 50 -155 34 0 50 25 50 80 0 88 -61 134
-100 75z"/>
<path d="M9910 451 c-18 -34 -12 -106 11 -135 24 -31 64 -34 79 -7 18 34 12
106 -11 135 -24 31 -64 34 -79 7z"/>
<path d="M10382 458 c-25 -25 -13 -38 33 -38 30 0 45 4 45 13 0 19 -21 37 -45
37 -12 0 -26 -5 -33 -12z"/>
</g>
</svg>
