<?xml version="1.0" standalone="no"?>
<!DOCTYPE svg PUBLIC "-//W3C//DTD SVG 20010904//EN"
 "http://www.w3.org/TR/2001/REC-SVG-20010904/DTD/svg10.dtd">
<svg version="1.0" xmlns="http://www.w3.org/2000/svg"
 width="1336.000000pt" height="875.000000pt" viewBox="0 0 1336.000000 875.000000"
 preserveAspectRatio="xMidYMid meet">

<g transform="translate(0.000000,875.000000) scale(0.100000,-0.100000)"
fill="#000000" stroke="none">
<path d="M5500 7986 c-27 -33 18 -72 48 -42 13 13 14 20 6 34 -15 23 -38 26
-54 8z"/>
<path d="M5160 7943 l1 -48 13 31 c15 33 33 44 72 44 l24 0 0 -132 c0 -73 -4
-138 -8 -144 -4 -7 -16 -14 -27 -17 -11 -2 21 -5 70 -5 51 0 79 3 65 7 -25 7
-25 7 -28 149 l-3 142 28 0 c35 0 46 -8 66 -45 l16 -30 1 48 0 47 -145 0 -145
0 0 -47z"/>
<path d="M5981 7943 c1 -27 4 -39 6 -28 8 33 34 55 65 55 l28 0 0 -140 c0
-136 -1 -141 -22 -150 -17 -6 1 -9 62 -9 61 0 79 3 63 9 -22 9 -23 14 -23 150
l0 140 28 0 c28 0 54 -20 65 -50 3 -8 6 4 6 28 l1 42 -140 0 -140 0 1 -47z"/>
<path d="M6871 7943 c1 -27 4 -39 6 -28 8 33 34 55 65 55 l28 0 0 -140 c0
-136 -1 -141 -22 -150 -17 -6 1 -9 62 -9 61 0 79 3 63 9 -22 9 -23 14 -23 150
l0 140 28 0 c28 0 54 -20 65 -50 3 -8 6 4 6 28 l1 42 -140 0 -140 0 1 -47z"/>
<path d="M5662 7874 c-88 -61 -55 -214 46 -214 22 0 86 39 78 47 -4 4 -12 1
-18 -5 -37 -37 -87 5 -95 82 -9 75 31 116 54 55 14 -36 46 -37 51 -2 6 44 -71
69 -116 37z"/>
<path d="M6304 7876 c-38 -17 -50 -44 -29 -65 12 -12 19 -13 33 -4 9 6 16 16
15 22 -2 6 -4 17 -5 24 -2 7 7 12 22 12 25 0 25 -1 25 -85 0 -88 12 -120 45
-120 19 0 61 29 43 30 -9 0 -13 22 -13 75 0 67 -3 79 -25 100 -27 28 -64 31
-111 11z"/>
<path d="M6554 7879 c-32 -16 -54 -62 -54 -114 0 -38 5 -52 29 -76 36 -36 80
-38 113 -6 13 12 19 19 14 15 -18 -14 -53 -8 -71 12 -23 25 -33 123 -15 145
18 21 27 19 42 -12 16 -34 52 -38 56 -6 6 41 -63 66 -114 42z"/>
<path d="M7203 7880 c-55 -23 -76 -125 -36 -178 27 -36 85 -51 121 -31 38 20
66 81 58 124 -13 70 -83 111 -143 85z m66 -24 c19 -22 10 -156 -11 -169 -12
-8 -21 -7 -32 2 -20 17 -23 150 -4 169 16 16 33 15 47 -2z"/>
<path d="M7441 7876 c-34 -19 -50 -54 -51 -109 0 -41 5 -53 29 -78 19 -19 40
-29 59 -29 30 0 82 33 82 52 0 6 -9 3 -20 -7 -25 -23 -63 -13 -78 20 -23 49
-17 55 49 55 52 0 60 2 55 16 -3 9 -6 22 -6 30 0 23 -47 64 -72 64 -13 -1 -34
-7 -47 -14z m63 -22 c14 -37 7 -54 -24 -54 -23 0 -30 5 -30 19 0 32 11 51 30
51 10 0 21 -7 24 -16z"/>
<path d="M5478 7868 c7 -7 12 -43 12 -93 0 -50 -5 -86 -12 -93 -9 -9 1 -12 47
-12 46 0 56 3 47 12 -8 8 -12 46 -12 105 l0 93 -47 0 c-37 0 -44 -3 -35 -12z"/>
<path d="M5810 7785 c0 -24 2 -25 70 -25 68 0 70 1 70 25 0 24 -2 25 -70 25
-68 0 -70 -1 -70 -25z"/>
<path d="M6700 7785 c0 -24 2 -25 70 -25 68 0 70 1 70 25 0 24 -2 25 -70 25
-68 0 -70 -1 -70 -25z"/>
<path d="M6315 7772 c-41 -26 -57 -47 -53 -73 5 -33 31 -45 65 -30 24 11 26
14 10 22 -23 13 -22 41 4 73 24 31 16 33 -26 8z"/>
<path d="M5550 1321 c-69 -22 -121 -65 -156 -131 -17 -31 -19 -59 -19 -240 0
-181 2 -209 19 -240 26 -49 64 -88 111 -113 l40 -22 815 0 815 0 40 22 c47 25
85 64 111 113 17 31 19 59 19 240 0 181 -2 209 -19 240 -26 49 -64 88 -111
113 -40 22 -41 22 -840 24 -440 1 -811 -2 -825 -6z m208 -293 c17 -17 15 -55
-5 -66 -15 -9 -14 -13 5 -44 26 -41 27 -48 8 -48 -7 0 -25 18 -40 40 -16 24
-34 40 -46 40 -17 0 -20 -7 -20 -40 0 -29 -4 -40 -15 -40 -12 0 -15 16 -15 85
l0 85 58 0 c32 0 63 -5 70 -12z m338 -28 c8 0 14 -4 14 -10 0 -5 -7 -10 -15
-10 -11 0 -15 -11 -15 -40 0 -27 5 -43 15 -46 23 -9 18 -26 -7 -22 -20 3 -23
10 -26 53 -2 27 -9 53 -15 57 -8 6 -9 10 -1 16 6 4 14 16 19 27 8 19 9 19 12
-2 3 -13 11 -23 19 -23z m280 0 c8 0 14 -4 14 -10 0 -5 -7 -10 -15 -10 -11 0
-15 -11 -15 -40 0 -27 5 -43 15 -46 23 -9 18 -26 -7 -22 -20 3 -23 10 -26 56
-3 51 -4 53 -30 50 -25 -3 -27 -7 -30 -55 -2 -38 -7 -53 -18 -53 -11 0 -14 15
-14 65 l0 65 44 0 c36 0 45 4 51 23 l8 22 4 -22 c2 -13 11 -23 19 -23z m228
24 c17 -16 22 -44 8 -44 -4 0 -15 9 -25 20 -44 52 -113 -6 -87 -74 11 -30 49
-42 79 -26 29 15 27 40 -4 40 -14 0 -25 5 -25 10 0 6 18 10 40 10 38 0 40 -2
40 -29 0 -37 -32 -61 -80 -61 -42 1 -65 17 -80 55 -13 33 2 90 28 105 26 15
89 12 106 -6z m-706 -36 c5 -7 13 -23 16 -35 7 -20 3 -22 -44 -25 -49 -3 -50
-4 -37 -23 14 -18 18 -18 41 -6 30 17 45 9 26 -14 -16 -20 -74 -19 -91 1 -20
24 -16 84 6 100 23 17 69 18 83 2z m122 -3 c17 -21 4 -32 -20 -17 -24 15 -40
15 -40 2 0 -5 16 -16 35 -24 68 -29 34 -90 -40 -72 -14 4 -25 13 -25 21 0 17
16 20 25 5 8 -13 42 -13 50 0 3 5 -12 17 -34 26 -31 12 -41 22 -41 39 0 13 6
26 13 28 25 11 65 6 77 -8z m198 3 c7 -7 12 -35 12 -64 l0 -51 -50 -2 c-38 0
-52 4 -59 17 -14 26 4 49 45 56 21 4 34 12 31 19 -5 15 -47 22 -47 8 0 -6 -7
-11 -15 -11 -18 0 -19 12 -3 28 16 16 70 16 86 0z m530 0 c5 -7 12 -36 13 -64
l4 -51 -55 1 c-54 1 -55 2 -55 31 0 26 5 30 38 38 20 5 37 13 37 17 0 18 -23
22 -46 9 -28 -15 -42 -6 -24 16 15 18 74 20 88 3z m210 -55 c2 -52 0 -63 -13
-63 -12 0 -15 12 -15 56 0 47 -3 55 -17 52 -14 -2 -19 -15 -21 -56 -2 -37 -7
-52 -18 -52 -10 0 -14 13 -14 49 0 28 -5 53 -12 57 -17 11 -38 -26 -38 -68 0
-21 -4 -38 -10 -38 -6 0 -10 28 -10 64 l0 63 83 -1 82 -1 3 -62z m124 50 c10
-9 18 -24 18 -35 0 -15 -8 -18 -45 -18 -32 0 -45 -4 -45 -14 0 -21 35 -29 59
-14 27 16 42 0 17 -18 -46 -33 -106 -5 -106 49 0 58 60 88 102 50z"/>
<path d="M5660 995 c0 -21 5 -25 28 -25 36 0 56 14 49 34 -4 10 -19 16 -42 16
-31 0 -35 -3 -35 -25z"/>
<path d="M5837 973 c-15 -14 -6 -23 24 -23 27 0 30 2 19 15 -13 16 -32 19 -43
8z"/>
<path d="M6172 921 c-25 -6 -31 -24 -10 -28 17 -4 41 12 37 24 -2 5 -14 7 -27
4z"/>
<path d="M6703 922 c-13 -2 -23 -10 -23 -18 0 -19 39 -18 47 1 7 20 4 22 -24
17z"/>
<path d="M7017 974 c-15 -15 -6 -24 24 -24 20 0 29 4 27 13 -5 14 -40 21 -51
11z"/>
</g>
</svg>
