<?xml version="1.0" standalone="no"?>
<!DOCTYPE svg PUBLIC "-//W3C//DTD SVG 20010904//EN"
 "http://www.w3.org/TR/2001/REC-SVG-20010904/DTD/svg10.dtd">
<svg version="1.0" xmlns="http://www.w3.org/2000/svg"
 width="1920.000000pt" height="837.000000pt" viewBox="0 0 1920.000000 837.000000"
 preserveAspectRatio="xMidYMid meet">

<g transform="translate(0.000000,837.000000) scale(0.100000,-0.100000)"
fill="#000000" stroke="none">
<path d="M3680 7680 c0 -54 -1 -56 -30 -38 -16 10 -24 9 -47 -8 -66 -49 -22
-161 48 -124 17 10 24 10 27 1 2 -6 10 -11 18 -11 11 0 14 22 14 115 0 96 -3
115 -15 115 -11 0 -15 -12 -15 -50z m-12 -72 c30 -30 2 -86 -38 -73 -19 6 -25
22 -20 55 4 28 37 39 58 18z"/>
<path d="M3019 7687 c-71 -47 -59 -154 20 -178 28 -8 51 -9 73 -3 31 9 33 12
36 62 l3 52 -40 0 c-34 0 -41 -3 -41 -20 0 -13 7 -20 20 -20 13 0 20 -7 20
-20 0 -15 -7 -20 -29 -20 -39 0 -61 24 -61 64 0 44 26 66 78 66 29 0 42 4 42
14 0 33 -74 35 -121 3z"/>
<path d="M3860 7605 c0 -98 1 -105 18 -96 11 6 17 22 17 43 0 30 3 33 33 36
42 4 44 32 2 32 -27 0 -30 3 -30 30 0 28 3 30 35 30 24 0 35 5 35 15 0 12 -13
15 -55 15 l-55 0 0 -105z"/>
<path d="M15870 7675 c0 -9 5 -15 11 -13 6 2 11 8 11 13 0 5 -5 11 -11 13 -6
2 -11 -4 -11 -13z"/>
<path d="M1680 7590 c0 -73 3 -90 15 -90 12 0 15 17 15 90 0 73 -3 90 -15 90
-12 0 -15 -17 -15 -90z"/>
<path d="M1750 7590 c0 -53 4 -90 10 -90 6 0 10 37 10 90 0 53 -4 90 -10 90
-6 0 -10 -37 -10 -90z"/>
<path d="M2490 7665 c0 -8 7 -15 15 -15 8 0 15 7 15 15 0 8 -7 15 -15 15 -8 0
-15 -7 -15 -15z"/>
<path d="M15720 7671 c0 -5 10 -11 23 -13 20 -3 22 -9 25 -75 2 -40 7 -73 12
-73 5 0 10 33 12 73 3 66 5 72 26 75 46 7 20 22 -38 22 -33 0 -60 -4 -60 -9z"/>
<path d="M16453 7663 c-26 -17 -32 -46 -8 -37 12 5 15 -5 15 -55 0 -48 3 -61
15 -61 12 0 15 14 15 69 0 38 3 76 6 85 8 20 -14 20 -43 -1z"/>
<path d="M16582 7664 c-18 -12 -22 -25 -22 -68 0 -62 23 -92 63 -82 64 16 57
166 -8 166 -6 0 -21 -7 -33 -16z m52 -30 c9 -23 7 -67 -3 -83 -13 -20 -37 -7
-45 22 -12 50 31 105 48 61z"/>
<path d="M16808 7662 c-33 -20 -36 -32 -8 -32 18 0 20 -7 20 -60 0 -47 3 -60
15 -60 12 0 15 16 15 85 0 47 -3 85 -7 85 -5 0 -20 -8 -35 -18z"/>
<path d="M16938 7673 c-31 -8 -21 -30 11 -25 45 6 45 -20 0 -66 -47 -48 -51
-72 -11 -72 39 0 73 11 66 21 -3 5 -20 9 -37 9 l-32 0 38 35 c40 36 46 64 21
89 -16 16 -24 17 -56 9z"/>
<path d="M1370 7585 c0 -69 3 -85 15 -85 11 0 15 11 15 40 l0 40 40 0 40 0 0
-40 c0 -22 5 -40 10 -40 6 0 10 35 10 85 0 50 -4 85 -10 85 -5 0 -10 -16 -10
-35 0 -34 -1 -35 -40 -35 -39 0 -40 1 -40 35 0 24 -5 35 -15 35 -12 0 -15 -16
-15 -85z"/>
<path d="M2134 7659 c-72 -36 -45 -159 35 -159 50 0 61 9 61 51 0 37 -2 39
-30 39 -16 0 -30 -4 -30 -10 0 -5 7 -10 15 -10 20 0 20 -39 0 -46 -8 -4 -26 1
-40 10 -56 37 -15 128 51 112 19 -5 25 -3 22 6 -6 16 -56 20 -84 7z"/>
<path d="M3217 7630 c-71 -56 5 -161 86 -119 30 16 37 28 37 65 0 41 -19 63
-60 70 -27 4 -42 1 -63 -16z m70 -18 c24 -15 19 -69 -7 -77 -26 -8 -50 11 -50
39 0 36 29 56 57 38z"/>
<path d="M3406 7629 c-57 -45 -13 -139 58 -125 43 9 66 34 66 72 0 37 -37 74
-75 74 -12 0 -34 -9 -49 -21z m68 -15 c25 -10 21 -71 -4 -79 -40 -13 -68 43
-38 73 14 14 20 14 42 6z"/>
<path d="M4005 7640 c3 -5 8 -10 11 -10 2 0 4 5 4 10 0 6 -5 10 -11 10 -5 0
-7 -4 -4 -10z"/>
<path d="M15870 7570 c0 -33 4 -60 10 -60 6 0 10 27 10 60 0 33 -4 60 -10 60
-6 0 -10 -27 -10 -60z"/>
<path d="M15940 7570 c0 -33 4 -60 10 -60 6 0 10 17 10 39 0 39 20 68 40 56 5
-3 10 -26 10 -51 0 -32 4 -44 14 -44 11 0 16 14 18 48 3 39 6 47 23 47 17 0
20 -8 23 -47 2 -36 7 -48 19 -48 13 0 15 9 10 52 -8 64 -18 76 -55 62 -20 -8
-33 -7 -45 0 -12 8 -22 7 -37 -2 -12 -7 -20 -8 -20 -2 0 5 -4 10 -10 10 -6 0
-10 -27 -10 -60z"/>
<path d="M16167 7612 c-10 -10 -17 -33 -17 -51 0 -37 32 -58 74 -47 35 9 33
24 -2 18 -18 -2 -33 2 -41 12 -12 14 -9 16 28 16 36 0 41 3 41 23 0 46 -52 64
-83 29z m61 -19 c2 -9 -7 -13 -28 -13 -28 0 -31 2 -20 15 15 18 41 16 48 -2z"/>
<path d="M16280 7615 c0 -8 7 -15 15 -15 8 0 15 7 15 15 0 8 -7 15 -15 15 -8
0 -15 -7 -15 -15z"/>
<path d="M16705 7620 c-7 -12 2 -30 16 -30 5 0 9 9 9 20 0 21 -15 27 -25 10z"/>
<path d="M17066 7621 c-4 -7 -5 -15 -2 -18 9 -9 19 4 14 18 -4 11 -6 11 -12 0z"/>
<path d="M1560 7600 c-39 -39 -11 -103 43 -98 41 4 46 23 5 23 -17 0 -33 6
-35 13 -3 8 8 12 36 12 34 0 41 3 41 19 0 25 -26 51 -51 51 -10 0 -28 -9 -39
-20z m58 -17 c2 -8 -6 -13 -22 -13 -25 0 -33 10 -19 24 10 10 36 3 41 -11z"/>
<path d="M1832 7604 c-45 -31 -17 -104 40 -104 51 0 78 69 40 103 -23 21 -51
22 -80 1z m63 -44 c0 -31 -3 -35 -25 -35 -19 0 -26 6 -28 23 -5 36 5 54 30 50
19 -2 23 -9 23 -38z"/>
<path d="M2283 7613 c-25 -10 -12 -22 17 -16 40 8 40 -13 -1 -22 -63 -14 -48
-69 20 -72 l41 -2 0 48 c0 26 -5 52 -12 59 -12 12 -43 15 -65 5z m47 -68 c0
-16 -27 -32 -37 -22 -3 4 -3 13 0 22 8 20 37 20 37 0z"/>
<path d="M2400 7558 c0 -32 4 -58 10 -58 6 0 10 14 10 31 0 38 16 69 35 69 8
0 15 4 15 9 0 5 -16 9 -35 8 l-35 -1 0 -58z"/>
<path d="M2490 7560 c0 -47 3 -60 15 -60 12 0 15 13 15 60 0 47 -3 60 -15 60
-12 0 -15 -13 -15 -60z"/>
<path d="M2560 7558 c0 -32 4 -58 10 -58 6 0 10 15 10 33 0 38 22 73 38 63 7
-4 12 -27 12 -52 0 -32 4 -44 15 -44 11 0 15 11 15 39 0 39 20 68 40 56 5 -3
10 -26 10 -51 0 -32 4 -44 15 -44 18 0 21 70 5 101 -12 21 -40 25 -58 7 -8 -8
-15 -8 -24 0 -7 5 -30 10 -50 9 l-38 -1 0 -58z"/>
<path d="M2787 7613 c-14 -14 -6 -19 23 -15 40 6 38 -13 -2 -24 -26 -8 -34
-16 -36 -37 -2 -15 0 -28 5 -28 4 -1 27 -3 51 -4 l42 -3 0 47 c0 26 -5 52 -12
59 -13 13 -60 16 -71 5z m53 -67 c0 -8 -5 -18 -10 -21 -17 -11 -40 3 -34 20 8
19 44 20 44 1z"/>
<path d="M16705 7540 c-7 -12 2 -30 16 -30 5 0 9 9 9 20 0 21 -15 27 -25 10z"/>
<path d="M16280 7525 c0 -8 7 -15 15 -15 8 0 15 7 15 15 0 8 -7 15 -15 15 -8
0 -15 -7 -15 -15z"/>
<path d="M1960 7516 c0 -8 -3 -21 -6 -30 -3 -9 -2 -16 4 -16 6 0 15 14 21 30
8 24 7 30 -5 30 -7 0 -14 -6 -14 -14z"/>
<path d="M10450 6430 c0 -25 4 -30 25 -30 21 0 25 5 25 30 0 25 -4 30 -25 30
-21 0 -25 -5 -25 -30z"/>
<path d="M10540 6430 l0 -30 110 0 c104 0 110 1 135 25 14 14 25 28 25 30 0 3
-61 5 -135 5 l-135 0 0 -30z"/>
<path d="M9883 6443 c-7 -2 -13 -15 -13 -28 0 -28 34 -43 55 -25 37 30 3 72
-42 53z"/>
<path d="M8340 6405 c0 -22 4 -25 40 -25 l40 0 0 -125 0 -125 35 0 35 0 0 125
0 125 40 0 c36 0 40 3 40 25 l0 25 -115 0 -115 0 0 -25z"/>
<path d="M8960 6280 l0 -150 70 0 c80 0 124 15 160 55 22 23 25 36 25 100 0
59 -4 77 -20 95 -31 35 -78 50 -160 50 l-75 0 0 -150z m139 89 c39 -14 51 -35
51 -92 0 -53 -29 -85 -84 -94 l-36 -6 0 102 c0 112 1 114 69 90z"/>
<path d="M9660 6280 l0 -150 85 0 c84 0 85 0 85 24 0 23 -4 25 -52 28 l-53 3
-3 123 -3 122 -29 0 -30 0 0 -150z"/>
<path d="M10230 6400 c-16 -4 -26 -14 -28 -28 -2 -14 -10 -22 -23 -22 -26 0
-26 -40 1 -47 17 -5 20 -14 20 -69 0 -51 4 -68 21 -85 28 -28 83 -23 87 9 3
16 -2 22 -16 22 -24 0 -32 18 -32 76 0 40 2 44 25 44 20 0 25 5 25 25 0 20 -5
25 -24 25 -20 0 -25 6 -28 28 -3 24 -6 27 -28 22z"/>
<path d="M10450 6340 c0 -25 4 -30 25 -30 21 0 25 5 25 30 0 25 -4 30 -25 30
-21 0 -25 -5 -25 -30z"/>
<path d="M10540 6340 l0 -30 64 0 c56 0 66 3 94 30 l32 30 -95 0 -95 0 0 -30z"/>
<path d="M8625 6341 c-40 -18 -60 -51 -60 -102 0 -39 5 -54 26 -75 36 -36 102
-43 146 -15 58 37 64 135 10 180 -21 16 -95 24 -122 12z m83 -53 c7 -7 12 -28
12 -48 0 -41 -14 -60 -46 -60 -28 0 -47 24 -47 60 0 16 5 36 13 44 15 19 51
21 68 4z"/>
<path d="M9308 6334 c-36 -19 -48 -43 -48 -99 0 -35 6 -52 24 -70 92 -92 238
11 184 130 -23 51 -103 70 -160 39z m97 -51 c19 -19 15 -81 -7 -95 -23 -14
-57 -9 -68 11 -35 66 25 134 75 84z"/>
<path d="M9870 6240 l0 -110 35 0 35 0 0 110 0 110 -35 0 -35 0 0 -110z"/>
<path d="M10021 6337 c-60 -30 -53 -84 14 -116 25 -12 45 -25 45 -31 0 -16
-43 -22 -73 -11 -25 10 -27 9 -27 -14 0 -29 32 -41 87 -32 90 15 100 92 17
128 -24 10 -44 23 -44 28 0 16 35 22 64 12 24 -10 26 -8 26 13 0 36 -59 49
-109 23z"/>
<path d="M10450 6250 c0 -25 4 -30 25 -30 21 0 25 5 25 30 0 25 -4 30 -25 30
-21 0 -25 -5 -25 -30z"/>
<path d="M10540 6250 c0 -45 38 -39 79 13 12 16 10 17 -33 17 -44 0 -46 -1
-46 -30z"/>
<path d="M10450 6159 c0 -26 3 -30 23 -27 16 2 23 11 25 31 3 23 0 27 -22 27
-22 0 -26 -4 -26 -31z"/>
<path d="M11777 5316 c-67 -19 -126 -63 -162 -121 -25 -41 -31 -61 -34 -127
-4 -97 14 -150 71 -208 22 -23 61 -52 86 -63 46 -22 57 -22 537 -22 270 -1
370 1 222 2 l-267 3 100 100 c55 55 100 102 100 105 0 3 -12 5 -26 5 -17 0
-28 -6 -31 -20 -3 -13 -14 -20 -29 -20 l-24 0 21 53 c12 28 26 67 32 85 9 27
15 32 36 30 19 -2 28 -12 39 -45 7 -24 18 -43 23 -43 5 0 74 65 154 145 l145
145 -167 0 c-93 0 -305 2 -473 5 -241 4 -315 2 -353 -9z"/>
<path d="M13543 5050 c0 -25 2 -35 4 -22 2 12 2 32 0 45 -2 12 -4 2 -4 -23z"/>
<path d="M12396 5044 c-9 -22 -8 -24 9 -24 8 0 15 6 15 14 0 22 -17 28 -24 10z"/>
<path d="M5670 4155 l0 -65 30 0 c44 0 84 42 75 78 -8 35 -31 52 -72 52 l-33
0 0 -65z m81 24 c16 -31 -3 -69 -36 -69 -23 0 -25 4 -25 45 0 41 2 45 25 45
15 0 29 -8 36 -21z"/>
<path d="M6175 4210 c-3 -6 5 -10 19 -10 38 0 40 -15 6 -53 -40 -46 -38 -57
10 -57 22 0 40 5 40 10 0 6 -15 10 -32 10 l-33 1 26 22 c32 27 39 46 27 70 -9
18 -53 23 -63 7z"/>
<path d="M6298 4152 c-29 -71 -34 -93 -19 -76 8 8 61 131 61 141 0 2 -3 3 -7
3 -5 0 -20 -31 -35 -68z"/>
<path d="M6374 4205 c-4 -8 -3 -22 0 -30 3 -9 0 -24 -6 -35 -22 -35 30 -68 60
-38 15 15 16 48 2 48 -7 0 -7 7 0 21 9 15 8 24 -1 35 -15 18 -48 18 -55 -1z
m46 -20 c0 -8 -6 -15 -14 -15 -17 0 -28 14 -19 24 12 12 33 6 33 -9z m5 -55
c0 -8 -10 -16 -22 -18 -22 -3 -32 16 -16 32 12 11 38 2 38 -14z"/>
<path d="M6507 4188 c-26 -63 -27 -84 -2 -29 14 29 24 56 21 58 -3 3 -11 -10
-19 -29z"/>
<path d="M6565 4210 c-3 -5 -2 -10 4 -10 5 0 13 5 16 10 3 6 2 10 -4 10 -5 0
-13 -4 -16 -10z"/>
<path d="M5910 4195 c0 -8 -5 -15 -12 -15 -9 0 -9 -3 0 -12 7 -7 12 -25 12
-40 0 -28 24 -48 38 -33 4 4 1 10 -5 12 -7 3 -13 15 -13 28 0 13 6 26 13 29
10 5 10 7 0 12 -7 3 -13 12 -13 20 0 8 -4 14 -10 14 -5 0 -10 -7 -10 -15z"/>
<path d="M5805 4171 c-4 -7 5 -11 22 -12 l28 -1 -28 -10 c-21 -7 -27 -16 -25
-32 2 -16 11 -21 36 -23 33 -1 33 -1 30 40 -3 37 -6 42 -30 45 -14 2 -29 -2
-33 -7z m45 -46 c0 -8 -7 -15 -15 -15 -26 0 -18 20 13 29 1 1 2 -6 2 -14z"/>
<path d="M5976 4165 c-9 -9 -16 -23 -16 -30 0 -20 28 -45 50 -45 29 0 33 18 5
22 -35 4 -36 22 -2 26 20 3 27 8 25 20 -4 23 -42 27 -62 7z m47 -12 c-7 -2
-21 -2 -30 0 -10 3 -4 5 12 5 17 0 24 -2 18 -5z"/>
<path d="M6070 4170 c0 -5 5 -10 10 -10 6 0 10 5 10 10 0 6 -4 10 -10 10 -5 0
-10 -4 -10 -10z"/>
<path d="M6070 4100 c0 -5 5 -10 10 -10 6 0 10 5 10 10 0 6 -4 10 -10 10 -5 0
-10 -4 -10 -10z"/>
<path d="M13030 3750 c-6 -12 -21 -20 -37 -20 -20 0 -23 -3 -15 -13 6 -7 12
-49 14 -92 l3 -80 80 0 80 0 3 80 c2 43 8 85 14 92 8 10 5 13 -15 13 -16 0
-31 8 -37 20 -8 14 -21 20 -45 20 -24 0 -37 -6 -45 -20z m80 -10 c0 -5 -16
-10 -35 -10 -19 0 -35 5 -35 10 0 6 16 10 35 10 19 0 35 -4 35 -10z m-60 -105
c0 -30 -4 -55 -10 -55 -5 0 -10 25 -10 55 0 30 5 55 10 55 6 0 10 -25 10 -55z
m30 0 c0 -30 -4 -55 -10 -55 -5 0 -10 25 -10 55 0 30 5 55 10 55 6 0 10 -25
10 -55z m40 0 c0 -30 -4 -55 -10 -55 -5 0 -10 25 -10 55 0 30 5 55 10 55 6 0
10 -25 10 -55z"/>
<path d="M8000 3650 c0 -53 4 -90 10 -90 6 0 10 37 10 90 0 53 -4 90 -10 90
-6 0 -10 -37 -10 -90z"/>
<path d="M8850 3705 c0 -33 -2 -35 -25 -29 -52 13 -88 -62 -49 -100 17 -18 50
-21 59 -6 3 6 -5 10 -19 10 -33 0 -51 32 -36 61 8 14 19 19 38 17 23 -3 27 -8
28 -38 2 -55 3 -60 14 -60 6 0 10 37 10 90 0 53 -4 90 -10 90 -5 0 -10 -16
-10 -35z"/>
<path d="M9262 3728 c-7 -7 -12 -20 -12 -29 0 -10 -6 -20 -12 -22 -10 -4 -10
-7 -1 -14 6 -5 13 -31 16 -58 l3 -50 2 53 c2 39 6 52 17 52 8 0 15 5 15 10 0
6 -7 10 -15 10 -22 0 -18 31 5 37 11 3 20 9 20 14 0 13 -24 11 -38 -3z"/>
<path d="M7620 3645 l0 -85 40 0 c22 0 40 5 40 10 0 6 -16 10 -35 10 -32 0
-35 2 -35 30 0 28 3 30 35 30 19 0 35 5 35 10 0 6 -16 10 -35 10 -31 0 -35 3
-35 25 0 22 4 25 35 25 19 0 35 5 35 10 0 6 -18 10 -40 10 l-40 0 0 -85z"/>
<path d="M8500 3645 c0 -50 4 -85 10 -85 6 0 10 16 10 35 0 46 23 46 52 0 13
-19 26 -35 31 -35 13 0 8 14 -16 44 -23 28 -23 30 -5 48 36 36 10 78 -48 78
l-34 0 0 -85z m75 35 c0 -20 -6 -26 -27 -28 -25 -3 -28 0 -28 28 0 28 3 31 28
28 21 -2 27 -8 27 -28z"/>
<path d="M9638 3719 c-31 -18 -22 -53 20 -80 20 -13 37 -31 37 -39 0 -10 -12
-16 -37 -18 -47 -4 -50 -22 -5 -22 69 0 79 56 16 95 -48 31 -46 50 4 50 21 0
36 5 34 10 -5 14 -49 17 -69 4z"/>
<path d="M10252 3643 l2 -88 5 70 6 70 33 -70 33 -70 34 70 33 70 1 -67 c1
-38 5 -68 11 -68 6 0 10 35 10 85 0 107 -16 112 -55 20 -16 -36 -31 -65 -34
-65 -3 0 -17 28 -31 62 -38 92 -50 87 -48 -19z"/>
<path d="M9755 3703 c-4 -13 -12 -23 -17 -23 -7 0 -7 -5 0 -13 6 -7 12 -33 14
-57 2 -38 7 -46 26 -48 12 -2 22 1 22 7 0 6 -7 11 -15 11 -22 0 -20 69 3 86
16 12 16 13 0 14 -9 0 -19 10 -21 23 l-4 22 -8 -22z"/>
<path d="M9965 3703 c-4 -13 -12 -23 -18 -23 -7 0 -7 -4 1 -12 7 -7 12 -28 12
-48 0 -20 5 -41 12 -48 15 -15 38 -16 38 -2 0 6 -7 10 -15 10 -11 0 -15 11
-15 40 0 29 4 40 15 40 8 0 15 5 15 10 0 6 -6 10 -14 10 -8 0 -17 10 -19 23
l-4 22 -8 -22z"/>
<path d="M11625 3703 c-4 -13 -12 -23 -17 -23 -7 0 -7 -5 0 -13 6 -7 12 -33
14 -57 2 -38 7 -46 26 -48 12 -2 22 1 22 7 0 6 -7 11 -15 11 -22 0 -20 69 3
86 16 12 16 13 0 14 -9 0 -19 10 -21 23 l-4 22 -8 -22z"/>
<path d="M7730 3675 c0 -3 7 -17 16 -30 15 -23 15 -27 -1 -51 -9 -14 -14 -29
-10 -32 6 -6 17 7 29 33 3 6 13 0 22 -12 24 -34 38 -28 17 7 -17 29 -17 31 0
60 10 17 14 30 9 30 -5 0 -14 -12 -21 -27 -12 -27 -13 -27 -27 -8 -8 10 -14
22 -14 27 0 4 -4 8 -10 8 -5 0 -10 -2 -10 -5z"/>
<path d="M7850 3590 c0 -53 4 -90 10 -90 6 0 10 19 10 42 0 33 3 39 12 30 32
-32 78 0 78 54 0 27 -5 37 -24 46 -14 6 -33 7 -43 3 -15 -7 -13 -9 12 -14 26
-5 30 -10 30 -41 0 -32 -2 -35 -30 -35 -27 0 -30 3 -31 35 -2 55 -3 60 -14 60
-6 0 -10 -37 -10 -90z"/>
<path d="M8070 3660 c-11 -11 -20 -29 -20 -40 0 -26 34 -60 60 -60 25 0 60 34
60 58 0 54 -62 80 -100 42z m75 -40 c0 -32 -3 -35 -32 -38 -24 -2 -33 1 -38
17 -3 12 -3 30 0 42 5 16 14 19 38 17 29 -3 32 -6 32 -38z"/>
<path d="M8212 3620 c1 -60 1 -62 7 -20 5 34 12 47 29 55 12 5 22 13 22 17 0
12 -28 9 -36 -3 -4 -8 -9 -7 -15 2 -5 9 -8 -11 -7 -51z"/>
<path d="M8307 3662 c-35 -39 -11 -102 38 -102 37 0 39 18 3 22 -49 5 -48 28
1 28 34 0 41 3 41 19 0 24 -26 51 -49 51 -10 0 -25 -8 -34 -18z m61 -19 c2 -9
-7 -13 -27 -13 -30 0 -39 9 -24 24 11 10 46 3 51 -11z"/>
<path d="M8647 3662 c-35 -39 -11 -102 38 -102 37 0 39 18 3 22 -49 5 -48 28
1 28 34 0 41 3 41 19 0 24 -26 51 -49 51 -10 0 -25 -8 -34 -18z m61 -19 c2 -9
-7 -13 -27 -13 -30 0 -39 9 -24 24 11 10 46 3 51 -11z"/>
<path d="M8912 3629 c3 -60 24 -82 58 -61 12 7 20 8 20 2 0 -5 5 -10 10 -10 6
0 10 27 10 60 0 71 -18 81 -22 13 -3 -44 -5 -48 -30 -51 -27 -3 -28 -2 -28 47
0 29 -5 51 -11 51 -6 0 -9 -20 -7 -51z"/>
<path d="M9060 3650 l21 -30 -21 -30 c-12 -16 -17 -30 -12 -30 5 0 17 10 25
23 l16 22 16 -22 c9 -13 21 -23 26 -23 6 0 1 14 -11 30 l-21 30 21 30 c12 17
17 30 12 30 -5 0 -17 -10 -26 -22 l-16 -23 -16 23 c-9 12 -21 22 -26 22 -5 0
0 -13 12 -30z"/>
<path d="M9327 3662 c-50 -55 26 -138 77 -86 23 22 21 81 -3 94 -29 15 -56 12
-74 -8z m73 -22 c15 -28 -4 -60 -35 -60 -31 0 -50 32 -35 60 6 12 21 20 35 20
14 0 29 -8 35 -20z"/>
<path d="M9460 3620 c0 -33 4 -60 10 -60 6 0 10 21 10 46 0 37 4 47 20 51 11
3 20 9 20 14 0 13 -14 11 -28 -3 -9 -9 -12 -9 -12 0 0 7 -4 12 -10 12 -6 0
-10 -27 -10 -60z"/>
<path d="M9840 3670 c-11 -7 -8 -10 16 -10 44 0 50 -13 13 -25 -42 -14 -57
-38 -40 -59 15 -18 47 -21 56 -6 4 6 -5 10 -20 10 -38 0 -30 34 8 38 24 3 28
0 23 -15 -3 -10 -1 -25 4 -33 7 -11 10 2 10 41 0 43 -4 58 -16 63 -22 8 -37 7
-54 -4z"/>
<path d="M10055 3664 c-10 -11 -15 -29 -13 -53 2 -28 8 -38 29 -45 15 -5 35
-5 45 -1 16 7 13 10 -16 13 -53 6 -58 26 -7 32 46 6 59 27 32 54 -21 20 -49
20 -70 0z m63 -21 c2 -9 -8 -13 -33 -13 -33 0 -36 2 -25 15 15 18 51 16 58 -2z"/>
<path d="M10475 3670 c-4 -6 7 -10 24 -10 40 0 40 -16 1 -25 -36 -8 -52 -32
-39 -57 11 -21 39 -24 57 -6 9 9 12 9 12 0 0 -7 5 -12 10 -12 14 0 12 94 -2
108 -15 15 -54 16 -63 2z m53 -67 c-4 -20 -35 -30 -50 -15 -15 15 0 32 28 32
19 0 25 -5 22 -17z"/>
<path d="M10590 3620 c0 -71 18 -81 22 -12 3 43 5 47 28 47 23 0 25 -4 28 -47
4 -58 22 -64 22 -7 0 68 -34 101 -68 67 -9 -9 -12 -9 -12 0 0 7 -4 12 -10 12
-6 0 -10 -27 -10 -60z"/>
<path d="M10740 3670 c-11 -7 -8 -10 16 -10 44 0 50 -13 13 -25 -42 -14 -57
-38 -40 -59 15 -18 47 -21 56 -6 4 6 -5 10 -20 10 -38 0 -30 34 8 38 24 3 28
0 23 -15 -3 -10 -1 -25 4 -33 7 -11 10 2 10 41 0 43 -4 58 -16 63 -22 8 -37 7
-54 -4z"/>
<path d="M10866 3661 c-20 -22 -21 -65 0 -85 17 -18 50 -21 59 -6 3 6 -5 10
-19 10 -33 0 -51 32 -36 61 8 14 19 19 38 17 26 -3 27 -6 29 -60 1 -62 -6 -74
-52 -80 -24 -3 -27 -6 -12 -12 28 -13 67 2 77 30 6 14 10 51 10 83 l0 57 -39
1 c-26 1 -44 -4 -55 -16z"/>
<path d="M11015 3664 c-10 -11 -15 -29 -13 -53 2 -28 8 -38 29 -45 15 -5 35
-5 45 -1 16 7 13 10 -16 13 -53 6 -58 26 -7 32 46 6 59 27 32 54 -21 20 -49
20 -70 0z m63 -21 c2 -9 -8 -13 -33 -13 -33 0 -36 2 -25 15 15 18 51 16 58 -2z"/>
<path d="M11130 3620 c0 -71 18 -81 22 -12 3 43 5 47 28 47 23 0 25 -4 28 -47
2 -27 7 -48 12 -48 5 0 10 21 12 48 3 40 6 47 26 50 20 3 22 0 22 -47 0 -29 5
-51 11 -51 6 0 9 20 7 51 -3 59 -24 82 -56 63 -12 -8 -22 -8 -35 0 -12 8 -22
8 -37 -2 -12 -7 -20 -8 -20 -2 0 5 -4 10 -10 10 -6 0 -10 -27 -10 -60z"/>
<path d="M11355 3664 c-10 -11 -15 -29 -13 -53 2 -28 8 -38 29 -45 15 -5 35
-5 45 -1 16 7 13 10 -16 13 -53 6 -58 26 -7 32 46 6 59 27 32 54 -21 20 -49
20 -70 0z m63 -21 c2 -9 -8 -13 -33 -13 -33 0 -36 2 -25 15 15 18 51 16 58 -2z"/>
<path d="M11470 3620 c0 -71 18 -81 22 -12 3 43 5 47 31 50 26 3 27 2 27 -47
0 -29 5 -51 11 -51 6 0 9 20 7 51 -3 60 -24 82 -58 61 -12 -7 -20 -8 -20 -2 0
5 -4 10 -10 10 -6 0 -10 -27 -10 -60z"/>
</g>
</svg>
